999
dxfrw 0.6.3
  0
SECTION
  2
HEADER
  9
$ACADVER
  1
AC1021
  9
$DWGCODEPAGE
  3
ANSI_1252
  9
$INSBASE
 10
0
 20
0
 30
0
  9
$EXTMIN
 10
-6.176215943088834
 20
152.1182054500692
 30
0
  9
$EXTMAX
 10
109.9578444269501
 20
211.9886162484436
 30
0
  9
$LIMMIN
 10
0
 20
0
  9
$LIMMAX
 10
12
 20
9
  9
$ORTHOMODE
 70
    0
  9
$REGENMODE
 70
    1
  9
$FILLMODE
 70
    1
  9
$QTEXTMODE
 70
    0
  9
$MIRRTEXT
 70
    1
  9
$LTSCALE
 40
1
  9
$ATTMODE
 70
    1
  9
$TEXTSIZE
 40
0.2
  9
$TRACEWID
 40
0.05
  9
$TEXTSTYLE
  7
Standard
  9
$CLAYER
  8
Incisione
  9
$CELTYPE
  6
ByLayer
  9
$CECOLOR
 62
  256
  9
$CELTSCALE
 40
1
  9
$DISPSILH
 70
    0
  9
$DIMSCALE
 40
1
  9
$DIMASZ
 40
0.18
  9
$DIMEXO
 40
0.0625
  9
$DIMDLI
 40
0.38
  9
$DIMRND
 40
0
  9
$DIMDLE
 40
0
  9
$DIMEXE
 40
0.18
  9
$DIMTP
 40
0
  9
$DIMTM
 40
0
  9
$DIMTXT
 40
0.18
  9
$DIMCEN
 40
0.09
  9
$DIMTSZ
 40
0
  9
$DIMTOL
 70
    0
  9
$DIMLIM
 70
    0
  9
$DIMTIH
 70
    1
  9
$DIMTOH
 70
    1
  9
$DIMSE1
 70
    0
  9
$DIMSE2
 70
    0
  9
$DIMTAD
 70
    0
  9
$DIMZIN
 70
    0
  9
$DIMBLK
  1

  9
$DIMASO
 70
    1
  9
$DIMSHO
 70
    1
  9
$DIMPOST
  1

  9
$DIMAPOST
  1

  9
$DIMALT
 70
    0
  9
$DIMALTD
 70
    2
  9
$DIMALTF
 40
25.4
  9
$DIMLFAC
 40
1
  9
$DIMTOFL
 70
    0
  9
$DIMTVP
 40
0
  9
$DIMTIX
 70
    0
  9
$DIMSOXD
 70
    0
  9
$DIMSAH
 70
    0
  9
$DIMBLK1
  1

  9
$DIMBLK2
  1

  9
$DIMSTYLE
  2
Standard
  9
$DIMCLRD
 70
    0
  9
$DIMCLRE
 70
    0
  9
$DIMCLRT
 70
    0
  9
$DIMTFAC
 40
1
  9
$DIMGAP
 40
0.09
  9
$DIMJUST
 70
    0
  9
$DIMSD1
 70
    0
  9
$DIMSD2
 70
    0
  9
$DIMTOLJ
 70
    1
  9
$DIMTZIN
 70
    0
  9
$DIMALTZ
 70
    0
  9
$DIMALTTZ
 70
    0
  9
$DIMUPT
 70
    0
  9
$DIMDEC
 70
    4
  9
$DIMTDEC
 70
    4
  9
$DIMALTU
 70
    2
  9
$DIMALTTD
 70
    2
  9
$DIMTXSTY
  7
Standard
  9
$DIMAUNIT
 70
    0
  9
$DIMADEC
 70
    0
  9
$DIMALTRND
 40
0
  9
$DIMAZIN
 70
    0
  9
$DIMDSEP
 70
   46
  9
$DIMATFIT
 70
    3
  9
$DIMFRAC
 70
    0
  9
$DIMLDRBLK
  1

  9
$DIMLUNIT
 70
    2
  9
$DIMLWD
 70
   -2
  9
$DIMLWE
 70
   -2
  9
$DIMTMOVE
 70
    2
  9
$DIMFXL
 40
1
  9
$DIMFXLON
 70
    0
  9
$DIMJOGANG
 40
0.7854
  9
$DIMTFILL
 70
    0
  9
$DIMTFILLCLR
 70
    0
  9
$DIMARCSYM
 70
    0
  9
$DIMLTYPE
  6

  9
$DIMLTEX1
  6

  9
$DIMLTEX2
  6

  9
$LUNITS
 70
    2
  9
$LUPREC
 70
    3
  9
$SKETCHINC
 40
0.1
  9
$FILLETRAD
 40
0.5
  9
$AUNITS
 70
    0
  9
$AUPREC
 70
    0
  9
$MENU
  1
.
  9
$ELEVATION
 40
0
  9
$PELEVATION
 40
0
  9
$THICKNESS
 40
0
  9
$LIMCHECK
 70
    0
  9
$CHAMFERA
 40
0.5
  9
$CHAMFERB
 40
0.5
  9
$CHAMFERC
 40
1
  9
$CHAMFERD
 40
0
  9
$SKPOLY
 70
    0
  9
$USRTIMER
 70
    1
  9
$ANGBASE
 50
0
  9
$ANGDIR
 70
    0
  9
$PDMODE
 70
    0
  9
$PDSIZE
 40
0
  9
$PLINEWID
 40
0
  9
$SPLFRAME
 70
    0
  9
$SPLINETYPE
 70
    6
  9
$SPLINESEGS
 70
    8
  9
$HANDSEED
  5
20000
  9
$SURFTAB1
 70
    6
  9
$SURFTAB2
 70
    6
  9
$SURFTYPE
 70
    6
  9
$SURFU
 70
    6
  9
$SURFV
 70
    6
  9
$UCSBASE
  2

  9
$UCSNAME
  2

  9
$UCSORG
 10
0
 20
0
 30
0
  9
$UCSXDIR
 10
1
 20
0
 30
0
  9
$UCSYDIR
 10
0
 20
1
 30
0
  9
$UCSORTHOREF
  2

  9
$UCSORTHOVIEW
 70
    0
  9
$UCSORGTOP
 10
0
 20
0
 30
0
  9
$UCSORGBOTTOM
 10
0
 20
0
 30
0
  9
$UCSORGLEFT
 10
0
 20
0
 30
0
  9
$UCSORGRIGHT
 10
0
 20
0
 30
0
  9
$UCSORGFRONT
 10
0
 20
0
 30
0
  9
$UCSORGBACK
 10
0
 20
0
 30
0
  9
$PUCSBASE
  2

  9
$PUCSNAME
  2

  9
$PUCSORG
 10
0
 20
0
 30
0
  9
$PUCSXDIR
 10
1
 20
0
 30
0
  9
$PUCSYDIR
 10
0
 20
1
 30
0
  9
$PUCSORTHOREF
  2

  9
$PUCSORTHOVIEW
 70
    0
  9
$PUCSORGTOP
 10
0
 20
0
 30
0
  9
$PUCSORGBOTTOM
 10
0
 20
0
 30
0
  9
$PUCSORGLEFT
 10
0
 20
0
 30
0
  9
$PUCSORGRIGHT
 10
0
 20
0
 30
0
  9
$PUCSORGFRONT
 10
0
 20
0
 30
0
  9
$PUCSORGBACK
 10
0
 20
0
 30
0
  9
$USERI1
 70
    0
  9
$USERI2
 70
    0
  9
$USERI3
 70
    0
  9
$USERI4
 70
    0
  9
$USERI5
 70
    0
  9
$USERR1
 40
0
  9
$USERR2
 40
0
  9
$USERR3
 40
0
  9
$USERR4
 40
0
  9
$USERR5
 40
0
  9
$WORLDVIEW
 70
    1
  9
$SHADEDGE
 70
    3
  9
$SHADEDIF
 70
   70
  9
$TILEMODE
 70
    1
  9
$MAXACTVP
 70
   64
  9
$PINSBASE
 10
0
 20
0
 30
0
  9
$PLIMCHECK
 70
    0
  9
$PEXTMIN
 10
1e+20
 20
1e+20
 30
1e+20
  9
$PEXTMAX
 10
-1e+20
 20
-1e+20
 30
-1e+20
  9
$GRIDMODE
 70
    0
  9
$SNAPSTYLE
 70
    0
  9
$PLIMMIN
 10
0
 20
0
  9
$PLIMMAX
 10
12
 20
9
  9
$UNITMODE
 70
    0
  9
$VISRETAIN
 70
    1
  9
$PLINEGEN
 70
    0
  9
$PSLTSCALE
 70
    1
  9
$TREEDEPTH
 70
 3020
  9
$CMLSTYLE
  2
Standard
  9
$CMLJUST
 70
    0
  9
$CMLSCALE
 40
1
  9
$PROXYGRAPHICS
 70
    1
  9
$MEASUREMENT
 70
    0
  9
$CELWEIGHT
370
   -1
  9
$ENDCAPS
280
    0
  9
$JOINSTYLE
280
    0
  9
$LWDISPLAY
290
    0
  9
$INSUNITS
 70
    4
  9
$HYPERLINKBASE
  1

  9
$STYLESHEET
  1

  9
$XEDIT
290
    1
  9
$CEPSNTYPE
380
    0
  9
$PSTYLEMODE
290
    1
  9
$EXTNAMES
290
    1
  9
$PSVPSCALE
 40
0
  9
$OLESTARTUP
290
    0
  9
$SORTENTS
280
  127
  9
$INDEXCTL
280
    0
  9
$HIDETEXT
280
    1
  9
$XCLIPFRAME
290
    0
  9
$HALOGAP
280
    0
  9
$OBSCOLOR
 70
  257
  9
$OBSLTYPE
280
    0
  9
$INTERSECTIONDISPLAY
280
    0
  9
$INTERSECTIONCOLOR
 70
  257
  9
$DIMASSOC
280
    2
  9
$PROJECTNAME
  1

  9
$CAMERADISPLAY
290
    0
  9
$LENSLENGTH
 40
50
  9
$CAMERAHEIGHT
 40
0
  9
$STEPSPERSEC
 40
2
  9
$STEPSIZE
 40
50
  9
$3DDWFPREC
 40
2
  9
$PSOLWIDTH
 40
5
  9
$PSOLHEIGHT
 40
80
  9
$LOFTANG1
 40
1.570796326794897
  9
$LOFTANG2
 40
1.570796326794897
  9
$LOFTMAG1
 40
0
  9
$LOFTMAG2
 40
0
  9
$LOFTPARAM
 70
    7
  9
$LOFTNORMALS
280
    1
  9
$LATITUDE
 40
1
  9
$LONGITUDE
 40
1
  9
$NORTHDIRECTION
 40
0
  9
$TIMEZONE
 70
-8000
  9
$LIGHTGLYPHDISPLAY
280
    1
  9
$TILEMODELIGHTSYNCH
280
    1
  9
$SOLIDHIST
280
    1
  9
$SHOWHIST
280
    1
  9
$DWFFRAME
280
    2
  9
$DGNFRAME
280
    0
  9
$REALWORLDSCALE
290
    1
  9
$INTERFERECOLOR
 62
    1
  9
$CSHADOW
280
    0
  9
$SHADOWPLANELOCATION
 40
0
  0
ENDSEC
  0
SECTION
  2
CLASSES
  0
ENDSEC
  0
SECTION
  2
TABLES
  0
TABLE
  2
VPORT
  5
8
330
0
100
AcDbSymbolTable
 70
    1
  0
VPORT
  5
31
330
2
100
AcDbSymbolTableRecord
100
AcDbViewportTableRecord
  2
*ACTIVE
 70
    0
 10
0
 20
0
 11
1
 21
1
 12
101.2434439500619
 22
125.6751342634224
 13
0
 23
0
 14
10
 24
10
 15
10
 25
10
 16
0
 26
0
 36
1
 17
0
 27
0
 37
0
 40
159.546341288763
 41
1.814385150812065
 42
50
 43
0
 44
0
 50
0
 51
0
 71
    0
 72
  100
 73
    1
 74
    3
 75
    0
 76
    0
 77
    0
 78
    0
281
    0
 65
    1
110
0
120
0
130
0
111
1
121
0
131
0
112
0
122
1
132
0
 79
    0
146
0
348
10020
 60
    7
 61
    5
292
1
282
    1
141
0
142
0
 63
  250
421
3358443
  0
ENDTAB
  0
TABLE
  2
LTYPE
  5
5
330
0
100
AcDbSymbolTable
 70
    4
  0
LTYPE
  5
14
330
5
100
AcDbSymbolTableRecord
100
AcDbLinetypeTableRecord
  2
ByBlock
 70
    0
  3

 72
   65
 73
    0
 40
0
  0
LTYPE
  5
15
330
5
100
AcDbSymbolTableRecord
100
AcDbLinetypeTableRecord
  2
ByLayer
 70
    0
  3

 72
   65
 73
    0
 40
0
  0
LTYPE
  5
16
330
5
100
AcDbSymbolTableRecord
100
AcDbLinetypeTableRecord
  2
Continuous
 70
    0
  3
Solid line
 72
   65
 73
    0
 40
0
  0
LTYPE
  5
32
330
5
100
AcDbSymbolTableRecord
100
AcDbLinetypeTableRecord
  2
DOT
 70
    0
  3
Dot . . . . . . . . . . . . . . . . . . . . . .
 72
   65
 73
    2
 40
6.35
 49
0
 74
    0
 49
-6.35
 74
    0
  0
LTYPE
  5
33
330
5
100
AcDbSymbolTableRecord
100
AcDbLinetypeTableRecord
  2
DOTTINY
 70
    0
  3
Dot (.15x) .....................................
 72
   65
 73
    2
 40
0.9525
 49
0
 74
    0
 49
-0.9525
 74
    0
  0
LTYPE
  5
34
330
5
100
AcDbSymbolTableRecord
100
AcDbLinetypeTableRecord
  2
DOT2
 70
    0
  3
Dot (.5x) .....................................
 72
   65
 73
    2
 40
3.175
 49
0
 74
    0
 49
-3.175
 74
    0
  0
LTYPE
  5
35
330
5
100
AcDbSymbolTableRecord
100
AcDbLinetypeTableRecord
  2
DOTX2
 70
    0
  3
Dot (2x) .  .  .  .  .  .  .  .  .  .  .  .  .
 72
   65
 73
    2
 40
12.7
 49
0
 74
    0
 49
-12.7
 74
    0
  0
LTYPE
  5
36
330
5
100
AcDbSymbolTableRecord
100
AcDbLinetypeTableRecord
  2
DASHED
 70
    0
  3
Dashed _ _ _ _ _ _ _ _ _ _ _ _ _ _ _ _ _
 72
   65
 73
    2
 40
19.05
 49
12.7
 74
    0
 49
-6.35
 74
    0
  0
LTYPE
  5
37
330
5
100
AcDbSymbolTableRecord
100
AcDbLinetypeTableRecord
  2
DASHEDTINY
 70
    0
  3
Dashed (.15x) _ _ _ _ _ _ _ _ _ _ _ _ _ _ _ _ _
 72
   65
 73
    2
 40
2.8575
 49
1.905
 74
    0
 49
-0.9525
 74
    0
  0
LTYPE
  5
38
330
5
100
AcDbSymbolTableRecord
100
AcDbLinetypeTableRecord
  2
DASHED2
 70
    0
  3
Dashed (.5x) _ _ _ _ _ _ _ _ _ _ _ _ _ _ _ _ _
 72
   65
 73
    2
 40
9.524999999999999
 49
6.35
 74
    0
 49
-3.175
 74
    0
  0
LTYPE
  5
39
330
5
100
AcDbSymbolTableRecord
100
AcDbLinetypeTableRecord
  2
DASHEDX2
 70
    0
  3
Dashed (2x) ____  ____  ____  ____  ____  ___
 72
   65
 73
    2
 40
38.09999999999999
 49
25.4
 74
    0
 49
-12.7
 74
    0
  0
LTYPE
  5
3A
330
5
100
AcDbSymbolTableRecord
100
AcDbLinetypeTableRecord
  2
DASHDOT
 70
    0
  3
Dash dot __ . __ . __ . __ . __ . __ . __ . __
 72
   65
 73
    4
 40
25.4
 49
12.7
 74
    0
 49
-6.35
 74
    0
 49
0
 74
    0
 49
-6.35
 74
    0
  0
LTYPE
  5
3B
330
5
100
AcDbSymbolTableRecord
100
AcDbLinetypeTableRecord
  2
DASHDOTTINY
 70
    0
  3
Dash dot (.15x) _._._._._._._._._._._._._._._.
 72
   65
 73
    4
 40
3.81
 49
1.905
 74
    0
 49
-0.9525
 74
    0
 49
0
 74
    0
 49
-0.9525
 74
    0
  0
LTYPE
  5
3C
330
5
100
AcDbSymbolTableRecord
100
AcDbLinetypeTableRecord
  2
DASHDOT2
 70
    0
  3
Dash dot (.5x) _._._._._._._._._._._._._._._.
 72
   65
 73
    4
 40
12.7
 49
6.35
 74
    0
 49
-3.175
 74
    0
 49
0
 74
    0
 49
-3.175
 74
    0
  0
LTYPE
  5
3D
330
5
100
AcDbSymbolTableRecord
100
AcDbLinetypeTableRecord
  2
DASHDOTX2
 70
    0
  3
Dash dot (2x) ____  .  ____  .  ____  .  ___
 72
   65
 73
    4
 40
50.8
 49
25.4
 74
    0
 49
-12.7
 74
    0
 49
0
 74
    0
 49
-12.7
 74
    0
  0
LTYPE
  5
3E
330
5
100
AcDbSymbolTableRecord
100
AcDbLinetypeTableRecord
  2
DIVIDE
 70
    0
  3
Divide ____ . . ____ . . ____ . . ____ . . ____
 72
   65
 73
    6
 40
31.75
 49
12.7
 74
    0
 49
-6.35
 74
    0
 49
0
 74
    0
 49
-6.35
 74
    0
 49
0
 74
    0
 49
-6.35
 74
    0
  0
LTYPE
  5
3F
330
5
100
AcDbSymbolTableRecord
100
AcDbLinetypeTableRecord
  2
DIVIDETINY
 70
    0
  3
Divide (.15x) __..__..__..__..__..__..__..__.._
 72
   65
 73
    6
 40
4.7625
 49
1.905
 74
    0
 49
-0.9525
 74
    0
 49
0
 74
    0
 49
-0.9525
 74
    0
 49
0
 74
    0
 49
-0.9525
 74
    0
  0
LTYPE
  5
40
330
5
100
AcDbSymbolTableRecord
100
AcDbLinetypeTableRecord
  2
DIVIDE2
 70
    0
  3
Divide (.5x) __..__..__..__..__..__..__..__.._
 72
   65
 73
    6
 40
15.875
 49
6.35
 74
    0
 49
-3.175
 74
    0
 49
0
 74
    0
 49
-3.175
 74
    0
 49
0
 74
    0
 49
-3.175
 74
    0
  0
LTYPE
  5
41
330
5
100
AcDbSymbolTableRecord
100
AcDbLinetypeTableRecord
  2
DIVIDEX2
 70
    0
  3
Divide (2x) ________  .  .  ________  .  .  _
 72
   65
 73
    6
 40
63.5
 49
25.4
 74
    0
 49
-12.7
 74
    0
 49
0
 74
    0
 49
-12.7
 74
    0
 49
0
 74
    0
 49
-12.7
 74
    0
  0
LTYPE
  5
42
330
5
100
AcDbSymbolTableRecord
100
AcDbLinetypeTableRecord
  2
BORDER
 70
    0
  3
Border __ __ . __ __ . __ __ . __ __ . __ __ .
 72
   65
 73
    6
 40
44.45
 49
12.7
 74
    0
 49
-6.35
 74
    0
 49
12.7
 74
    0
 49
-6.35
 74
    0
 49
0
 74
    0
 49
-6.35
 74
    0
  0
LTYPE
  5
43
330
5
100
AcDbSymbolTableRecord
100
AcDbLinetypeTableRecord
  2
BORDERTINY
 70
    0
  3
Border (.15x) __.__.__.__.__.__.__.__.__.__.__.
 72
   65
 73
    6
 40
6.6675
 49
1.905
 74
    0
 49
-0.9525
 74
    0
 49
1.905
 74
    0
 49
-0.9525
 74
    0
 49
0
 74
    0
 49
-0.9525
 74
    0
  0
LTYPE
  5
44
330
5
100
AcDbSymbolTableRecord
100
AcDbLinetypeTableRecord
  2
BORDER2
 70
    0
  3
Border (.5x) __.__.__.__.__.__.__.__.__.__.__.
 72
   65
 73
    6
 40
22.225
 49
6.35
 74
    0
 49
-3.175
 74
    0
 49
6.35
 74
    0
 49
-3.175
 74
    0
 49
0
 74
    0
 49
-3.175
 74
    0
  0
LTYPE
  5
45
330
5
100
AcDbSymbolTableRecord
100
AcDbLinetypeTableRecord
  2
BORDERX2
 70
    0
  3
Border (2x) ____  ____  .  ____  ____  .  ___
 72
   65
 73
    6
 40
88.89999999999999
 49
25.4
 74
    0
 49
-12.7
 74
    0
 49
25.4
 74
    0
 49
-12.7
 74
    0
 49
0
 74
    0
 49
-12.7
 74
    0
  0
LTYPE
  5
46
330
5
100
AcDbSymbolTableRecord
100
AcDbLinetypeTableRecord
  2
CENTER
 70
    0
  3
Center ____ _ ____ _ ____ _ ____ _ ____ _ ____
 72
   65
 73
    4
 40
50.8
 49
31.75
 74
    0
 49
-6.35
 74
    0
 49
6.35
 74
    0
 49
-6.35
 74
    0
  0
LTYPE
  5
47
330
5
100
AcDbSymbolTableRecord
100
AcDbLinetypeTableRecord
  2
CENTERTINY
 70
    0
  3
Center (.15x) ___ _ ___ _ ___ _ ___ _ ___ _ ___
 72
   65
 73
    4
 40
7.619999999999999
 49
4.7625
 74
    0
 49
-0.9525
 74
    0
 49
0.9525
 74
    0
 49
-0.9525
 74
    0
  0
LTYPE
  5
48
330
5
100
AcDbSymbolTableRecord
100
AcDbLinetypeTableRecord
  2
CENTER2
 70
    0
  3
Center (.5x) ___ _ ___ _ ___ _ ___ _ ___ _ ___
 72
   65
 73
    4
 40
28.575
 49
19.05
 74
    0
 49
-3.175
 74
    0
 49
3.175
 74
    0
 49
-3.175
 74
    0
  0
LTYPE
  5
49
330
5
100
AcDbSymbolTableRecord
100
AcDbLinetypeTableRecord
  2
CENTERX2
 70
    0
  3
Center (2x) ________  __  ________  __  _____
 72
   65
 73
    4
 40
101.6
 49
63.5
 74
    0
 49
-12.7
 74
    0
 49
12.7
 74
    0
 49
-12.7
 74
    0
  0
ENDTAB
  0
TABLE
  2
LAYER
  5
2
330
0
100
AcDbSymbolTable
 70
    1
  0
LAYER
  5
10
330
2
100
AcDbSymbolTableRecord
100
AcDbLayerTableRecord
  2
0
 70
    0
 62
    7
  6
CONTINUOUS
370
   -3
390
F
  0
LAYER
  5
4A
330
2
100
AcDbSymbolTableRecord
100
AcDbLayerTableRecord
  2
Defpoints
 70
    0
 62
    7
  6
CONTINUOUS
290
0
370
   -3
390
F
  0
LAYER
  5
4B
330
2
100
AcDbSymbolTableRecord
100
AcDbLayerTableRecord
  2
Incisione
 70
    0
 62
    5
420
1511679
  6
CONTINUOUS
370
   -3
390
F
  0
LAYER
  5
4C
330
2
100
AcDbSymbolTableRecord
100
AcDbLayerTableRecord
  2
Taglio
 70
    0
 62
   22
420
12592143
  6
CONTINUOUS
370
   -3
390
F
  0
ENDTAB
  0
TABLE
  2
STYLE
  5
3
330
0
100
AcDbSymbolTable
 70
    3
  0
STYLE
  5
4D
330
2
100
AcDbSymbolTableRecord
100
AcDbTextStyleTableRecord
  2
Standard
 70
    0
 40
0
 41
1
 50
0
 71
    0
 42
1
  3
txt
  4

  0
ENDTAB
  0
TABLE
  2
VIEW
  5
6
330
0
100
AcDbSymbolTable
 70
    0
  0
ENDTAB
  0
TABLE
  2
UCS
  5
7
330
0
100
AcDbSymbolTable
 70
    0
  0
ENDTAB
  0
TABLE
  2
APPID
  5
9
330
0
100
AcDbSymbolTable
 70
    1
  0
APPID
  5
12
330
9
100
AcDbSymbolTableRecord
100
AcDbRegAppTableRecord
  2
ACAD
 70
    0
  0
APPID
  5
4E
330
9
100
AcDbSymbolTableRecord
100
AcDbRegAppTableRecord
  2
LibreCad
 70
    0
  0
ENDTAB
  0
TABLE
  2
DIMSTYLE
  5
A
330
0
100
AcDbSymbolTable
 70
    1
100
AcDbDimStyleTable
 71
    1
  0
DIMSTYLE
105
4F
330
A
100
AcDbSymbolTableRecord
100
AcDbDimStyleTableRecord
  2
Standard
 70
    0
 40
1
 41
0.18
 42
0.0625
 43
0.38
 44
0.18
 45
0
 46
0
 47
0
 48
0
 49
1
140
0.18
141
0.09
142
0
143
25.4
144
1
145
0
146
1
147
0.09
148
0
 71
    0
 72
    0
 73
    1
 74
    1
 75
    0
 76
    0
 77
    0
 78
    0
 79
    0
170
    0
171
    2
172
    0
173
    0
174
    0
175
    0
176
    0
177
    0
178
    0
179
    0
271
    4
272
    4
273
    2
274
    2
275
    0
276
    0
277
    2
278
   46
279
    0
280
    0
281
    0
282
    0
283
    1
284
    0
285
    0
286
    0
288
    0
289
    3
340
Standard
341

371
   -2
372
   -2
  0
ENDTAB
  0
TABLE
  2
BLOCK_RECORD
  5
1
330
0
100
AcDbSymbolTable
 70
    2
  0
BLOCK_RECORD
  5
1F
330
1
100
AcDbSymbolTableRecord
100
AcDbBlockTableRecord
  2
*Model_Space
 70
    0
280
    1
281
    0
  0
BLOCK_RECORD
  5
1E
330
1
100
AcDbSymbolTableRecord
100
AcDbBlockTableRecord
  2
*Paper_Space
 70
    0
280
    1
281
    0
  0
BLOCK_RECORD
  5
50
330
1
100
AcDbSymbolTableRecord
100
AcDbBlockTableRecord
  2
*D2
 70
    0
280
    1
281
    0
  0
BLOCK_RECORD
  5
53
330
1
100
AcDbSymbolTableRecord
100
AcDbBlockTableRecord
  2
*D1
 70
    0
280
    1
281
    0
  0
ENDTAB
  0
ENDSEC
  0
SECTION
  2
BLOCKS
  0
BLOCK
  5
20
330
1F
100
AcDbEntity
  8
0
100
AcDbBlockBegin
  2
*Model_Space
 70
    0
 10
0
 20
0
 30
0
  3
*Model_Space
  1

  0
ENDBLK
  5
21
330
1F
100
AcDbEntity
  8
0
100
AcDbBlockEnd
  0
BLOCK
  5
1C
330
1B
100
AcDbEntity
  8
0
100
AcDbBlockBegin
  2
*Paper_Space
 70
    0
 10
0
 20
0
 30
0
  3
*Paper_Space
  1

  0
ENDBLK
  5
1D
330
1F
100
AcDbEntity
  8
0
100
AcDbBlockEnd
  0
BLOCK
  5
51
330
50
100
AcDbEntity
  8
0
100
AcDbBlockBegin
  2
*D2
 70
    1
 10
0
 20
0
  3
*D2
  1

  0
LINE
  5
56
100
AcDbEntity
  8
Incisione
  6
ByBlock
 62
    0
370
   -2
100
AcDbLine
 10
68.53461691147265
 20
163.7043218856016
 11
68.53461691147265
 21
152.1182054500692
  0
LINE
  5
57
100
AcDbEntity
  8
Incisione
  6
ByBlock
 62
    0
370
   -2
100
AcDbLine
 10
3.41088518936258e-13
 20
163.7043218856016
 11
3.389601838751595e-13
 21
152.1182054500692
  0
LINE
  5
58
100
AcDbEntity
  8
Incisione
  6
ByBlock
 62
    0
370
   -2
100
AcDbLine
 10
68.53461691147265
 20
152.2982054500692
 11
34.78730845573652
 21
152.2982054500692
  0
SOLID
  5
59
100
AcDbEntity
  8
Incisione
  6
ByBlock
 62
    0
370
   -2
100
AcDbTrace
 10
68.53461691147265
 20
152.2982054500692
 30
0
 11
68.35461691147265
 21
152.2682329547095
 31
0
 12
68.35461691147265
 22
152.3281779454288
 32
0
 13
68.35461691147265
 23
152.3281779454288
 33
0
  0
SOLID
  5
5A
100
AcDbEntity
  8
Incisione
  6
ByBlock
 62
    0
370
   -2
100
AcDbTrace
 10
3.389932493387365e-13
 20
152.2982054500692
 30
0
 11
0.180000000000339
 21
152.3281779454288
 31
0
 12
0.180000000000339
 22
152.2682329547095
 32
0
 13
0.180000000000339
 23
152.2682329547095
 33
0
  0
LINE
  5
5B
100
AcDbEntity
  8
Incisione
  6
ByBlock
 62
    0
370
   -2
100
AcDbLine
 10
33.74730845573647
 20
152.2982054500692
 11
3.389932493387365e-13
 21
152.2982054500692
  0
MTEXT
  5
5C
100
AcDbEntity
  8
Incisione
  6
CONTINUOUS
 62
    0
370
   -2
100
AcDbMText
 10
34.2673084557365
 20
152.2982054500692
 30
0
 40
0.18
 41
0.8600000000000447
 71
    5
 72
    1
  1
68.5346
  7
Standard
210
0
220
0
230
1
 50
0
 73
    2
 44
1
  0
ENDBLK
  5
52
330
50
100
AcDbEntity
  8
0
100
AcDbBlockEnd
  0
BLOCK
  5
54
330
53
100
AcDbEntity
  8
0
100
AcDbBlockBegin
  2
*D1
 70
    1
 10
0
 20
0
  3
*D1
  1

  0
LINE
  5
5D
100
AcDbEntity
  8
Incisione
  6
ByBlock
 62
    0
370
   -2
100
AcDbLine
 10
-5.756215943088815
 20
211.9886162484436
 11
-5.756215943088817
 21
185.5186162484436
  0
SOLID
  5
5E
100
AcDbEntity
  8
Incisione
  6
ByBlock
 62
    0
370
   -2
100
AcDbTrace
 10
-5.756215943088815
 20
211.9886162484436
 30
0
 11
-5.72624344772917
 21
211.8086162484436
 31
0
 12
-5.78618843844846
 22
211.8086162484436
 32
0
 13
-5.78618843844846
 23
211.8086162484436
 33
0
  0
SOLID
  5
5F
100
AcDbEntity
  8
Incisione
  6
ByBlock
 62
    0
370
   -2
100
AcDbTrace
 10
-5.756215943088819
 20
158.6886162484436
 30
0
 11
-5.786188438448463
 21
158.8686162484436
 31
0
 12
-5.726243447729174
 22
158.8686162484436
 32
0
 13
-5.726243447729174
 23
158.8686162484436
 33
0
  0
LINE
  5
60
100
AcDbEntity
  8
Incisione
  6
ByBlock
 62
    0
370
   -2
100
AcDbLine
 10
-5.756215943088817
 20
185.1586162484436
 11
-5.756215943088819
 21
158.6886162484436
  0
MTEXT
  5
61
100
AcDbEntity
  8
Incisione
  6
CONTINUOUS
 62
    0
370
   -2
100
AcDbMText
 10
-5.756215943088817
 20
185.3386162484436
 30
0
 40
0.18
 41
0.8400000000000336
 71
    5
 72
    1
  1
53.3000
  7
Standard
210
0
220
0
230
1
 50
0
 73
    2
 44
1
  0
LINE
  5
62
100
AcDbEntity
  8
Incisione
  6
ByBlock
 62
    0
370
   -2
100
AcDbLine
 10
-4.756215943088815
 20
211.9886162484436
 11
-5.936215943088815
 21
211.9886162484436
  0
LINE
  5
63
100
AcDbEntity
  8
Incisione
  6
ByBlock
 62
    0
370
   -2
100
AcDbLine
 10
-4.756215943088819
 20
158.6886162484436
 11
-5.936215943088818
 21
158.6886162484436
  0
ENDBLK
  5
55
330
53
100
AcDbEntity
  8
0
100
AcDbBlockEnd
  0
ENDSEC
  0
SECTION
  2
ENTITIES
  0
LWPOLYLINE
  5
64
100
AcDbEntity
  8
Taglio
  6
ByLayer
 62
  256
370
   -1
100
AcDbPolyline
 90
  182
 70
    0
 43
0
 10
15.23461691147259
 20
207.8414149780988
 10
15.29073873781647
 20
207.8423945891343
 10
15.34679218833014
 20
207.8453322268692
 10
15.40270897052153
 20
207.8502243122448
 10
15.4584209584076
 20
207.8570648850086
 10
15.51386027551575
 20
207.865845610977
 10
15.568959377581
 20
207.8765557921879
 10
15.62365113483736
 20
207.8891823799363
 10
15.67786891380604
 20
207.9037099906707
 10
15.73154665847801
 20
207.9201209247358
 10
15.78461897079239
 20
207.9383951879372
 10
15.83702119031477
 20
207.9585105159008
 10
15.88868947301489
 20
207.9804424011998
 10
15.93956086905234
 20
208.0041641232106
 10
15.98957339946946
 20
208.0296467806709
 10
16.03866613170453
 20
208.0568593268888
 10
16.08677925382779
 20
208.0857686075699
 10
16.1338541474139
 20
208.1163394012106
 10
16.17983345895868
 20
208.1485344620091
 10
16.2246611697559
 20
208.1823145652447
 10
16.26828266414759
 20
208.2176385550674
 10
16.31064479606448
 20
208.2544633946384
 10
16.35169595377624
 20
208.2927442185648
 10
16.39138612277281
 20
208.3324343875613
 10
16.42966694669917
 20
208.3734855452731
 10
16.46649178627001
 20
208.41584767719
 10
16.5018157760926
 20
208.4594691715815
 10
16.53559587932864
 20
208.5042968823789
 10
16.56779094012722
 20
208.5502761939238
 10
16.59836173376777
 20
208.5973510875097
 10
16.62727101444898
 20
208.645464209633
 10
16.6544835606669
 20
208.6945569418681
 10
16.67996621812699
 20
208.7445694722851
 10
16.70368794013802
 20
208.7954408683222
 10
16.72561982543687
 20
208.8471091510228
 10
16.7457351534008
 20
208.899511370545
 10
16.76400941660222
 20
208.9525836828593
 10
16.78042035066721
 20
209.0062614275314
 10
16.79494796140159
 20
209.0604792065001
 10
16.8075745491501
 20
209.1151709637566
 10
16.81828473036126
 20
209.1702700658216
 10
16.82706545632948
 20
209.2257093829298
 10
16.83390602909321
 20
209.2814213708157
 10
16.83879811446877
 20
209.3373381530073
 10
16.8417357522037
 20
209.393391603521
 10
16.84271536323899
 20
209.449513429865
 10
16.84175010838885
 20
209.5052227671931
 10
16.83885549509171
 20
209.5608652257688
 10
16.8340349983215
 20
209.6163740069962
 10
16.82729440506944
 20
209.6716824727596
 10
16.81864180739649
 20
209.7267242254206
 10
16.80808759271861
 20
209.7814331875293
 10
16.79564443133734
 20
209.8357436811498
 10
16.78132726122828
 20
209.8895905067068
 10
16.76515327010895
 20
209.9429090212561
 10
16.74714187480447
 20
209.99563521609
 10
16.72731469793803
 20
210.0477057935786
 10
16.70569554197243
 20
210.0990582431582
 10
16.68231036063639
 20
210.1496309163754
 10
16.65718722776569
 20
210.1993631008968
 10
16.63035630360196
 20
210.2481950933916
 10
16.60184979858491
 20
210.2960682712073
 10
16.57170193468346
 20
210.3429251627458
 10
16.53994890431284
 20
210.3887095164573
 10
16.5066288268855
 20
210.4333663683694
 10
16.47178170304892
 20
210.4768421080735
 10
16.4354493666649
 20
210.5190845430807
 10
16.39767543458856
 20
210.5600429614824
 10
16.35850525430544
 20
210.5996681928268
 10
16.31798584949343
 20
210.6379126671484
 10
16.2761658635693
 20
210.6747304720775
 10
16.23309550129409
 20
210.7100774079554
 10
16.18882646850136
 20
210.7439110408977
 10
16.14341191002484
 20
210.7761907537351
 10
16.09690634589822
 20
210.8068777947742
 10
16.04936560590409
 20
210.83593532432
 10
16.0008467625504
 20
210.8633284588996
 10
15.95140806255495
 20
210.8890243131418
 10
15.90110885692059
 20
210.9129920392552
 10
15.85000952968483
 20
210.9352028640601
 10
15.79817142542765
 20
210.9556301235316
 10
15.74565677562987
 20
210.9742492948099
 10
15.69252862396183
 20
210.9910380256381
 10
15.63885075060182
 20
211.0059761611983
 10
15.58468759566654
 20
211.0190457683061
 10
15.53010418185249
 20
211.0302311569394
 10
15.47516603637496
 20
211.0395188990747
 10
15.41993911230372
 20
211.0468978448068
 10
15.36448970938659
 20
211.0523591357348
 10
15.30888439445596
 20
211.055896215596
 10
15.25318992151642
 20
211.0575048381379
 10
15.1974731516068
 20
211.0571830722133
 10
15.14180097253268
 20
211.0549313041017
 10
15.08624021856917
 20
211.0507522370435
 10
15.03085759022531
 20
211.0446508879954
 10
14.97571957417119
 20
211.0366345816078
 10
14.92089236342076
 20
211.026712941431
 10
14.86644177786673
 20
211.0148978783627
 10
14.81243318526492
 20
211.0012035763489
 10
14.7589314227597
 20
210.9856464753555
 10
14.70600071904778
 20
210.9682452516331
 10
14.65370461727127
 20
210.9490207952956
 10
14.60210589873498
 20
210.9279961852424
 10
14.55126650753721
 20
210.9051966614506
 10
14.50124747620612
 20
210.8806495946774
 10
14.45210885243057
 20
210.854384453598
 10
14.40390962697279
 20
210.8264327694312
 10
14.35670766285057
 20
210.7968280980856
 10
14.31055962587232
 20
210.7656059798753
 10
14.2655209166104
 20
210.7328038968544
 10
14.22164560389285
 20
210.69846122782
 10
14.17898635989354
 20
210.6626192010374
 10
14.1375943969
 20
210.6253208447461
 10
14.09751940583283
 20
210.5866109355052
 10
14.05880949659183
 20
210.5465359444379
 10
14.02151114030062
 20
210.5051439814445
 10
13.98566911351793
 20
210.4624847374453
 10
13.95132644448347
 20
210.4186094247275
 10
13.91852436146269
 20
210.3735707154656
 10
13.88730224325241
 20
210.3274226784874
 10
13.85769757190678
 20
210.2802207143652
 10
13.82974588774005
 20
210.2320214889075
 10
13.80348074666051
 20
210.1828828651319
 10
13.77893367988702
 20
210.1328638338009
 10
13.75613415609553
 20
210.0820244426031
 10
13.73510954604228
 20
210.0304257240668
 10
13.7158850897049
 20
209.9781296222905
 10
13.69848386598255
 20
209.9251989185784
 10
13.68292676498902
 20
209.8716971560734
 10
13.66923246297506
 20
209.8176885634714
 10
13.65741739990676
 20
209.7632379779175
 10
13.64749575972996
 20
209.7084107671669
 10
13.63947945334235
 20
209.6532727511128
 10
13.63337810429437
 20
209.5978901227691
 10
13.62919903723616
 20
209.5423293688054
 10
13.62694726912457
 20
209.4866571897314
 10
13.6266255032001
 20
209.4309404198216
 10
13.62823412574164
 20
209.3752459468824
 10
13.63177120560294
 20
209.3196406319516
 10
13.63723249653083
 20
209.2641912290342
 10
13.64461144226289
 20
209.208964304963
 10
13.65389918439814
 20
209.1540261594855
 10
13.66508457303155
 20
209.0994427456715
 10
13.67815418013936
 20
209.0452795907363
 10
13.69309231569957
 20
208.9916017173764
 10
13.70988104652781
 20
208.9384735657081
 10
13.72850021780584
 20
208.8859589159104
 10
13.74892747727745
 20
208.8341208116535
 10
13.77113830208248
 20
208.7830214844175
 10
13.79510602819562
 20
208.7327222787831
 10
13.82080188243799
 20
208.6832835787877
 10
13.8481950170177
 20
208.6347647354341
 10
13.87725254656323
 20
208.5872239954399
 10
13.90793958760241
 20
208.5407184313131
 10
13.94021930043982
 20
208.4953038728368
 10
13.97405293338204
 20
208.451034840044
 10
14.00939986926005
 20
208.4079644777689
 10
14.04621767418917
 20
208.3661444918448
 10
14.08446214851097
 20
208.3256250870324
 10
14.12408737985504
 20
208.2864549067494
 10
14.16504579825664
 20
208.2486809746729
 10
14.20728823326419
 20
208.2123486382891
 10
14.250763972968
 20
208.1775015144524
 10
14.29542082488035
 20
208.1441814370251
 10
14.34120517859162
 20
208.1124284066545
 10
14.38806207013022
 20
208.0822805427529
 10
14.43593524794608
 20
208.0537740377358
 10
14.48476724044076
 20
208.0269431135721
 10
14.53449942496195
 20
208.0018199807016
 10
14.58507209817924
 20
207.9784347993655
 10
14.63642454775891
 20
207.9568156433998
 10
14.68849512524741
 20
207.9369884665334
 10
14.74122132008131
 20
207.9189770712292
 10
14.79453983463065
 20
207.9028030801096
 10
14.84838666018754
 20
207.8884859100008
 10
14.90269715380816
 20
207.8760427486193
 10
14.95740611591691
 20
207.8654885339415
 10
15.01244786857785
 20
207.8568359362685
 10
15.06775633434108
 20
207.8500953430164
 10
15.12326511556876
 20
207.845274846246
 10
15.17890757414432
 20
207.8423802329489
 10
15.23461691147259
 20
207.8414149780988
  0
DIMENSION
  5
65
100
AcDbEntity
  8
Incisione
  6
ByLayer
 62
  256
370
   -1
100
AcDbDimension
  2
*D1
 10
-5.756215943088819
 20
158.6886162484436
 30
0
 11
-5.756215943088817
 21
185.3386162484436
 31
0
 70
   32
  1
<>
 71
    5
 72
    0
  3
Standard
 53
0
210
0
220
0
230
1
100
AcDbAlignedDimension
 13
0.994481937276646
 23
211.9886162484436
 33
0
 14
0.9944819372761913
 24
158.6886162484436
 34
0
 50
90
100
AcDbRotatedDimension
  0
LWPOLYLINE
  5
66
100
AcDbEntity
  8
Incisione
  6
ByLayer
 62
  256
370
   70
100
AcDbPolyline
 90
  231
 70
    0
 43
0
 10
105.4773254936086
 20
177.4383656581421
 10
105.5517851686737
 20
177.4390499428349
 10
105.62468107891
 20
177.4411011857048
 10
105.6960257420692
 20
177.4445169699385
 10
105.7658316759025
 20
177.449294878723
 10
105.8341113981614
 20
177.4554324952451
 10
105.9008774265976
 20
177.4629274026918
 10
105.9661422789627
 20
177.4717771842498
 10
106.0299184730077
 20
177.4819794231061
 10
106.0922185264845
 20
177.4935317024473
 10
106.1530549571446
 20
177.5064316054608
 10
106.2124402827392
 20
177.5206767153329
 10
106.2703870210203
 20
177.5362646152508
 10
106.3269076897388
 20
177.5531928884014
 10
106.3820148066468
 20
177.5714591179716
 10
106.4357208894955
 20
177.5910608871482
 10
106.4880384560364
 20
177.6119957791178
 10
106.538980024021
 20
177.6342613770677
 10
106.5885581112009
 20
177.6578552641845
 10
106.6367852353275
 20
177.6827750236553
 10
106.6836739141522
 20
177.7090182386668
 10
106.7292366654267
 20
177.7365824924059
 10
106.7734860069025
 20
177.7654653680595
 10
106.8164344563311
 20
177.7956644488146
 10
106.8580945314638
 20
177.8271773178577
 10
106.8784453404667
 20
177.8434256677332
 10
106.8984787500524
 20
177.860001558376
 10
106.9375996298481
 20
177.8941347535564
 10
106.9754696886026
 20
177.9295744865858
 10
107.0121014440674
 20
177.9663183406509
 10
107.0475074139938
 20
178.0043638989385
 10
107.0817001161337
 20
178.0437087446356
 10
107.1146920682382
 20
178.0843504609293
 10
107.146495788059
 20
178.1262866310061
 10
107.1771237933476
 20
178.169514838053
 10
107.2065886018554
 20
178.2140326652569
 10
107.2349027313339
 20
178.2598376958049
 10
107.2620786995348
 20
178.3069275128834
 10
107.2881290242093
 20
178.3552996996797
 10
107.3130662231092
 20
178.4049518393805
 10
107.3369028139858
 20
178.4558815151727
 10
107.3596513145908
 20
178.508086310243
 10
107.3813242426755
 20
178.5615638077785
 10
107.4019341159915
 20
178.6163115909661
 10
107.4214934522902
 20
178.6723272429924
 10
107.4400147693232
 20
178.7296083470446
 10
107.457510584842
 20
178.7881524863095
 10
107.473993416598
 20
178.8479572439738
 10
107.4894757823429
 20
178.9090202032246
 10
107.5039701998281
 20
178.9713389472487
 10
107.5174891868051
 20
179.0349110592327
 10
107.5300452610253
 20
179.0997341223639
 10
107.5523187422017
 20
179.2331234348147
 10
107.5708907853693
 20
179.3714875500963
 10
107.58586153254
 20
179.5148071337031
 10
107.597331125726
 20
179.6630628511308
 10
107.6053997069391
 20
179.8162353678739
 10
107.6101674181916
 20
179.9743053494276
 10
107.6117344014953
 20
180.1372534612868
 10
107.6101674181916
 20
180.2783171003178
 10
107.6053997069391
 20
180.4169711175247
 10
107.597331125726
 20
180.5530798559643
 10
107.58586153254
 20
180.686507658694
 10
107.5708907853693
 20
180.8171188687709
 10
107.5523187422017
 20
180.9447778292518
 10
107.5300452610253
 20
181.0693488831943
 10
107.5174891868051
 20
181.1304340524188
 10
107.5039701998281
 20
181.190696373655
 10
107.4894757823429
 20
181.2501188897851
 10
107.473993416598
 20
181.3086846436913
 10
107.457510584842
 20
181.3663766782557
 10
107.4400147693232
 20
181.4231780363604
 10
107.4214934522902
 20
181.4790717608875
 10
107.4019341159915
 20
181.5340408947192
 10
107.3813242426755
 20
181.5880684807377
 10
107.3596513145908
 20
181.6411375618248
 10
107.3369028139858
 20
181.6932311808631
 10
107.3130662231092
 20
181.7443323807346
 10
107.2881290242093
 20
181.7944242043213
 10
107.2620786995348
 20
181.8434896945054
 10
107.2349027313339
 20
181.891511894169
 10
107.2065886018554
 20
181.9384738461944
 10
107.1771237933476
 20
181.9843585934634
 10
107.146495788059
 20
182.0291491788586
 10
107.1146920682382
 20
182.0728286452619
 10
107.0817001161337
 20
182.1153800355553
 10
107.0475074139938
 20
182.1567863926211
 10
107.0121014440674
 20
182.1970307593416
 10
106.9754696886026
 20
182.2360961785986
 10
106.9375996298481
 20
182.2739656932745
 10
106.8984787500524
 20
182.3106223462512
 10
106.8580945314638
 20
182.3460491804111
 10
106.8164344563311
 20
182.3802292386362
 10
106.7734860069025
 20
182.4131455638086
 10
106.7292366654267
 20
182.4447811988106
 10
106.6836739141522
 20
182.4751191865242
 10
106.6367852353275
 20
182.5041425698315
 10
106.5885581112009
 20
182.5318343916148
 10
106.538980024021
 20
182.5581776947562
 10
106.4880384560364
 20
182.5831555221378
 10
106.4357208894955
 20
182.6067509166417
 10
106.3820148066468
 20
182.62894692115
 10
106.3269076897388
 20
182.6497265785448
 10
106.2703870210203
 20
182.6690729317085
 10
106.2124402827392
 20
182.686969023523
 10
106.1530549571446
 20
182.7033978968706
 10
106.0922185264845
 20
182.7183425946333
 10
106.0299184730077
 20
182.7317861596933
 10
105.9661422789627
 20
182.7437116349328
 10
105.9008774265976
 20
182.7541020632339
 10
105.8341113981614
 20
182.7629404874787
 10
105.7658316759025
 20
182.7702099505492
 10
105.6960257420692
 20
182.7758934953278
 10
105.62468107891
 20
182.7799741646965
 10
105.5517851686737
 20
182.7824350015375
 10
105.4773254936086
 20
182.7832590487329
 10
105.4085396119608
 20
182.7824985877726
 10
105.341089293575
 20
182.7802244724154
 10
105.2749664640086
 20
182.7764476039474
 10
105.2101630488191
 20
182.7711788836544
 10
105.1466709735639
 20
182.7644292128226
 10
105.0844821638007
 20
182.7562094927376
 10
105.0235885450863
 20
182.7465306246858
 10
104.963982042979
 20
182.7354035099528
 10
104.9056545830356
 20
182.7228390498246
 10
104.848598090814
 20
182.7088481455875
 10
104.7928044918714
 20
182.6934416985271
 10
104.7382657117653
 20
182.6766306099292
 10
104.6849736760532
 20
182.6584257810802
 10
104.6329203102928
 20
182.6388381132657
 10
104.582097540041
 20
182.6178785077719
 10
104.5324972908556
 20
182.5955578658846
 10
104.484111488294
 20
182.5718870888898
 10
104.4369320579139
 20
182.5468770780735
 10
104.3909509252724
 20
182.5205387347216
 10
104.3461600159269
 20
182.49288296012
 10
104.3025512554352
 20
182.4639206555548
 10
104.2601165693545
 20
182.4336627223119
 10
104.2188478832426
 20
182.4021200616771
 10
104.1787371226566
 20
182.3693035749366
 10
104.1397762131541
 20
182.3352241633761
 10
104.1019570802924
 20
182.2998927282817
 10
104.0652716496293
 20
182.2633201709394
 10
104.0297118467217
 20
182.2255173926352
 10
103.9952695971276
 20
182.1864952946549
 10
103.9619368264041
 20
182.1462647782845
 10
103.9297054601091
 20
182.1048367448099
 10
103.8985674237995
 20
182.062222095517
 10
103.8685146430331
 20
182.018431731692
 10
103.8395390433673
 20
181.9734765546206
 10
103.8116325503595
 20
181.9273674655889
 10
103.7847870895672
 20
181.8801153658829
 10
103.7589945865478
 20
181.8317311567885
 10
103.7342469668589
 20
181.7822257395916
 10
103.7105361560579
 20
181.7316100155782
 10
103.687854079702
 20
181.679894886034
 10
103.666192663349
 20
181.6270912522454
 10
103.6455438325563
 20
181.573210015498
 10
103.6258995128812
 20
181.518262077078
 10
103.6072516298811
 20
181.4622583382712
 10
103.5895921091138
 20
181.4052097003636
 10
103.5729128761366
 20
181.3471270646413
 10
103.5572058565067
 20
181.28802133239
 10
103.542462975782
 20
181.2279034048958
 10
103.5286761595196
 20
181.1667841834445
 10
103.515837333277
 20
181.1046745693222
 10
103.4929713530814
 20
180.9775277682085
 10
103.473800439655
 20
180.8465502118421
 10
103.4582599974569
 20
180.7118291105106
 10
103.4462854309475
 20
180.5734516745017
 10
103.4378121445857
 20
180.4315051141031
 10
103.4327755428316
 20
180.2860766396021
 10
103.4311110301447
 20
180.1372534612868
 10
103.4330258505504
 20
179.9743053494276
 10
103.4387810776909
 20
179.8162353678739
 10
103.4483928604513
 20
179.6630628511308
 10
103.4618773477165
 20
179.5148071337031
 10
103.4792506883718
 20
179.3714875500963
 10
103.5005290313022
 20
179.2331234348147
 10
103.5126376251471
 20
179.1658057198289
 10
103.525728525393
 20
179.0997341223639
 10
103.53980375065
 20
179.0349110592327
 10
103.554865319529
 20
178.9713389472487
 10
103.5709152506404
 20
178.9090202032246
 10
103.5879555625952
 20
178.8479572439738
 10
103.6059882740039
 20
178.7881524863095
 10
103.6250154034771
 20
178.7296083470446
 10
103.6450389696254
 20
178.6723272429924
 10
103.6660609910595
 20
178.6163115909661
 10
103.6880834863899
 20
178.5615638077785
 10
103.7111084742276
 20
178.508086310243
 10
103.7351379731829
 20
178.4558815151727
 10
103.7601740018663
 20
178.4049518393805
 10
103.7862185788888
 20
178.3552996996797
 10
103.8132737228609
 20
178.3069275128834
 10
103.8413414523932
 20
178.2598376958049
 10
103.8704237860964
 20
178.2140326652569
 10
103.9005227425811
 20
178.169514838053
 10
103.9316403404579
 20
178.1262866310061
 10
103.9637785983375
 20
178.0843504609293
 10
103.9969395348305
 20
178.0437087446356
 10
104.0311251685475
 20
178.0043638989385
 10
104.0663375180993
 20
177.9663183406509
 10
104.1025786020964
 20
177.9295744865858
 10
104.1398504391493
 20
177.8941347535564
 10
104.1781550478688
 20
177.860001558376
 10
104.2174944468657
 20
177.8271773178577
 10
104.2578706547504
 20
177.7956644488146
 10
104.2992856901335
 20
177.7654653680595
 10
104.3417415716258
 20
177.7365824924059
 10
104.3852403178378
 20
177.7090182386668
 10
104.4297839473802
 20
177.6827750236553
 10
104.4753744788636
 20
177.6578552641845
 10
104.5220139308988
 20
177.6342613770677
 10
104.5697043220962
 20
177.6119957791178
 10
104.6184476710666
 20
177.5910608871482
 10
104.6682459964206
 20
177.5714591179716
 10
104.7191013167687
 20
177.5531928884014
 10
104.7710156507219
 20
177.5362646152508
 10
104.8239910168904
 20
177.5206767153329
 10
104.8780294338851
 20
177.5064316054608
 10
104.9331329203167
 20
177.4935317024473
 10
104.9893034947954
 20
177.4819794231061
 10
105.0465431759322
 20
177.4717771842498
 10
105.1048539823378
 20
177.4629274026918
 10
105.1642379326227
 20
177.4554324952451
 10
105.2246970453974
 20
177.449294878723
 10
105.2862333392727
 20
177.4445169699385
 10
105.3488488328594
 20
177.4411011857048
 10
105.4125455447678
 20
177.4390499428349
 10
105.4773254936086
 20
177.4383656581421
  0
LWPOLYLINE
  5
67
100
AcDbEntity
  8
Incisione
  6
ByLayer
 62
  256
370
   70
100
AcDbPolyline
 90
  257
 70
    0
 43
0
 10
105.5126377223324
 20
184.547147937181
 10
105.644057248635
 20
184.5458975169705
 10
105.7737098874137
 20
184.5421572903596
 10
105.9015859517028
 20
184.5359438083782
 10
106.0276757545367
 20
184.5272736220566
 10
106.1519696089503
 20
184.5161632824248
 10
106.2744578279778
 20
184.5026293405132
 10
106.3951307246538
 20
184.4866883473518
 10
106.5139786120128
 20
184.4683568539708
 10
106.6309918030894
 20
184.4476514114006
 10
106.746160610918
 20
184.4245885706709
 10
106.8594753485329
 20
184.3991848828123
 10
106.9709263289691
 20
184.3714568988548
 10
107.0805038652609
 20
184.3414211698288
 10
107.1881982704425
 20
184.3090942467639
 10
107.2939998575488
 20
184.274492680691
 10
107.3978989396142
 20
184.2376330226398
 10
107.4998858296731
 20
184.1985318236406
 10
107.5999508407601
 20
184.1572056347237
 10
107.6980842859098
 20
184.113671006919
 10
107.7942764781563
 20
184.067944491257
 10
107.8885177305347
 20
184.0200426387677
 10
107.980798356079
 20
183.9699820004812
 10
108.071108667824
 20
183.9177791274278
 10
108.1594389788041
 20
183.8634505706376
 10
108.245779602054
 20
183.8070128811408
 10
108.3301208506077
 20
183.7484826099675
 10
108.4124530375002
 20
183.687876308148
 10
108.492766475766
 20
183.6252105267125
 10
108.5710514784394
 20
183.5605018166912
 10
108.6472983585547
 20
183.493766729114
 10
108.7214974291469
 20
183.4250218150113
 10
108.7936390032503
 20
183.3542836254132
 10
108.8637133938994
 20
183.2815687113501
 10
108.9317109141285
 20
183.2068936238518
 10
108.9976218769725
 20
183.1302749139487
 10
109.0614365954657
 20
183.0517291326709
 10
109.1231453826425
 20
182.9712728310484
 10
109.1827385515376
 20
182.8889225601118
 10
109.2402064151854
 20
182.8046948708912
 10
109.2955392866204
 20
182.7186063144165
 10
109.3487274788772
 20
182.630673441718
 10
109.3997613049902
 20
182.540912803826
 10
109.4486310779939
 20
182.4493409517704
 10
109.495327110923
 20
182.3559744365815
 10
109.5398397168118
 20
182.2608298092895
 10
109.5821592086949
 20
182.1639236209247
 10
109.6222758996068
 20
182.0652724225173
 10
109.660180102582
 20
181.964892765097
 10
109.6958621306551
 20
181.8628011996944
 10
109.7293122968603
 20
181.7590142773396
 10
109.7605209142324
 20
181.6535485490629
 10
109.7894782958058
 20
181.5464205658941
 10
109.816174754615
 20
181.4376468788636
 10
109.8406006036945
 20
181.3272440390016
 10
109.8627461560789
 20
181.2152285973383
 10
109.8826017248027
 20
181.1016171049039
 10
109.9001576229003
 20
180.9864261127285
 10
109.9154041634063
 20
180.8696721718421
 10
109.9283316593552
 20
180.7513718332751
 10
109.9389304237814
 20
180.6315416480578
 10
109.9471907697194
 20
180.51019816722
 10
109.9531030102039
 20
180.3873579417922
 10
109.9566574582693
 20
180.2630375228044
 10
109.9578444269501
 20
180.1372534612868
 10
109.9566447335313
 20
180.0210389257546
 10
109.9530531915243
 20
179.9056075559527
 10
109.9470811083024
 20
179.7909928560865
 10
109.9387397912394
 20
179.6772283303616
 10
109.928040547709
 20
179.5643474829833
 10
109.9149946850847
 20
179.4523838181572
 10
109.8996135107402
 20
179.3413708400886
 10
109.8819083320493
 20
179.231342052983
 10
109.8618904563855
 20
179.1223309610457
 10
109.8395711911223
 20
179.0143710684823
 10
109.8149618436335
 20
178.9074958794982
 10
109.7880737212927
 20
178.8017388982987
 10
109.7589181314736
 20
178.6971336290893
 10
109.7275063815497
 20
178.5937135760756
 10
109.6938497788949
 20
178.491512243463
 10
109.6579596308825
 20
178.3905631354568
 10
109.6198472448864
 20
178.2908997562623
 10
109.5795239282802
 20
178.1925556100854
 10
109.5370009884375
 20
178.0955642011312
 10
109.4922897327319
 20
177.999959033605
 10
109.4454014685371
 20
177.9057736117126
 10
109.3963475032266
 20
177.8130414396593
 10
109.3451391441743
 20
177.7217960216506
 10
109.2917876987536
 20
177.6320708618919
 10
109.2363044743383
 20
177.5438994645885
 10
109.1787007783021
 20
177.457315333946
 10
109.1189879180184
 20
177.3723519741696
 10
109.0571772008609
 20
177.2890428894649
 10
108.9932799342033
 20
177.2074215840372
 10
108.9273074254193
 20
177.1275215620923
 10
108.8592709818824
 20
177.0493763278354
 10
108.7891819109664
 20
176.973019385472
 10
108.7170515200448
 20
176.8984842392075
 10
108.6428911164913
 20
176.8258043932473
 10
108.5667120076796
 20
176.7550133517968
 10
108.4885255009833
 20
176.6861446190616
 10
108.408342903776
 20
176.6192316992468
 10
108.3261755234313
 20
176.5543080965583
 10
108.2420346673229
 20
176.4914073152013
 10
108.1559316428244
 20
176.4305628593812
 10
108.0678777573096
 20
176.3718082333035
 10
107.9778843181518
 20
176.3151769411736
 10
107.8859626327251
 20
176.2607024871969
 10
107.7921240084029
 20
176.2084183755791
 10
107.6963797525586
 20
176.1583581105252
 10
107.5987411725663
 20
176.1105551962411
 10
107.4992195757993
 20
176.0650431369319
 10
107.3978262696314
 20
176.021855436803
 10
107.2945725614363
 20
175.98102560006
 10
107.1894697585874
 20
175.9425871309085
 10
107.0825291684584
 20
175.9065735335537
 10
106.9737620984232
 20
175.8730183122011
 10
106.8631798558552
 20
175.8419549710562
 10
106.7507937481281
 20
175.8134170143243
 10
106.6366150826154
 20
175.7874379462108
 10
106.5206551666911
 20
175.7640512709213
 10
106.4029253077285
 20
175.7432904926611
 10
106.2834368131014
 20
175.725189115636
 10
106.1622009901835
 20
175.709780644051
 10
106.0392291463481
 20
175.6970985821116
 10
105.9145325889692
 20
175.6871764340234
 10
105.7881226254203
 20
175.6800477039918
 10
105.6600105630752
 20
175.6757458962221
 10
105.5302077093071
 20
175.67430451492
 10
105.4035872622309
 20
175.6754915512821
 10
105.278405682393
 20
175.6790464731164
 10
105.154680735144
 20
175.6849599995452
 10
105.0324301858345
 20
175.6932228496909
 10
104.9116717998153
 20
175.7038257426753
 10
104.7924233424369
 20
175.7167593976206
 10
104.6747025790501
 20
175.7320145336492
 10
104.5585272750052
 20
175.7495818698834
 10
104.4439151956532
 20
175.7694521254451
 10
104.3308841063445
 20
175.7916160194567
 10
104.2194517724298
 20
175.8160642710403
 10
104.1096359592599
 20
175.8427875993181
 10
104.0014544321853
 20
175.8717767234122
 10
103.8949249565565
 20
175.9030223624451
 10
103.7900652977244
 20
175.9365152355386
 10
103.6868932210392
 20
175.9722460618153
 10
103.5854264918519
 20
176.0102055603971
 10
103.4856828755132
 20
176.0503844504063
 10
103.3876801373736
 20
176.0927734509652
 10
103.2914360427837
 20
176.1373632811957
 10
103.1969683570942
 20
176.1841446602201
 10
103.1042948456558
 20
176.2331083071607
 10
103.0134332738189
 20
176.2842449411398
 10
102.9244014069343
 20
176.3375452812793
 10
102.8372170103527
 20
176.3930000467014
 10
102.7518978494246
 20
176.4505999565287
 10
102.6684616895008
 20
176.5103357298832
 10
102.5869262959316
 20
176.5721980858867
 10
102.507309434068
 20
176.636177743662
 10
102.4296288692603
 20
176.7022654223308
 10
102.3539023668596
 20
176.7704518410155
 10
102.2801476922161
 20
176.8407277188384
 10
102.2083826106807
 20
176.9130837749215
 10
102.1386248876039
 20
176.9875107283871
 10
102.0708922883362
 20
177.0639992983573
 10
102.0052025782286
 20
177.1425402039544
 10
101.9415735226315
 20
177.2231241643007
 10
101.8800228868955
 20
177.305741898518
 10
101.8205684363713
 20
177.3903841257289
 10
101.7632279364097
 20
177.4770415650555
 10
101.7080191523612
 20
177.5657049356199
 10
101.6549598495762
 20
177.6563649565443
 10
101.6040677934056
 20
177.7490123469508
 10
101.5553607492002
 20
177.8436378259619
 10
101.5088564823103
 20
177.9402321126995
 10
101.4645727580867
 20
178.0387859262859
 10
101.4225273418797
 20
178.1392899858433
 10
101.3827379990405
 20
178.2417350104939
 10
101.3452224949193
 20
178.3461117193599
 10
101.309998594867
 20
178.4524108315635
 10
101.2770840642343
 20
178.5606230662268
 10
101.2464966683715
 20
178.670739142472
 10
101.2182541726294
 20
178.7827497794215
 10
101.1923743423586
 20
178.8966456961972
 10
101.1688749429098
 20
179.0124176119216
 10
101.1477737396337
 20
179.1300562457167
 10
101.1290884978808
 20
179.2495523167046
 10
101.1128369830019
 20
179.3708965440077
 10
101.0990369603473
 20
179.4940796467482
 10
101.0877061952679
 20
179.6190923440482
 10
101.0788624531143
 20
179.74592535503
 10
101.0725234992373
 20
179.8745693988154
 10
101.0687070989871
 20
180.0050151945269
 10
101.0674310177147
 20
180.1372534612868
 10
101.0687324912953
 20
180.2566295951309
 10
101.0726231839077
 20
180.3749457100073
 10
101.079082503358
 20
180.4921755679204
 10
101.0880898574519
 20
180.6082929308748
 10
101.0996246539955
 20
180.7232715608745
 10
101.1136663007949
 20
180.837085219924
 10
101.1301942056557
 20
180.9497076700276
 10
101.1491877763841
 20
181.0611126731895
 10
101.1706264207861
 20
181.1712739914143
 10
101.1944895466675
 20
181.280165386706
 10
101.2207565618344
 20
181.3877606210693
 10
101.2494068740925
 20
181.4940334565083
 10
101.280419891248
 20
181.5989576550273
 10
101.3137750211068
 20
181.7025069786308
 10
101.349451671475
 20
181.8046551893231
 10
101.3874292501582
 20
181.9053760491084
 10
101.4276871649627
 20
182.0046433199913
 10
101.4702048236942
 20
182.1024307639757
 10
101.5149616341587
 20
182.1987121430662
 10
101.5619370041624
 20
182.2934612192672
 10
101.611110341511
 20
182.3866517545829
 10
101.6624610540105
 20
182.4782575110177
 10
101.7159685494668
 20
182.5682522505759
 10
101.7716122356859
 20
182.6566097352619
 10
101.8293715204738
 20
182.7433037270798
 10
101.8892258116366
 20
182.8283079880342
 10
101.9511545169798
 20
182.9115962801294
 10
102.01513704431
 20
182.9931423653696
 10
102.0811528014326
 20
183.0729200057592
 10
102.1491811961538
 20
183.1509029633025
 10
102.2192016362795
 20
183.227065000004
 10
102.2911935296157
 20
183.3013798778678
 10
102.3651362839685
 20
183.3738213588985
 10
102.4410093071433
 20
183.4443632051001
 10
102.5187920069466
 20
183.5129791784772
 10
102.5984637911843
 20
183.5796430410338
 10
102.6800040676621
 20
183.6443285547746
 10
102.7633922441861
 20
183.7070094817037
 10
102.8486077285622
 20
183.7676595838255
 10
102.9356299285965
 20
183.8262526231446
 10
103.0244382520948
 20
183.882762361665
 10
103.1150121068632
 20
183.937162561391
 10
103.2073309007076
 20
183.9894269843271
 10
103.3013740414337
 20
184.0395293924777
 10
103.3971209368478
 20
184.0874435478469
 10
103.4945509947559
 20
184.1331432124392
 10
103.5936436229637
 20
184.1766021482589
 10
103.6943782292772
 20
184.2177941173103
 10
103.7967342215023
 20
184.2566928815978
 10
103.9006910074452
 20
184.2932722031255
 10
104.0062279949116
 20
184.3275058438979
 10
104.1133245917076
 20
184.3593675659196
 10
104.2219602056391
 20
184.3888311311946
 10
104.332114244512
 20
184.4158703017272
 10
104.4437661161326
 20
184.440458839522
 10
104.5568952283062
 20
184.462570506583
 10
104.6714809888392
 20
184.4821790649147
 10
104.7875028055377
 20
184.4992582765216
 10
104.9049400862074
 20
184.5137819034077
 10
105.0237722386541
 20
184.5257237075776
 10
105.1439786706842
 20
184.5350574510356
 10
105.2655387901032
 20
184.541756895786
 10
105.3884320047173
 20
184.5457958038329
 10
105.5126377223324
 20
184.547147937181
  0
LWPOLYLINE
  5
68
100
AcDbEntity
  8
Incisione
  6
ByLayer
 62
  256
370
   70
100
AcDbPolyline
 90
    2
 70
    0
 43
0
 10
86.53360669409096
 20
187.3166601977733
 10
88.73864005942517
 20
187.3166601977733
  0
LWPOLYLINE
  5
69
100
AcDbEntity
  8
Incisione
  6
ByLayer
 62
  256
370
   70
100
AcDbPolyline
 90
    2
 70
    0
 43
0
 10
88.73864005942517
 20
187.3166601977733
 10
88.73864005942517
 20
179.9255523437183
  0
LWPOLYLINE
  5
6A
100
AcDbEntity
  8
Incisione
  6
ByLayer
 62
  256
370
   70
100
AcDbPolyline
 90
    2
 70
    0
 43
0
 10
88.73864005942517
 20
179.9255523437183
 10
88.73721134569325
 20
179.7822555989296
  0
LWPOLYLINE
  5
6B
100
AcDbEntity
  8
Incisione
  6
ByLayer
 62
  256
370
   70
100
AcDbPolyline
 90
    2
 70
    0
 43
0
 10
88.73721134569325
 20
179.7822555989296
 10
88.73294673634427
 20
179.6417579613677
  0
LWPOLYLINE
  5
6C
100
AcDbEntity
  8
Incisione
  6
ByLayer
 62
  256
370
   70
100
AcDbPolyline
 90
    2
 70
    0
 43
0
 10
88.73294673634427
 20
179.6417579613677
 10
88.7258785291483
 20
179.5040420717697
  0
LWPOLYLINE
  5
6D
100
AcDbEntity
  8
Incisione
  6
ByLayer
 62
  256
370
   70
100
AcDbPolyline
 90
    2
 70
    0
 43
0
 10
88.7258785291483
 20
179.5040420717697
 10
88.71603902187553
 20
179.3690905708725
  0
LWPOLYLINE
  5
6E
100
AcDbEntity
  8
Incisione
  6
ByLayer
 62
  256
370
   70
100
AcDbPolyline
 90
    2
 70
    0
 43
0
 10
88.71603902187553
 20
179.3690905708725
 10
88.70346051229626
 20
179.236886099413
  0
LWPOLYLINE
  5
6F
100
AcDbEntity
  8
Incisione
  6
ByLayer
 62
  256
370
   70
100
AcDbPolyline
 90
    2
 70
    0
 43
0
 10
88.70346051229626
 20
179.236886099413
 10
88.68817529818057
 20
179.1074112981288
  0
LWPOLYLINE
  5
70
100
AcDbEntity
  8
Incisione
  6
ByLayer
 62
  256
370
   70
100
AcDbPolyline
 90
    2
 70
    0
 43
0
 10
88.68817529818057
 20
179.1074112981288
 10
88.67021567729876
 20
178.9806488077566
  0
LWPOLYLINE
  5
71
100
AcDbEntity
  8
Incisione
  6
ByLayer
 62
  256
370
   70
100
AcDbPolyline
 90
    2
 70
    0
 43
0
 10
88.67021567729876
 20
178.9806488077566
 10
88.64961394742068
 20
178.8565812690334
  0
LWPOLYLINE
  5
72
100
AcDbEntity
  8
Incisione
  6
ByLayer
 62
  256
370
   70
100
AcDbPolyline
 90
    2
 70
    0
 43
0
 10
88.64961394742068
 20
178.8565812690334
 10
88.62640240631686
 20
178.7351913226963
  0
LWPOLYLINE
  5
73
100
AcDbEntity
  8
Incisione
  6
ByLayer
 62
  256
370
   70
100
AcDbPolyline
 90
    2
 70
    0
 43
0
 10
88.62640240631686
 20
178.7351913226963
 10
88.60061335175737
 20
178.6164616094826
  0
LWPOLYLINE
  5
74
100
AcDbEntity
  8
Incisione
  6
ByLayer
 62
  256
370
   70
100
AcDbPolyline
 90
    2
 70
    0
 43
0
 10
88.60061335175737
 20
178.6164616094826
 10
88.57227908151231
 20
178.5003747701289
  0
LWPOLYLINE
  5
75
100
AcDbEntity
  8
Incisione
  6
ByLayer
 62
  256
370
   70
100
AcDbPolyline
 90
    2
 70
    0
 43
0
 10
88.57227908151231
 20
178.5003747701289
 10
88.54143189335196
 20
178.3869134453727
  0
LWPOLYLINE
  5
76
100
AcDbEntity
  8
Incisione
  6
ByLayer
 62
  256
370
   70
100
AcDbPolyline
 90
    2
 70
    0
 43
0
 10
88.54143189335196
 20
178.3869134453727
 10
88.5081040850464
 20
178.2760602759507
  0
LWPOLYLINE
  5
77
100
AcDbEntity
  8
Incisione
  6
ByLayer
 62
  256
370
   70
100
AcDbPolyline
 90
    2
 70
    0
 43
0
 10
88.5081040850464
 20
178.2760602759507
 10
88.47232795436594
 20
178.1677979026
  0
LWPOLYLINE
  5
78
100
AcDbEntity
  8
Incisione
  6
ByLayer
 62
  256
370
   70
100
AcDbPolyline
 90
    2
 70
    0
 43
0
 10
88.47232795436594
 20
178.1677979026
 10
88.43413579908054
 20
178.062108966058
  0
LWPOLYLINE
  5
79
100
AcDbEntity
  8
Incisione
  6
ByLayer
 62
  256
370
   70
100
AcDbPolyline
 90
    2
 70
    0
 43
0
 10
88.43413579908054
 20
178.062108966058
 10
88.39355991696038
 20
177.9589761070612
  0
LWPOLYLINE
  5
7A
100
AcDbEntity
  8
Incisione
  6
ByLayer
 62
  256
370
   70
100
AcDbPolyline
 90
    2
 70
    0
 43
0
 10
88.39355991696038
 20
177.9589761070612
 10
88.35063260577579
 20
177.858381966347
  0
LWPOLYLINE
  5
7B
100
AcDbEntity
  8
Incisione
  6
ByLayer
 62
  256
370
   70
100
AcDbPolyline
 90
    2
 70
    0
 43
0
 10
88.35063260577579
 20
177.858381966347
 10
88.30538616329693
 20
177.7603091846526
  0
LWPOLYLINE
  5
7C
100
AcDbEntity
  8
Incisione
  6
ByLayer
 62
  256
370
   70
100
AcDbPolyline
 90
    2
 70
    0
 43
0
 10
88.30538616329693
 20
177.7603091846526
 10
88.25785288729389
 20
177.6647404027145
  0
LWPOLYLINE
  5
7D
100
AcDbEntity
  8
Incisione
  6
ByLayer
 62
  256
370
   70
100
AcDbPolyline
 90
    2
 70
    0
 43
0
 10
88.25785288729389
 20
177.6647404027145
 10
88.20806507553709
 20
177.5716582612704
  0
LWPOLYLINE
  5
7E
100
AcDbEntity
  8
Incisione
  6
ByLayer
 62
  256
370
   70
100
AcDbPolyline
 90
    2
 70
    0
 43
0
 10
88.20806507553709
 20
177.5716582612704
 10
88.15605502579638
 20
177.481045401057
  0
LWPOLYLINE
  5
7F
100
AcDbEntity
  8
Incisione
  6
ByLayer
 62
  256
370
   70
100
AcDbPolyline
 90
    2
 70
    0
 43
0
 10
88.15605502579638
 20
177.481045401057
 10
88.10185503584205
 20
177.3928844628114
  0
LWPOLYLINE
  5
80
100
AcDbEntity
  8
Incisione
  6
ByLayer
 62
  256
370
   70
100
AcDbPolyline
 90
    2
 70
    0
 43
0
 10
88.10185503584205
 20
177.3928844628114
 10
88.04549740344419
 20
177.3071580872705
  0
LWPOLYLINE
  5
81
100
AcDbEntity
  8
Incisione
  6
ByLayer
 62
  256
370
   70
100
AcDbPolyline
 90
    2
 70
    0
 43
0
 10
88.04549740344419
 20
177.3071580872705
 10
87.98701442637321
 20
177.2238489151715
  0
LWPOLYLINE
  5
82
100
AcDbEntity
  8
Incisione
  6
ByLayer
 62
  256
370
   70
100
AcDbPolyline
 90
    2
 70
    0
 43
0
 10
87.98701442637321
 20
177.2238489151715
 10
87.92643840239907
 20
177.1429395872516
  0
LWPOLYLINE
  5
83
100
AcDbEntity
  8
Incisione
  6
ByLayer
 62
  256
370
   70
100
AcDbPolyline
 90
    2
 70
    0
 43
0
 10
87.92643840239907
 20
177.1429395872516
 10
87.86380162929208
 20
177.0644127442475
  0
LWPOLYLINE
  5
84
100
AcDbEntity
  8
Incisione
  6
ByLayer
 62
  256
370
   70
100
AcDbPolyline
 90
    2
 70
    0
 43
0
 10
87.86380162929208
 20
177.0644127442475
 10
87.79913640482243
 20
176.9882510268967
  0
LWPOLYLINE
  5
85
100
AcDbEntity
  8
Incisione
  6
ByLayer
 62
  256
370
   70
100
AcDbPolyline
 90
    2
 70
    0
 43
0
 10
87.79913640482243
 20
176.9882510268967
 10
87.73247502676008
 20
176.9144370759359
  0
LWPOLYLINE
  5
86
100
AcDbEntity
  8
Incisione
  6
ByLayer
 62
  256
370
   70
100
AcDbPolyline
 90
    2
 70
    0
 43
0
 10
87.73247502676008
 20
176.9144370759359
 10
87.66384979287545
 20
176.8429535321023
  0
LWPOLYLINE
  5
87
100
AcDbEntity
  8
Incisione
  6
ByLayer
 62
  256
370
   70
100
AcDbPolyline
 90
    2
 70
    0
 43
0
 10
87.66384979287545
 20
176.8429535321023
 10
87.5932930009385
 20
176.7737830361328
  0
LWPOLYLINE
  5
88
100
AcDbEntity
  8
Incisione
  6
ByLayer
 62
  256
370
   70
100
AcDbPolyline
 90
    2
 70
    0
 43
0
 10
87.5932930009385
 20
176.7737830361328
 10
87.52083694871942
 20
176.7069082287647
  0
LWPOLYLINE
  5
89
100
AcDbEntity
  8
Incisione
  6
ByLayer
 62
  256
370
   70
100
AcDbPolyline
 90
    2
 70
    0
 43
0
 10
87.52083694871942
 20
176.7069082287647
 10
87.44651393398863
 20
176.6423117507348
  0
LWPOLYLINE
  5
8A
100
AcDbEntity
  8
Incisione
  6
ByLayer
 62
  256
370
   70
100
AcDbPolyline
 90
    2
 70
    0
 43
0
 10
87.44651393398863
 20
176.6423117507348
 10
87.37035625451608
 20
176.5799762427803
  0
LWPOLYLINE
  5
8B
100
AcDbEntity
  8
Incisione
  6
ByLayer
 62
  256
370
   70
100
AcDbPolyline
 90
    2
 70
    0
 43
0
 10
87.37035625451608
 20
176.5799762427803
 10
87.29239620807198
 20
176.5198843456382
  0
LWPOLYLINE
  5
8C
100
AcDbEntity
  8
Incisione
  6
ByLayer
 62
  256
370
   70
100
AcDbPolyline
 90
    2
 70
    0
 43
0
 10
87.29239620807198
 20
176.5198843456382
 10
87.21266609242662
 20
176.4620187000456
  0
LWPOLYLINE
  5
8D
100
AcDbEntity
  8
Incisione
  6
ByLayer
 62
  256
370
   70
100
AcDbPolyline
 90
    2
 70
    0
 43
0
 10
87.21266609242662
 20
176.4620187000456
 10
87.13119820535007
 20
176.4063619467394
  0
LWPOLYLINE
  5
8E
100
AcDbEntity
  8
Incisione
  6
ByLayer
 62
  256
370
   70
100
AcDbPolyline
 90
    2
 70
    0
 43
0
 10
87.13119820535007
 20
176.4063619467394
 10
87.04802484461254
 20
176.3528967264568
  0
LWPOLYLINE
  5
8F
100
AcDbEntity
  8
Incisione
  6
ByLayer
 62
  256
370
   70
100
AcDbPolyline
 90
    2
 70
    0
 43
0
 10
87.04802484461254
 20
176.3528967264568
 10
86.96317830798421
 20
176.3016056799349
  0
LWPOLYLINE
  5
90
100
AcDbEntity
  8
Incisione
  6
ByLayer
 62
  256
370
   70
100
AcDbPolyline
 90
    2
 70
    0
 43
0
 10
86.96317830798421
 20
176.3016056799349
 10
86.87669089323526
 20
176.2524714479106
  0
LWPOLYLINE
  5
91
100
AcDbEntity
  8
Incisione
  6
ByLayer
 62
  256
370
   70
100
AcDbPolyline
 90
    2
 70
    0
 43
0
 10
86.87669089323526
 20
176.2524714479106
 10
86.78859489813567
 20
176.205476671121
  0
LWPOLYLINE
  5
92
100
AcDbEntity
  8
Incisione
  6
ByLayer
 62
  256
370
   70
100
AcDbPolyline
 90
    2
 70
    0
 43
0
 10
86.78859489813567
 20
176.205476671121
 10
86.69892262045573
 20
176.1606039903032
  0
LWPOLYLINE
  5
93
100
AcDbEntity
  8
Incisione
  6
ByLayer
 62
  256
370
   70
100
AcDbPolyline
 90
    2
 70
    0
 43
0
 10
86.69892262045573
 20
176.1606039903032
 10
86.60770635796575
 20
176.1178360461942
  0
LWPOLYLINE
  5
94
100
AcDbEntity
  8
Incisione
  6
ByLayer
 62
  256
370
   70
100
AcDbPolyline
 90
    2
 70
    0
 43
0
 10
86.60770635796575
 20
176.1178360461942
 10
86.51497840843581
 20
176.077155479531
  0
LWPOLYLINE
  5
95
100
AcDbEntity
  8
Incisione
  6
ByLayer
 62
  256
370
   70
100
AcDbPolyline
 90
    2
 70
    0
 43
0
 10
86.51497840843581
 20
176.077155479531
 10
86.42077106963632
 20
176.038544931051
  0
LWPOLYLINE
  5
96
100
AcDbEntity
  8
Incisione
  6
ByLayer
 62
  256
370
   70
100
AcDbPolyline
 90
    2
 70
    0
 43
0
 10
86.42077106963632
 20
176.038544931051
 10
86.32511663933712
 20
176.0019870414909
  0
LWPOLYLINE
  5
97
100
AcDbEntity
  8
Incisione
  6
ByLayer
 62
  256
370
   70
100
AcDbPolyline
 90
    2
 70
    0
 43
0
 10
86.32511663933712
 20
176.0019870414909
 10
86.22804741530842
 20
175.9674644515877
  0
LWPOLYLINE
  5
98
100
AcDbEntity
  8
Incisione
  6
ByLayer
 62
  256
370
   70
100
AcDbPolyline
 90
    2
 70
    0
 43
0
 10
86.22804741530842
 20
175.9674644515877
 10
86.1295956953204
 20
175.9349598020787
  0
LWPOLYLINE
  5
99
100
AcDbEntity
  8
Incisione
  6
ByLayer
 62
  256
370
   70
100
AcDbPolyline
 90
    2
 70
    0
 43
0
 10
86.1295956953204
 20
175.9349598020787
 10
86.02979377714337
 20
175.9044557337006
  0
LWPOLYLINE
  5
9A
100
AcDbEntity
  8
Incisione
  6
ByLayer
 62
  256
370
   70
100
AcDbPolyline
 90
    2
 70
    0
 43
0
 10
86.02979377714337
 20
175.9044557337006
 10
85.92867395854751
 20
175.8759348871907
  0
LWPOLYLINE
  5
9B
100
AcDbEntity
  8
Incisione
  6
ByLayer
 62
  256
370
   70
100
AcDbPolyline
 90
    2
 70
    0
 43
0
 10
85.92867395854751
 20
175.8759348871907
 10
85.82626853730278
 20
175.8493799032863
  0
LWPOLYLINE
  5
9C
100
AcDbEntity
  8
Incisione
  6
ByLayer
 62
  256
370
   70
100
AcDbPolyline
 90
    2
 70
    0
 43
0
 10
85.82626853730278
 20
175.8493799032863
 10
85.7226098111795
 20
175.824773422724
  0
LWPOLYLINE
  5
9D
100
AcDbEntity
  8
Incisione
  6
ByLayer
 62
  256
370
   70
100
AcDbPolyline
 90
    2
 70
    0
 43
0
 10
85.7226098111795
 20
175.824773422724
 10
85.61773007794795
 20
175.802098086241
  0
LWPOLYLINE
  5
9E
100
AcDbEntity
  8
Incisione
  6
ByLayer
 62
  256
370
   70
100
AcDbPolyline
 90
    2
 70
    0
 43
0
 10
85.61773007794795
 20
175.802098086241
 10
85.511661635378
 20
175.7813365345744
  0
LWPOLYLINE
  5
9F
100
AcDbEntity
  8
Incisione
  6
ByLayer
 62
  256
370
   70
100
AcDbPolyline
 90
    2
 70
    0
 43
0
 10
85.511661635378
 20
175.7813365345744
 10
85.40443678124029
 20
175.7624714084612
  0
LWPOLYLINE
  5
A0
100
AcDbEntity
  8
Incisione
  6
ByLayer
 62
  256
370
   70
100
AcDbPolyline
 90
    2
 70
    0
 43
0
 10
85.40443678124029
 20
175.7624714084612
 10
85.29608781330467
 20
175.7454853486385
  0
LWPOLYLINE
  5
A1
100
AcDbEntity
  8
Incisione
  6
ByLayer
 62
  256
370
   70
100
AcDbPolyline
 90
    2
 70
    0
 43
0
 10
85.29608781330467
 20
175.7454853486385
 10
85.1866470293412
 20
175.7303609958434
  0
LWPOLYLINE
  5
A2
100
AcDbEntity
  8
Incisione
  6
ByLayer
 62
  256
370
   70
100
AcDbPolyline
 90
    2
 70
    0
 43
0
 10
85.1866470293412
 20
175.7303609958434
 10
84.9646192044122
 20
175.7056279742841
  0
LWPOLYLINE
  5
A3
100
AcDbEntity
  8
Incisione
  6
ByLayer
 62
  256
370
   70
100
AcDbPolyline
 90
    2
 70
    0
 43
0
 10
84.9646192044122
 20
175.7056279742841
 10
84.73861168861436
 20
175.6881334696794
  0
LWPOLYLINE
  5
A4
100
AcDbEntity
  8
Incisione
  6
ByLayer
 62
  256
370
   70
100
AcDbPolyline
 90
    2
 70
    0
 43
0
 10
84.73861168861436
 20
175.6881334696794
 10
84.50888286410918
 20
175.677738607926
  0
LWPOLYLINE
  5
A5
100
AcDbEntity
  8
Incisione
  6
ByLayer
 62
  256
370
   70
100
AcDbPolyline
 90
    2
 70
    0
 43
0
 10
84.50888286410918
 20
175.677738607926
 10
84.27569111305831
 20
175.67430451492
  0
LWPOLYLINE
  5
A6
100
AcDbEntity
  8
Incisione
  6
ByLayer
 62
  256
370
   70
100
AcDbPolyline
 90
    2
 70
    0
 43
0
 10
84.27569111305831
 20
175.67430451492
 10
84.04906735328234
 20
175.6772862446419
  0
LWPOLYLINE
  5
A7
100
AcDbEntity
  8
Incisione
  6
ByLayer
 62
  256
370
   70
100
AcDbPolyline
 90
    2
 70
    0
 43
0
 10
84.04906735328234
 20
175.6772862446419
 10
83.82579612728307
 20
175.6863757224138
  0
LWPOLYLINE
  5
A8
100
AcDbEntity
  8
Incisione
  6
ByLayer
 62
  256
370
   70
100
AcDbPolyline
 90
    2
 70
    0
 43
0
 10
83.82579612728307
 20
175.6863757224138
 10
83.60612938290046
 20
175.7017893811447
  0
LWPOLYLINE
  5
A9
100
AcDbEntity
  8
Incisione
  6
ByLayer
 62
  256
370
   70
100
AcDbPolyline
 90
    2
 70
    0
 43
0
 10
83.60612938290046
 20
175.7017893811447
 10
83.39031906797459
 20
175.7237436537439
  0
LWPOLYLINE
  5
AA
100
AcDbEntity
  8
Incisione
  6
ByLayer
 62
  256
370
   70
100
AcDbPolyline
 90
    2
 70
    0
 43
0
 10
83.39031906797459
 20
175.7237436537439
 10
83.1786171303454
 20
175.7524549731203
  0
LWPOLYLINE
  5
AB
100
AcDbEntity
  8
Incisione
  6
ByLayer
 62
  256
370
   70
100
AcDbPolyline
 90
    2
 70
    0
 43
0
 10
83.1786171303454
 20
175.7524549731203
 10
83.07438553671716
 20
175.7694121606343
  0
LWPOLYLINE
  5
AC
100
AcDbEntity
  8
Incisione
  6
ByLayer
 62
  256
370
   70
100
AcDbPolyline
 90
    2
 70
    0
 43
0
 10
83.07438553671716
 20
175.7694121606343
 10
82.97127551785297
 20
175.7881397721833
  0
LWPOLYLINE
  5
AD
100
AcDbEntity
  8
Incisione
  6
ByLayer
 62
  256
370
   70
100
AcDbPolyline
 90
    2
 70
    0
 43
0
 10
82.97127551785297
 20
175.7881397721833
 10
82.86931856723299
 20
175.8086648618813
  0
LWPOLYLINE
  5
AE
100
AcDbEntity
  8
Incisione
  6
ByLayer
 62
  256
370
   70
100
AcDbPolyline
 90
    2
 70
    0
 43
0
 10
82.86931856723299
 20
175.8086648618813
 10
82.76854617833715
 20
175.8310144838417
  0
LWPOLYLINE
  5
AF
100
AcDbEntity
  8
Incisione
  6
ByLayer
 62
  256
370
   70
100
AcDbPolyline
 90
    2
 70
    0
 43
0
 10
82.76854617833715
 20
175.8310144838417
 10
82.66898984464547
 20
175.8552156921784
  0
LWPOLYLINE
  5
B0
100
AcDbEntity
  8
Incisione
  6
ByLayer
 62
  256
370
   70
100
AcDbPolyline
 90
    2
 70
    0
 43
0
 10
82.66898984464547
 20
175.8552156921784
 10
82.57068105963799
 20
175.8812955410048
  0
LWPOLYLINE
  5
B1
100
AcDbEntity
  8
Incisione
  6
ByLayer
 62
  256
370
   70
100
AcDbPolyline
 90
    2
 70
    0
 43
0
 10
82.57068105963799
 20
175.8812955410048
 10
82.47365131679464
 20
175.9092810844346
  0
LWPOLYLINE
  5
B2
100
AcDbEntity
  8
Incisione
  6
ByLayer
 62
  256
370
   70
100
AcDbPolyline
 90
    2
 70
    0
 43
0
 10
82.47365131679464
 20
175.9092810844346
 10
82.37793210959546
 20
175.9391993765818
  0
LWPOLYLINE
  5
B3
100
AcDbEntity
  8
Incisione
  6
ByLayer
 62
  256
370
   70
100
AcDbPolyline
 90
    2
 70
    0
 43
0
 10
82.37793210959546
 20
175.9391993765818
 10
82.28355493152037
 20
175.9710774715594
  0
LWPOLYLINE
  5
B4
100
AcDbEntity
  8
Incisione
  6
ByLayer
 62
  256
370
   70
100
AcDbPolyline
 90
    2
 70
    0
 43
0
 10
82.28355493152037
 20
175.9710774715594
 10
82.19055127604952
 20
176.0049424234816
  0
LWPOLYLINE
  5
B5
100
AcDbEntity
  8
Incisione
  6
ByLayer
 62
  256
370
   70
100
AcDbPolyline
 90
    2
 70
    0
 43
0
 10
82.19055127604952
 20
176.0049424234816
 10
82.09895263666294
 20
176.0408212864614
  0
LWPOLYLINE
  5
B6
100
AcDbEntity
  8
Incisione
  6
ByLayer
 62
  256
370
   70
100
AcDbPolyline
 90
    2
 70
    0
 43
0
 10
82.09895263666294
 20
176.0408212864614
 10
82.00879050684034
 20
176.0787411146132
  0
LWPOLYLINE
  5
B7
100
AcDbEntity
  8
Incisione
  6
ByLayer
 62
  256
370
   70
100
AcDbPolyline
 90
    2
 70
    0
 43
0
 10
82.00879050684034
 20
176.0787411146132
 10
81.92009638006186
 20
176.1187289620501
  0
LWPOLYLINE
  5
B8
100
AcDbEntity
  8
Incisione
  6
ByLayer
 62
  256
370
   70
100
AcDbPolyline
 90
    2
 70
    0
 43
0
 10
81.92009638006186
 20
176.1187289620501
 10
81.83290174980777
 20
176.1608118828862
  0
LWPOLYLINE
  5
B9
100
AcDbEntity
  8
Incisione
  6
ByLayer
 62
  256
370
   70
100
AcDbPolyline
 90
    2
 70
    0
 43
0
 10
81.83290174980777
 20
176.1608118828862
 10
81.74723810955777
 20
176.2050169312346
  0
LWPOLYLINE
  5
BA
100
AcDbEntity
  8
Incisione
  6
ByLayer
 62
  256
370
   70
100
AcDbPolyline
 90
    2
 70
    0
 43
0
 10
81.74723810955777
 20
176.2050169312346
 10
81.66313695279189
 20
176.2513711612092
  0
LWPOLYLINE
  5
BB
100
AcDbEntity
  8
Incisione
  6
ByLayer
 62
  256
370
   70
100
AcDbPolyline
 90
    2
 70
    0
 43
0
 10
81.66313695279189
 20
176.2513711612092
 10
81.58062977299016
 20
176.2999016269235
  0
LWPOLYLINE
  5
BC
100
AcDbEntity
  8
Incisione
  6
ByLayer
 62
  256
370
   70
100
AcDbPolyline
 90
    2
 70
    0
 43
0
 10
81.58062977299016
 20
176.2999016269235
 10
81.49974806363252
 20
176.3506353824916
  0
LWPOLYLINE
  5
BD
100
AcDbEntity
  8
Incisione
  6
ByLayer
 62
  256
370
   70
100
AcDbPolyline
 90
    2
 70
    0
 43
0
 10
81.49974806363252
 20
176.3506353824916
 10
81.42052331819912
 20
176.4035994820267
  0
LWPOLYLINE
  5
BE
100
AcDbEntity
  8
Incisione
  6
ByLayer
 62
  256
370
   70
100
AcDbPolyline
 90
    2
 70
    0
 43
0
 10
81.42052331819912
 20
176.4035994820267
 10
81.34298703016987
 20
176.4588209796426
  0
LWPOLYLINE
  5
BF
100
AcDbEntity
  8
Incisione
  6
ByLayer
 62
  256
370
   70
100
AcDbPolyline
 90
    2
 70
    0
 43
0
 10
81.34298703016987
 20
176.4588209796426
 10
81.26717069302481
 20
176.5163269294528
  0
LWPOLYLINE
  5
C0
100
AcDbEntity
  8
Incisione
  6
ByLayer
 62
  256
370
   70
100
AcDbPolyline
 90
    2
 70
    0
 43
0
 10
81.26717069302481
 20
176.5163269294528
 10
81.19310580024376
 20
176.5761443855712
  0
LWPOLYLINE
  5
C1
100
AcDbEntity
  8
Incisione
  6
ByLayer
 62
  256
370
   70
100
AcDbPolyline
 90
    2
 70
    0
 43
0
 10
81.19310580024376
 20
176.5761443855712
 10
81.12082384530686
 20
176.6383004021111
  0
LWPOLYLINE
  5
C2
100
AcDbEntity
  8
Incisione
  6
ByLayer
 62
  256
370
   70
100
AcDbPolyline
 90
    2
 70
    0
 43
0
 10
81.12082384530686
 20
176.6383004021111
 10
81.05035632169415
 20
176.7028220331864
  0
LWPOLYLINE
  5
C3
100
AcDbEntity
  8
Incisione
  6
ByLayer
 62
  256
370
   70
100
AcDbPolyline
 90
    2
 70
    0
 43
0
 10
81.05035632169415
 20
176.7028220331864
 10
80.98173472288579
 20
176.7697363329106
  0
LWPOLYLINE
  5
C4
100
AcDbEntity
  8
Incisione
  6
ByLayer
 62
  256
370
   70
100
AcDbPolyline
 90
    2
 70
    0
 43
0
 10
80.98173472288579
 20
176.7697363329106
 10
80.91499054236135
 20
176.8390703553976
  0
LWPOLYLINE
  5
C5
100
AcDbEntity
  8
Incisione
  6
ByLayer
 62
  256
370
   70
100
AcDbPolyline
 90
    2
 70
    0
 43
0
 10
80.91499054236135
 20
176.8390703553976
 10
80.8501552736011
 20
176.9108511547606
  0
LWPOLYLINE
  5
C6
100
AcDbEntity
  8
Incisione
  6
ByLayer
 62
  256
370
   70
100
AcDbPolyline
 90
    2
 70
    0
 43
0
 10
80.8501552736011
 20
176.9108511547606
 10
80.78726041008508
 20
176.9851057851135
  0
LWPOLYLINE
  5
C7
100
AcDbEntity
  8
Incisione
  6
ByLayer
 62
  256
370
   70
100
AcDbPolyline
 90
    2
 70
    0
 43
0
 10
80.78726041008508
 20
176.9851057851135
 10
80.72633744529321
 20
177.0618613005699
  0
LWPOLYLINE
  5
C8
100
AcDbEntity
  8
Incisione
  6
ByLayer
 62
  256
370
   70
100
AcDbPolyline
 90
    2
 70
    0
 43
0
 10
80.72633744529321
 20
177.0618613005699
 10
80.6674178727053
 20
177.1411447552437
  0
LWPOLYLINE
  5
C9
100
AcDbEntity
  8
Incisione
  6
ByLayer
 62
  256
370
   70
100
AcDbPolyline
 90
    2
 70
    0
 43
0
 10
80.6674178727053
 20
177.1411447552437
 10
80.61053318580161
 20
177.2229832032481
  0
LWPOLYLINE
  5
CA
100
AcDbEntity
  8
Incisione
  6
ByLayer
 62
  256
370
   70
100
AcDbPolyline
 90
    2
 70
    0
 43
0
 10
80.61053318580161
 20
177.2229832032481
 10
80.55571487806196
 20
177.3074036986969
  0
LWPOLYLINE
  5
CB
100
AcDbEntity
  8
Incisione
  6
ByLayer
 62
  256
370
   70
100
AcDbPolyline
 90
    2
 70
    0
 43
0
 10
80.55571487806196
 20
177.3074036986969
 10
80.50299444296661
 20
177.3944332957038
  0
LWPOLYLINE
  5
CC
100
AcDbEntity
  8
Incisione
  6
ByLayer
 62
  256
370
   70
100
AcDbPolyline
 90
    2
 70
    0
 43
0
 10
80.50299444296661
 20
177.3944332957038
 10
80.45240337399537
 20
177.4840990483825
  0
LWPOLYLINE
  5
CD
100
AcDbEntity
  8
Incisione
  6
ByLayer
 62
  256
370
   70
100
AcDbPolyline
 90
    2
 70
    0
 43
0
 10
80.45240337399537
 20
177.4840990483825
 10
80.40397316462827
 20
177.5764280108465
  0
LWPOLYLINE
  5
CE
100
AcDbEntity
  8
Incisione
  6
ByLayer
 62
  256
370
   70
100
AcDbPolyline
 90
    2
 70
    0
 43
0
 10
80.40397316462827
 20
177.5764280108465
 10
80.35773530834535
 20
177.6714472372095
  0
LWPOLYLINE
  5
CF
100
AcDbEntity
  8
Incisione
  6
ByLayer
 62
  256
370
   70
100
AcDbPolyline
 90
    2
 70
    0
 43
0
 10
80.35773530834535
 20
177.6714472372095
 10
80.31372129862643
 20
177.7691837815851
  0
LWPOLYLINE
  5
D0
100
AcDbEntity
  8
Incisione
  6
ByLayer
 62
  256
370
   70
100
AcDbPolyline
 90
    2
 70
    0
 43
0
 10
80.31372129862643
 20
177.7691837815851
 10
80.27196262895166
 20
177.8696646980869
  0
LWPOLYLINE
  5
D1
100
AcDbEntity
  8
Incisione
  6
ByLayer
 62
  256
370
   70
100
AcDbPolyline
 90
    2
 70
    0
 43
0
 10
80.27196262895166
 20
177.8696646980869
 10
80.23249079280095
 20
177.9729170408287
  0
LWPOLYLINE
  5
D2
100
AcDbEntity
  8
Incisione
  6
ByLayer
 62
  256
370
   70
100
AcDbPolyline
 90
    2
 70
    0
 43
0
 10
80.23249079280095
 20
177.9729170408287
 10
80.19533728365445
 20
178.078967863924
  0
LWPOLYLINE
  5
D3
100
AcDbEntity
  8
Incisione
  6
ByLayer
 62
  256
370
   70
100
AcDbPolyline
 90
    2
 70
    0
 43
0
 10
80.19533728365445
 20
178.078967863924
 10
80.1605335949921
 20
178.1878442214867
  0
LWPOLYLINE
  5
D4
100
AcDbEntity
  8
Incisione
  6
ByLayer
 62
  256
370
   70
100
AcDbPolyline
 90
    2
 70
    0
 43
0
 10
80.1605335949921
 20
178.1878442214867
 10
80.12811122029404
 20
178.29957316763
  0
LWPOLYLINE
  5
D5
100
AcDbEntity
  8
Incisione
  6
ByLayer
 62
  256
370
   70
100
AcDbPolyline
 90
    2
 70
    0
 43
0
 10
80.12811122029404
 20
178.29957316763
 10
80.09810165303998
 20
178.4141817564678
  0
LWPOLYLINE
  5
D6
100
AcDbEntity
  8
Incisione
  6
ByLayer
 62
  256
370
   70
100
AcDbPolyline
 90
    2
 70
    0
 43
0
 10
80.09810165303998
 20
178.4141817564678
 10
80.07053638671005
 20
178.5316970421137
  0
LWPOLYLINE
  5
D7
100
AcDbEntity
  8
Incisione
  6
ByLayer
 62
  256
370
   70
100
AcDbPolyline
 90
    2
 70
    0
 43
0
 10
80.07053638671005
 20
178.5316970421137
 10
80.04544691478441
 20
178.6521460786814
  0
LWPOLYLINE
  5
D8
100
AcDbEntity
  8
Incisione
  6
ByLayer
 62
  256
370
   70
100
AcDbPolyline
 90
    2
 70
    0
 43
0
 10
80.04544691478441
 20
178.6521460786814
 10
80.02286473074264
 20
178.7755559202844
  0
LWPOLYLINE
  5
D9
100
AcDbEntity
  8
Incisione
  6
ByLayer
 62
  256
370
   70
100
AcDbPolyline
 90
    2
 70
    0
 43
0
 10
80.02286473074264
 20
178.7755559202844
 10
80.00282132806501
 20
178.9019536210366
  0
LWPOLYLINE
  5
DA
100
AcDbEntity
  8
Incisione
  6
ByLayer
 62
  256
370
   70
100
AcDbPolyline
 90
    2
 70
    0
 43
0
 10
80.00282132806501
 20
178.9019536210366
 10
79.98534820023167
 20
179.0313662350512
  0
LWPOLYLINE
  5
DB
100
AcDbEntity
  8
Incisione
  6
ByLayer
 62
  256
370
   70
100
AcDbPolyline
 90
    2
 70
    0
 43
0
 10
79.98534820023167
 20
179.0313662350512
 10
79.97047684072231
 20
179.1638208164424
  0
LWPOLYLINE
  5
DC
100
AcDbEntity
  8
Incisione
  6
ByLayer
 62
  256
370
   70
100
AcDbPolyline
 90
    2
 70
    0
 43
0
 10
79.97047684072231
 20
179.1638208164424
 10
79.95823874301709
 20
179.2993444193233
  0
LWPOLYLINE
  5
DD
100
AcDbEntity
  8
Incisione
  6
ByLayer
 62
  256
370
   70
100
AcDbPolyline
 90
    2
 70
    0
 43
0
 10
79.95823874301709
 20
179.2993444193233
 10
79.94866540059593
 20
179.437964097808
  0
LWPOLYLINE
  5
DE
100
AcDbEntity
  8
Incisione
  6
ByLayer
 62
  256
370
   70
100
AcDbPolyline
 90
    2
 70
    0
 43
0
 10
79.94866540059593
 20
179.437964097808
 10
79.94178830693909
 20
179.5797069060098
  0
LWPOLYLINE
  5
DF
100
AcDbEntity
  8
Incisione
  6
ByLayer
 62
  256
370
   70
100
AcDbPolyline
 90
    2
 70
    0
 43
0
 10
79.94178830693909
 20
179.5797069060098
 10
79.93763895552615
 20
179.7245998980426
  0
LWPOLYLINE
  5
E0
100
AcDbEntity
  8
Incisione
  6
ByLayer
 62
  256
370
   70
100
AcDbPolyline
 90
    2
 70
    0
 43
0
 10
79.93763895552615
 20
179.7245998980426
 10
79.9362488398375
 20
179.8726701280196
  0
LWPOLYLINE
  5
E1
100
AcDbEntity
  8
Incisione
  6
ByLayer
 62
  256
370
   70
100
AcDbPolyline
 90
    2
 70
    0
 43
0
 10
79.9362488398375
 20
179.8726701280196
 10
79.9362488398375
 20
187.3166601977733
  0
LWPOLYLINE
  5
E2
100
AcDbEntity
  8
Incisione
  6
ByLayer
 62
  256
370
   70
100
AcDbPolyline
 90
    2
 70
    0
 43
0
 10
79.9362488398375
 20
187.3166601977733
 10
82.2119066626193
 20
187.3166601977733
  0
LWPOLYLINE
  5
E3
100
AcDbEntity
  8
Incisione
  6
ByLayer
 62
  256
370
   70
100
AcDbPolyline
 90
    2
 70
    0
 43
0
 10
82.2119066626193
 20
187.3166601977733
 10
82.2119066626193
 20
180.2607601344331
  0
LWPOLYLINE
  5
E4
100
AcDbEntity
  8
Incisione
  6
ByLayer
 62
  256
370
   70
100
AcDbPolyline
 90
    2
 70
    0
 43
0
 10
82.2119066626193
 20
180.2607601344331
 10
82.21402466354505
 20
180.0651619680461
  0
LWPOLYLINE
  5
E5
100
AcDbEntity
  8
Incisione
  6
ByLayer
 62
  256
370
   70
100
AcDbPolyline
 90
    2
 70
    0
 43
0
 10
82.21402466354505
 20
180.0651619680461
 10
82.22037654257565
 20
179.8784829696722
  0
LWPOLYLINE
  5
E6
100
AcDbEntity
  8
Incisione
  6
ByLayer
 62
  256
370
   70
100
AcDbPolyline
 90
    2
 70
    0
 43
0
 10
82.22037654257565
 20
179.8784829696722
 10
82.23095911409109
 20
179.7005454384938
  0
LWPOLYLINE
  5
E7
100
AcDbEntity
  8
Incisione
  6
ByLayer
 62
  256
370
   70
100
AcDbPolyline
 90
    2
 70
    0
 43
0
 10
82.23095911409109
 20
179.7005454384938
 10
82.24576919247147
 20
179.5311716736933
  0
LWPOLYLINE
  5
E8
100
AcDbEntity
  8
Incisione
  6
ByLayer
 62
  256
370
   70
100
AcDbPolyline
 90
    2
 70
    0
 43
0
 10
82.24576919247147
 20
179.5311716736933
 10
82.264803592097
 20
179.3701839744532
  0
LWPOLYLINE
  5
E9
100
AcDbEntity
  8
Incisione
  6
ByLayer
 62
  256
370
   70
100
AcDbPolyline
 90
    2
 70
    0
 43
0
 10
82.264803592097
 20
179.3701839744532
 10
82.27590391687045
 20
179.2927793679129
  0
LWPOLYLINE
  5
EA
100
AcDbEntity
  8
Incisione
  6
ByLayer
 62
  256
370
   70
100
AcDbPolyline
 90
    2
 70
    0
 43
0
 10
82.27590391687045
 20
179.2927793679129
 10
82.28805912734765
 20
179.2174046399562
  0
LWPOLYLINE
  5
EB
100
AcDbEntity
  8
Incisione
  6
ByLayer
 62
  256
370
   70
100
AcDbPolyline
 90
    2
 70
    0
 43
0
 10
82.28805912734765
 20
179.2174046399562
 10
82.30126882532613
 20
179.1440375779808
  0
LWPOLYLINE
  5
EC
100
AcDbEntity
  8
Incisione
  6
ByLayer
 62
  256
370
   70
100
AcDbPolyline
 90
    2
 70
    0
 43
0
 10
82.30126882532613
 20
179.1440375779808
 10
82.31553261260365
 20
179.0726559693845
  0
LWPOLYLINE
  5
ED
100
AcDbEntity
  8
Incisione
  6
ByLayer
 62
  256
370
   70
100
AcDbPolyline
 90
    2
 70
    0
 43
0
 10
82.31553261260365
 20
179.0726559693845
 10
82.33085009097749
 20
179.0032376015653
  0
LWPOLYLINE
  5
EE
100
AcDbEntity
  8
Incisione
  6
ByLayer
 62
  256
370
   70
100
AcDbPolyline
 90
    2
 70
    0
 43
0
 10
82.33085009097749
 20
179.0032376015653
 10
82.34722086224497
 20
178.9357602619208
  0
LWPOLYLINE
  5
EF
100
AcDbEntity
  8
Incisione
  6
ByLayer
 62
  256
370
   70
100
AcDbPolyline
 90
    2
 70
    0
 43
0
 10
82.34722086224497
 20
178.9357602619208
 10
82.36464452820394
 20
178.8702017378488
  0
LWPOLYLINE
  5
F0
100
AcDbEntity
  8
Incisione
  6
ByLayer
 62
  256
370
   70
100
AcDbPolyline
 90
    2
 70
    0
 43
0
 10
82.36464452820394
 20
178.8702017378488
 10
82.38312069065182
 20
178.8065398167473
  0
LWPOLYLINE
  5
F1
100
AcDbEntity
  8
Incisione
  6
ByLayer
 62
  256
370
   70
100
AcDbPolyline
 90
    2
 70
    0
 43
0
 10
82.38312069065182
 20
178.8065398167473
 10
82.40264895138603
 20
178.744752286014
  0
LWPOLYLINE
  5
F2
100
AcDbEntity
  8
Incisione
  6
ByLayer
 62
  256
370
   70
100
AcDbPolyline
 90
    2
 70
    0
 43
0
 10
82.40264895138603
 20
178.744752286014
 10
82.42322891220419
 20
178.6848169330466
  0
LWPOLYLINE
  5
F3
100
AcDbEntity
  8
Incisione
  6
ByLayer
 62
  256
370
   70
100
AcDbPolyline
 90
    2
 70
    0
 43
0
 10
82.42322891220419
 20
178.6848169330466
 10
82.44486017490362
 20
178.626711545243
  0
LWPOLYLINE
  5
F4
100
AcDbEntity
  8
Incisione
  6
ByLayer
 62
  256
370
   70
100
AcDbPolyline
 90
    2
 70
    0
 43
0
 10
82.44486017490362
 20
178.626711545243
 10
82.46754234128207
 20
178.5704139100011
  0
LWPOLYLINE
  5
F5
100
AcDbEntity
  8
Incisione
  6
ByLayer
 62
  256
370
   70
100
AcDbPolyline
 90
    2
 70
    0
 43
0
 10
82.46754234128207
 20
178.5704139100011
 10
82.49127501313706
 20
178.5159018147186
  0
LWPOLYLINE
  5
F6
100
AcDbEntity
  8
Incisione
  6
ByLayer
 62
  256
370
   70
100
AcDbPolyline
 90
    2
 70
    0
 43
0
 10
82.49127501313706
 20
178.5159018147186
 10
82.51605779226588
 20
178.4631530467934
  0
LWPOLYLINE
  5
F7
100
AcDbEntity
  8
Incisione
  6
ByLayer
 62
  256
370
   70
100
AcDbPolyline
 90
    2
 70
    0
 43
0
 10
82.51605779226588
 20
178.4631530467934
 10
82.54189028046619
 20
178.4121453936233
  0
LWPOLYLINE
  5
F8
100
AcDbEntity
  8
Incisione
  6
ByLayer
 62
  256
370
   70
100
AcDbPolyline
 90
    2
 70
    0
 43
0
 10
82.54189028046619
 20
178.4121453936233
 10
82.56877207953539
 20
178.3628566426058
  0
LWPOLYLINE
  5
F9
100
AcDbEntity
  8
Incisione
  6
ByLayer
 62
  256
370
   70
100
AcDbPolyline
 90
    2
 70
    0
 43
0
 10
82.56877207953539
 20
178.3628566426058
 10
82.59670279127113
 20
178.3152645811391
  0
LWPOLYLINE
  5
FA
100
AcDbEntity
  8
Incisione
  6
ByLayer
 62
  256
370
   70
100
AcDbPolyline
 90
    2
 70
    0
 43
0
 10
82.59670279127113
 20
178.3152645811391
 10
82.62568201747081
 20
178.2693469966208
  0
LWPOLYLINE
  5
FB
100
AcDbEntity
  8
Incisione
  6
ByLayer
 62
  256
370
   70
100
AcDbPolyline
 90
    2
 70
    0
 43
0
 10
82.62568201747081
 20
178.2693469966208
 10
82.65570935993196
 20
178.2250816764488
  0
LWPOLYLINE
  5
FC
100
AcDbEntity
  8
Incisione
  6
ByLayer
 62
  256
370
   70
100
AcDbPolyline
 90
    2
 70
    0
 43
0
 10
82.65570935993196
 20
178.2250816764488
 10
82.68678442045223
 20
178.1824464080208
  0
LWPOLYLINE
  5
FD
100
AcDbEntity
  8
Incisione
  6
ByLayer
 62
  256
370
   70
100
AcDbPolyline
 90
    2
 70
    0
 43
0
 10
82.68678442045223
 20
178.1824464080208
 10
82.71890680082902
 20
178.1414189787348
  0
LWPOLYLINE
  5
FE
100
AcDbEntity
  8
Incisione
  6
ByLayer
 62
  256
370
   70
100
AcDbPolyline
 90
    2
 70
    0
 43
0
 10
82.71890680082902
 20
178.1414189787348
 10
82.73536061152527
 20
178.1215012623319
  0
LWPOLYLINE
  5
FF
100
AcDbEntity
  8
Incisione
  6
ByLayer
 62
  256
370
   70
100
AcDbPolyline
 90
    2
 70
    0
 43
0
 10
82.73536061152527
 20
178.1215012623319
 10
82.75207610285975
 20
178.1019771759884
  0
LWPOLYLINE
  5
100
100
AcDbEntity
  8
Incisione
  6
ByLayer
 62
  256
370
   70
100
AcDbPolyline
 90
    2
 70
    0
 43
0
 10
82.75207610285975
 20
178.1019771759884
 10
82.76905322505718
 20
178.0828439431293
  0
LWPOLYLINE
  5
101
100
AcDbEntity
  8
Incisione
  6
ByLayer
 62
  256
370
   70
100
AcDbPolyline
 90
    2
 70
    0
 43
0
 10
82.76905322505718
 20
178.0828439431293
 10
82.78629192834205
 20
178.0640987871794
  0
LWPOLYLINE
  5
102
100
AcDbEntity
  8
Incisione
  6
ByLayer
 62
  256
370
   70
100
AcDbPolyline
 90
    2
 70
    0
 43
0
 10
82.78629192834205
 20
178.0640987871794
 10
82.8037921629392
 20
178.0457389315634
  0
LWPOLYLINE
  5
103
100
AcDbEntity
  8
Incisione
  6
ByLayer
 62
  256
370
   70
100
AcDbPolyline
 90
    2
 70
    0
 43
0
 10
82.8037921629392
 20
178.0457389315634
 10
82.82155387907346
 20
178.0277615997059
  0
LWPOLYLINE
  5
104
100
AcDbEntity
  8
Incisione
  6
ByLayer
 62
  256
370
   70
100
AcDbPolyline
 90
    2
 70
    0
 43
0
 10
82.82155387907346
 20
178.0277615997059
 10
82.83957702696921
 20
178.0101640150316
  0
LWPOLYLINE
  5
105
100
AcDbEntity
  8
Incisione
  6
ByLayer
 62
  256
370
   70
100
AcDbPolyline
 90
    2
 70
    0
 43
0
 10
82.83957702696921
 20
178.0101640150316
 10
82.85786155685128
 20
177.9929434009654
  0
LWPOLYLINE
  5
106
100
AcDbEntity
  8
Incisione
  6
ByLayer
 62
  256
370
   70
100
AcDbPolyline
 90
    2
 70
    0
 43
0
 10
82.85786155685128
 20
177.9929434009654
 10
82.87640741894438
 20
177.976096980932
  0
LWPOLYLINE
  5
107
100
AcDbEntity
  8
Incisione
  6
ByLayer
 62
  256
370
   70
100
AcDbPolyline
 90
    2
 70
    0
 43
0
 10
82.87640741894438
 20
177.976096980932
 10
82.89521456347325
 20
177.9596219783558
  0
LWPOLYLINE
  5
108
100
AcDbEntity
  8
Incisione
  6
ByLayer
 62
  256
370
   70
100
AcDbPolyline
 90
    2
 70
    0
 43
0
 10
82.89521456347325
 20
177.9596219783558
 10
82.91428294066247
 20
177.943515616662
  0
LWPOLYLINE
  5
109
100
AcDbEntity
  8
Incisione
  6
ByLayer
 62
  256
370
   70
100
AcDbPolyline
 90
    2
 70
    0
 43
0
 10
82.91428294066247
 20
177.943515616662
 10
82.9336125007369
 20
177.9277751192751
  0
LWPOLYLINE
  5
10A
100
AcDbEntity
  8
Incisione
  6
ByLayer
 62
  256
370
   70
100
AcDbPolyline
 90
    2
 70
    0
 43
0
 10
82.9336125007369
 20
177.9277751192751
 10
82.9532031939209
 20
177.9123977096198
  0
LWPOLYLINE
  5
10B
100
AcDbEntity
  8
Incisione
  6
ByLayer
 62
  256
370
   70
100
AcDbPolyline
 90
    2
 70
    0
 43
0
 10
82.9532031939209
 20
177.9123977096198
 10
82.97305497043953
 20
177.8973806111209
  0
LWPOLYLINE
  5
10C
100
AcDbEntity
  8
Incisione
  6
ByLayer
 62
  256
370
   70
100
AcDbPolyline
 90
    2
 70
    0
 43
0
 10
82.97305497043953
 20
177.8973806111209
 10
82.9931677805173
 20
177.8827210472028
  0
LWPOLYLINE
  5
10D
100
AcDbEntity
  8
Incisione
  6
ByLayer
 62
  256
370
   70
100
AcDbPolyline
 90
    2
 70
    0
 43
0
 10
82.9931677805173
 20
177.8827210472028
 10
83.01354157437891
 20
177.8684162412909
  0
LWPOLYLINE
  5
10E
100
AcDbEntity
  8
Incisione
  6
ByLayer
 62
  256
370
   70
100
AcDbPolyline
 90
    2
 70
    0
 43
0
 10
83.01354157437891
 20
177.8684162412909
 10
83.03417630224897
 20
177.8544634168094
  0
LWPOLYLINE
  5
10F
100
AcDbEntity
  8
Incisione
  6
ByLayer
 62
  256
370
   70
100
AcDbPolyline
 90
    2
 70
    0
 43
0
 10
83.03417630224897
 20
177.8544634168094
 10
83.05507191435231
 20
177.840859797183
  0
LWPOLYLINE
  5
110
100
AcDbEntity
  8
Incisione
  6
ByLayer
 62
  256
370
   70
100
AcDbPolyline
 90
    2
 70
    0
 43
0
 10
83.05507191435231
 20
177.840859797183
 10
83.09764559215728
 20
177.8146890661952
  0
LWPOLYLINE
  5
111
100
AcDbEntity
  8
Incisione
  6
ByLayer
 62
  256
370
   70
100
AcDbPolyline
 90
    2
 70
    0
 43
0
 10
83.09764559215728
 20
177.8146890661952
 10
83.14126220959156
 20
177.7898818357251
  0
LWPOLYLINE
  5
112
100
AcDbEntity
  8
Incisione
  6
ByLayer
 62
  256
370
   70
100
AcDbPolyline
 90
    2
 70
    0
 43
0
 10
83.14126220959156
 20
177.7898818357251
 10
83.18592136845245
 20
177.7664158931706
  0
LWPOLYLINE
  5
113
100
AcDbEntity
  8
Incisione
  6
ByLayer
 62
  256
370
   70
100
AcDbPolyline
 90
    2
 70
    0
 43
0
 10
83.18592136845245
 20
177.7664158931706
 10
83.23162267053738
 20
177.7442690259294
  0
LWPOLYLINE
  5
114
100
AcDbEntity
  8
Incisione
  6
ByLayer
 62
  256
370
   70
100
AcDbPolyline
 90
    2
 70
    0
 43
0
 10
83.23162267053738
 20
177.7442690259294
 10
83.27836571764419
 20
177.7234190213995
  0
LWPOLYLINE
  5
115
100
AcDbEntity
  8
Incisione
  6
ByLayer
 62
  256
370
   70
100
AcDbPolyline
 90
    2
 70
    0
 43
0
 10
83.27836571764419
 20
177.7234190213995
 10
83.32615011156997
 20
177.7038436669785
  0
LWPOLYLINE
  5
116
100
AcDbEntity
  8
Incisione
  6
ByLayer
 62
  256
370
   70
100
AcDbPolyline
 90
    2
 70
    0
 43
0
 10
83.32615011156997
 20
177.7038436669785
 10
83.37497545411247
 20
177.6855207500643
  0
LWPOLYLINE
  5
117
100
AcDbEntity
  8
Incisione
  6
ByLayer
 62
  256
370
   70
100
AcDbPolyline
 90
    2
 70
    0
 43
0
 10
83.37497545411247
 20
177.6855207500643
 10
83.42484134706945
 20
177.6684280580548
  0
LWPOLYLINE
  5
118
100
AcDbEntity
  8
Incisione
  6
ByLayer
 62
  256
370
   70
100
AcDbPolyline
 90
    2
 70
    0
 43
0
 10
83.42484134706945
 20
177.6684280580548
 10
83.47574739223796
 20
177.6525433783478
  0
LWPOLYLINE
  5
119
100
AcDbEntity
  8
Incisione
  6
ByLayer
 62
  256
370
   70
100
AcDbPolyline
 90
    2
 70
    0
 43
0
 10
83.47574739223796
 20
177.6525433783478
 10
83.52769319141578
 20
177.6378444983408
  0
LWPOLYLINE
  5
11A
100
AcDbEntity
  8
Incisione
  6
ByLayer
 62
  256
370
   70
100
AcDbPolyline
 90
    2
 70
    0
 43
0
 10
83.52769319141578
 20
177.6378444983408
 10
83.58067834640042
 20
177.6243092054318
  0
LWPOLYLINE
  5
11B
100
AcDbEntity
  8
Incisione
  6
ByLayer
 62
  256
370
   70
100
AcDbPolyline
 90
    2
 70
    0
 43
0
 10
83.58067834640042
 20
177.6243092054318
 10
83.63470245898907
 20
177.6119152870189
  0
LWPOLYLINE
  5
11C
100
AcDbEntity
  8
Incisione
  6
ByLayer
 62
  256
370
   70
100
AcDbPolyline
 90
    2
 70
    0
 43
0
 10
83.63470245898907
 20
177.6119152870189
 10
83.68976513097959
 20
177.6006405304994
  0
LWPOLYLINE
  5
11D
100
AcDbEntity
  8
Incisione
  6
ByLayer
 62
  256
370
   70
100
AcDbPolyline
 90
    2
 70
    0
 43
0
 10
83.68976513097959
 20
177.6006405304994
 10
83.74586596416941
 20
177.5904627232716
  0
LWPOLYLINE
  5
11E
100
AcDbEntity
  8
Incisione
  6
ByLayer
 62
  256
370
   70
100
AcDbPolyline
 90
    2
 70
    0
 43
0
 10
83.74586596416941
 20
177.5904627232716
 10
83.80300456035593
 20
177.5813596527329
  0
LWPOLYLINE
  5
11F
100
AcDbEntity
  8
Incisione
  6
ByLayer
 62
  256
370
   70
100
AcDbPolyline
 90
    2
 70
    0
 43
0
 10
83.80300456035593
 20
177.5813596527329
 10
83.86118052133691
 20
177.5733091062812
  0
LWPOLYLINE
  5
120
100
AcDbEntity
  8
Incisione
  6
ByLayer
 62
  256
370
   70
100
AcDbPolyline
 90
    2
 70
    0
 43
0
 10
83.86118052133691
 20
177.5733091062812
 10
83.92039344890964
 20
177.5662888713144
  0
LWPOLYLINE
  5
121
100
AcDbEntity
  8
Incisione
  6
ByLayer
 62
  256
370
   70
100
AcDbPolyline
 90
    2
 70
    0
 43
0
 10
83.92039344890964
 20
177.5662888713144
 10
83.98064294487176
 20
177.5602767352303
  0
LWPOLYLINE
  5
122
100
AcDbEntity
  8
Incisione
  6
ByLayer
 62
  256
370
   70
100
AcDbPolyline
 90
    2
 70
    0
 43
0
 10
83.98064294487176
 20
177.5602767352303
 10
84.10425004915385
 20
177.5511879093015
  0
LWPOLYLINE
  5
123
100
AcDbEntity
  8
Incisione
  6
ByLayer
 62
  256
370
   70
100
AcDbPolyline
 90
    2
 70
    0
 43
0
 10
84.10425004915385
 20
177.5511879093015
 10
84.23199864856349
 20
177.545864927677
  0
LWPOLYLINE
  5
124
100
AcDbEntity
  8
Incisione
  6
ByLayer
 62
  256
370
   70
100
AcDbPolyline
 90
    2
 70
    0
 43
0
 10
84.23199864856349
 20
177.545864927677
 10
84.36388555748056
 20
177.5441300895394
  0
LWPOLYLINE
  5
125
100
AcDbEntity
  8
Incisione
  6
ByLayer
 62
  256
370
   70
100
AcDbPolyline
 90
    2
 70
    0
 43
0
 10
84.36388555748056
 20
177.5441300895394
 10
84.51290344235667
 20
177.5463167495108
  0
LWPOLYLINE
  5
126
100
AcDbEntity
  8
Incisione
  6
ByLayer
 62
  256
370
   70
100
AcDbPolyline
 90
    2
 70
    0
 43
0
 10
84.51290344235667
 20
177.5463167495108
 10
84.65571214399847
 20
177.552941324965
  0
LWPOLYLINE
  5
127
100
AcDbEntity
  8
Incisione
  6
ByLayer
 62
  256
370
   70
100
AcDbPolyline
 90
    2
 70
    0
 43
0
 10
84.65571214399847
 20
177.552941324965
 10
84.72481834997905
 20
177.5579481101578
  0
LWPOLYLINE
  5
128
100
AcDbEntity
  8
Incisione
  6
ByLayer
 62
  256
370
   70
100
AcDbPolyline
 90
    2
 70
    0
 43
0
 10
84.72481834997905
 20
177.5579481101578
 10
84.79240861879805
 20
177.5641007092129
  0
LWPOLYLINE
  5
129
100
AcDbEntity
  8
Incisione
  6
ByLayer
 62
  256
370
   70
100
AcDbPolyline
 90
    2
 70
    0
 43
0
 10
84.79240861879805
 20
177.5641007092129
 10
84.85849507000444
 20
177.5714112337938
  0
LWPOLYLINE
  5
12A
100
AcDbEntity
  8
Incisione
  6
ByLayer
 62
  256
370
   70
100
AcDbPolyline
 90
    2
 70
    0
 43
0
 10
84.85849507000444
 20
177.5714112337938
 10
84.92308982314728
 20
177.5798917955648
  0
LWPOLYLINE
  5
12B
100
AcDbEntity
  8
Incisione
  6
ByLayer
 62
  256
370
   70
100
AcDbPolyline
 90
    2
 70
    0
 43
0
 10
84.92308982314728
 20
177.5798917955648
 10
84.98620499777553
 20
177.5895545061893
  0
LWPOLYLINE
  5
12C
100
AcDbEntity
  8
Incisione
  6
ByLayer
 62
  256
370
   70
100
AcDbPolyline
 90
    2
 70
    0
 43
0
 10
84.98620499777553
 20
177.5895545061893
 10
85.04785271343837
 20
177.6004114773312
  0
LWPOLYLINE
  5
12D
100
AcDbEntity
  8
Incisione
  6
ByLayer
 62
  256
370
   70
100
AcDbPolyline
 90
    2
 70
    0
 43
0
 10
85.04785271343837
 20
177.6004114773312
 10
85.10804508968477
 20
177.6124748206545
  0
LWPOLYLINE
  5
12E
100
AcDbEntity
  8
Incisione
  6
ByLayer
 62
  256
370
   70
100
AcDbPolyline
 90
    2
 70
    0
 43
0
 10
85.10804508968477
 20
177.6124748206545
 10
85.16679424606355
 20
177.6257566478229
  0
LWPOLYLINE
  5
12F
100
AcDbEntity
  8
Incisione
  6
ByLayer
 62
  256
370
   70
100
AcDbPolyline
 90
    2
 70
    0
 43
0
 10
85.16679424606355
 20
177.6257566478229
 10
85.2241123021239
 20
177.6402690705
  0
LWPOLYLINE
  5
130
100
AcDbEntity
  8
Incisione
  6
ByLayer
 62
  256
370
   70
100
AcDbPolyline
 90
    2
 70
    0
 43
0
 10
85.2241123021239
 20
177.6402690705
 10
85.28001137741489
 20
177.65602420035
  0
LWPOLYLINE
  5
131
100
AcDbEntity
  8
Incisione
  6
ByLayer
 62
  256
370
   70
100
AcDbPolyline
 90
    2
 70
    0
 43
0
 10
85.28001137741489
 20
177.65602420035
 10
85.33450359148537
 20
177.6730341490364
  0
LWPOLYLINE
  5
132
100
AcDbEntity
  8
Incisione
  6
ByLayer
 62
  256
370
   70
100
AcDbPolyline
 90
    2
 70
    0
 43
0
 10
85.33450359148537
 20
177.6730341490364
 10
85.3876010638844
 20
177.6913110282234
  0
LWPOLYLINE
  5
133
100
AcDbEntity
  8
Incisione
  6
ByLayer
 62
  256
370
   70
100
AcDbPolyline
 90
    2
 70
    0
 43
0
 10
85.3876010638844
 20
177.6913110282234
 10
85.43931591416094
 20
177.7108669495743
  0
LWPOLYLINE
  5
134
100
AcDbEntity
  8
Incisione
  6
ByLayer
 62
  256
370
   70
100
AcDbPolyline
 90
    2
 70
    0
 43
0
 10
85.43931591416094
 20
177.7108669495743
 10
85.48966026186429
 20
177.7317140247534
  0
LWPOLYLINE
  5
135
100
AcDbEntity
  8
Incisione
  6
ByLayer
 62
  256
370
   70
100
AcDbPolyline
 90
    2
 70
    0
 43
0
 10
85.48966026186429
 20
177.7317140247534
 10
85.53864622654305
 20
177.7538643654242
  0
LWPOLYLINE
  5
136
100
AcDbEntity
  8
Incisione
  6
ByLayer
 62
  256
370
   70
100
AcDbPolyline
 90
    2
 70
    0
 43
0
 10
85.53864622654305
 20
177.7538643654242
 10
85.58628592774653
 20
177.7773300832505
  0
LWPOLYLINE
  5
137
100
AcDbEntity
  8
Incisione
  6
ByLayer
 62
  256
370
   70
100
AcDbPolyline
 90
    2
 70
    0
 43
0
 10
85.58628592774653
 20
177.7773300832505
 10
85.63259148502357
 20
177.8021232898964
  0
LWPOLYLINE
  5
138
100
AcDbEntity
  8
Incisione
  6
ByLayer
 62
  256
370
   70
100
AcDbPolyline
 90
    2
 70
    0
 43
0
 10
85.63259148502357
 20
177.8021232898964
 10
85.65524774704886
 20
177.8150214864214
  0
LWPOLYLINE
  5
139
100
AcDbEntity
  8
Incisione
  6
ByLayer
 62
  256
370
   70
100
AcDbPolyline
 90
    2
 70
    0
 43
0
 10
85.65524774704886
 20
177.8150214864214
 10
85.67757501792335
 20
177.8282560970254
  0
LWPOLYLINE
  5
13A
100
AcDbEntity
  8
Incisione
  6
ByLayer
 62
  256
370
   70
100
AcDbPolyline
 90
    2
 70
    0
 43
0
 10
85.67757501792335
 20
177.8282560970254
 10
85.69957481259075
 20
177.841828635666
  0
LWPOLYLINE
  5
13B
100
AcDbEntity
  8
Incisione
  6
ByLayer
 62
  256
370
   70
100
AcDbPolyline
 90
    2
 70
    0
 43
0
 10
85.69957481259075
 20
177.841828635666
 10
85.72124864599471
 20
177.8557406163015
  0
LWPOLYLINE
  5
13C
100
AcDbEntity
  8
Incisione
  6
ByLayer
 62
  256
370
   70
100
AcDbPolyline
 90
    2
 70
    0
 43
0
 10
85.72124864599471
 20
177.8557406163015
 10
85.74259803307882
 20
177.8699935528896
  0
LWPOLYLINE
  5
13D
100
AcDbEntity
  8
Incisione
  6
ByLayer
 62
  256
370
   70
100
AcDbPolyline
 90
    2
 70
    0
 43
0
 10
85.74259803307882
 20
177.8699935528896
 10
85.76362448878672
 20
177.8845889593885
  0
LWPOLYLINE
  5
13E
100
AcDbEntity
  8
Incisione
  6
ByLayer
 62
  256
370
   70
100
AcDbPolyline
 90
    2
 70
    0
 43
0
 10
85.76362448878672
 20
177.8845889593885
 10
85.78432952806202
 20
177.8995283497559
  0
LWPOLYLINE
  5
13F
100
AcDbEntity
  8
Incisione
  6
ByLayer
 62
  256
370
   70
100
AcDbPolyline
 90
    2
 70
    0
 43
0
 10
85.78432952806202
 20
177.8995283497559
 10
85.80471466584845
 20
177.9148132379501
  0
LWPOLYLINE
  5
140
100
AcDbEntity
  8
Incisione
  6
ByLayer
 62
  256
370
   70
100
AcDbPolyline
 90
    2
 70
    0
 43
0
 10
85.80471466584845
 20
177.9148132379501
 10
85.82478141708953
 20
177.9304451379288
  0
LWPOLYLINE
  5
141
100
AcDbEntity
  8
Incisione
  6
ByLayer
 62
  256
370
   70
100
AcDbPolyline
 90
    2
 70
    0
 43
0
 10
85.82478141708953
 20
177.9304451379288
 10
85.84453129672886
 20
177.9464255636502
  0
LWPOLYLINE
  5
142
100
AcDbEntity
  8
Incisione
  6
ByLayer
 62
  256
370
   70
100
AcDbPolyline
 90
    2
 70
    0
 43
0
 10
85.84453129672886
 20
177.9464255636502
 10
85.86396581971007
 20
177.9627560290722
  0
LWPOLYLINE
  5
143
100
AcDbEntity
  8
Incisione
  6
ByLayer
 62
  256
370
   70
100
AcDbPolyline
 90
    2
 70
    0
 43
0
 10
85.86396581971007
 20
177.9627560290722
 10
85.8830865009769
 20
177.9794380481527
  0
LWPOLYLINE
  5
144
100
AcDbEntity
  8
Incisione
  6
ByLayer
 62
  256
370
   70
100
AcDbPolyline
 90
    2
 70
    0
 43
0
 10
85.8830865009769
 20
177.9794380481527
 10
85.90189485547296
 20
177.9964731348499
  0
LWPOLYLINE
  5
145
100
AcDbEntity
  8
Incisione
  6
ByLayer
 62
  256
370
   70
100
AcDbPolyline
 90
    2
 70
    0
 43
0
 10
85.90189485547296
 20
177.9964731348499
 10
85.92039239814176
 20
178.0138628031214
  0
LWPOLYLINE
  5
146
100
AcDbEntity
  8
Incisione
  6
ByLayer
 62
  256
370
   70
100
AcDbPolyline
 90
    2
 70
    0
 43
0
 10
85.92039239814176
 20
178.0138628031214
 10
85.93858064392703
 20
178.0316085669255
  0
LWPOLYLINE
  5
147
100
AcDbEntity
  8
Incisione
  6
ByLayer
 62
  256
370
   70
100
AcDbPolyline
 90
    2
 70
    0
 43
0
 10
85.93858064392703
 20
178.0316085669255
 10
85.95646110777238
 20
178.0497119402199
  0
LWPOLYLINE
  5
148
100
AcDbEntity
  8
Incisione
  6
ByLayer
 62
  256
370
   70
100
AcDbPolyline
 90
    2
 70
    0
 43
0
 10
85.95646110777238
 20
178.0497119402199
 10
85.97403530462134
 20
178.0681744369629
  0
LWPOLYLINE
  5
149
100
AcDbEntity
  8
Incisione
  6
ByLayer
 62
  256
370
   70
100
AcDbPolyline
 90
    2
 70
    0
 43
0
 10
85.97403530462134
 20
178.0681744369629
 10
85.99130474941774
 20
178.0869975711122
  0
LWPOLYLINE
  5
14A
100
AcDbEntity
  8
Incisione
  6
ByLayer
 62
  256
370
   70
100
AcDbPolyline
 90
    2
 70
    0
 43
0
 10
85.99130474941774
 20
178.0869975711122
 10
86.00827095710497
 20
178.1061828566259
  0
LWPOLYLINE
  5
14B
100
AcDbEntity
  8
Incisione
  6
ByLayer
 62
  256
370
   70
100
AcDbPolyline
 90
    2
 70
    0
 43
0
 10
86.00827095710497
 20
178.1061828566259
 10
86.02493544262688
 20
178.1257318074621
  0
LWPOLYLINE
  5
14C
100
AcDbEntity
  8
Incisione
  6
ByLayer
 62
  256
370
   70
100
AcDbPolyline
 90
    2
 70
    0
 43
0
 10
86.02493544262688
 20
178.1257318074621
 10
86.04129972092687
 20
178.1456459375786
  0
LWPOLYLINE
  5
14D
100
AcDbEntity
  8
Incisione
  6
ByLayer
 62
  256
370
   70
100
AcDbPolyline
 90
    2
 70
    0
 43
0
 10
86.04129972092687
 20
178.1456459375786
 10
86.05736530694878
 20
178.1659267609334
  0
LWPOLYLINE
  5
14E
100
AcDbEntity
  8
Incisione
  6
ByLayer
 62
  256
370
   70
100
AcDbPolyline
 90
    2
 70
    0
 43
0
 10
86.05736530694878
 20
178.1659267609334
 10
86.07313371563623
 20
178.1865757914844
  0
LWPOLYLINE
  5
14F
100
AcDbEntity
  8
Incisione
  6
ByLayer
 62
  256
370
   70
100
AcDbPolyline
 90
    2
 70
    0
 43
0
 10
86.07313371563623
 20
178.1865757914844
 10
86.08860646193261
 20
178.2075945431899
  0
LWPOLYLINE
  5
150
100
AcDbEntity
  8
Incisione
  6
ByLayer
 62
  256
370
   70
100
AcDbPolyline
 90
    2
 70
    0
 43
0
 10
86.08860646193261
 20
178.2075945431899
 10
86.11867102712699
 20
178.2507472658955
  0
LWPOLYLINE
  5
151
100
AcDbEntity
  8
Incisione
  6
ByLayer
 62
  256
370
   70
100
AcDbPolyline
 90
    2
 70
    0
 43
0
 10
86.11867102712699
 20
178.2507472658955
 10
86.14757112208122
 20
178.2953970407137
  0
LWPOLYLINE
  5
152
100
AcDbEntity
  8
Incisione
  6
ByLayer
 62
  256
370
   70
100
AcDbPolyline
 90
    2
 70
    0
 43
0
 10
86.14757112208122
 20
178.2953970407137
 10
86.17531886634436
 20
178.3415559793089
  0
LWPOLYLINE
  5
153
100
AcDbEntity
  8
Incisione
  6
ByLayer
 62
  256
370
   70
100
AcDbPolyline
 90
    2
 70
    0
 43
0
 10
86.17531886634436
 20
178.3415559793089
 10
86.20192637946536
 20
178.3892361933443
  0
LWPOLYLINE
  5
154
100
AcDbEntity
  8
Incisione
  6
ByLayer
 62
  256
370
   70
100
AcDbPolyline
 90
    2
 70
    0
 43
0
 10
86.20192637946536
 20
178.3892361933443
 10
86.22740578099319
 20
178.4384497944842
  0
LWPOLYLINE
  5
155
100
AcDbEntity
  8
Incisione
  6
ByLayer
 62
  256
370
   70
100
AcDbPolyline
 90
    2
 70
    0
 43
0
 10
86.22740578099319
 20
178.4384497944842
 10
86.25176919047681
 20
178.4892088943922
  0
LWPOLYLINE
  5
156
100
AcDbEntity
  8
Incisione
  6
ByLayer
 62
  256
370
   70
100
AcDbPolyline
 90
    2
 70
    0
 43
0
 10
86.25176919047681
 20
178.4892088943922
 10
86.2750287274655
 20
178.5415256047319
  0
LWPOLYLINE
  5
157
100
AcDbEntity
  8
Incisione
  6
ByLayer
 62
  256
370
   70
100
AcDbPolyline
 90
    2
 70
    0
 43
0
 10
86.2750287274655
 20
178.5415256047319
 10
86.29719651150799
 20
178.5954120371674
  0
LWPOLYLINE
  5
158
100
AcDbEntity
  8
Incisione
  6
ByLayer
 62
  256
370
   70
100
AcDbPolyline
 90
    2
 70
    0
 43
0
 10
86.29719651150799
 20
178.5954120371674
 10
86.31828466215347
 20
178.6508803033626
  0
LWPOLYLINE
  5
159
100
AcDbEntity
  8
Incisione
  6
ByLayer
 62
  256
370
   70
100
AcDbPolyline
 90
    2
 70
    0
 43
0
 10
86.31828466215347
 20
178.6508803033626
 10
86.33830529895067
 20
178.707942514981
  0
LWPOLYLINE
  5
15A
100
AcDbEntity
  8
Incisione
  6
ByLayer
 62
  256
370
   70
100
AcDbPolyline
 90
    2
 70
    0
 43
0
 10
86.33830529895067
 20
178.707942514981
 10
86.357270541449
 20
178.7666107836867
  0
LWPOLYLINE
  5
15B
100
AcDbEntity
  8
Incisione
  6
ByLayer
 62
  256
370
   70
100
AcDbPolyline
 90
    2
 70
    0
 43
0
 10
86.357270541449
 20
178.7666107836867
 10
86.37519250919718
 20
178.8268972211433
  0
LWPOLYLINE
  5
15C
100
AcDbEntity
  8
Incisione
  6
ByLayer
 62
  256
370
   70
100
AcDbPolyline
 90
    2
 70
    0
 43
0
 10
86.37519250919718
 20
178.8268972211433
 10
86.39208332174439
 20
178.8888139390148
  0
LWPOLYLINE
  5
15D
100
AcDbEntity
  8
Incisione
  6
ByLayer
 62
  256
370
   70
100
AcDbPolyline
 90
    2
 70
    0
 43
0
 10
86.39208332174439
 20
178.8888139390148
 10
86.4079550986396
 20
178.9523730489648
  0
LWPOLYLINE
  5
15E
100
AcDbEntity
  8
Incisione
  6
ByLayer
 62
  256
370
   70
100
AcDbPolyline
 90
    2
 70
    0
 43
0
 10
86.4079550986396
 20
178.9523730489648
 10
86.42281995943165
 20
179.0175866626573
  0
LWPOLYLINE
  5
15F
100
AcDbEntity
  8
Incisione
  6
ByLayer
 62
  256
370
   70
100
AcDbPolyline
 90
    2
 70
    0
 43
0
 10
86.42281995943165
 20
179.0175866626573
 10
86.43669002366983
 20
179.0844668917561
  0
LWPOLYLINE
  5
160
100
AcDbEntity
  8
Incisione
  6
ByLayer
 62
  256
370
   70
100
AcDbPolyline
 90
    2
 70
    0
 43
0
 10
86.43669002366983
 20
179.0844668917561
 10
86.44957741090298
 20
179.1530258479249
  0
LWPOLYLINE
  5
161
100
AcDbEntity
  8
Incisione
  6
ByLayer
 62
  256
370
   70
100
AcDbPolyline
 90
    2
 70
    0
 43
0
 10
86.44957741090298
 20
179.1530258479249
 10
86.47245263255036
 20
179.2952283881281
  0
LWPOLYLINE
  5
162
100
AcDbEntity
  8
Incisione
  6
ByLayer
 62
  256
370
   70
100
AcDbPolyline
 90
    2
 70
    0
 43
0
 10
86.47245263255036
 20
179.2952283881281
 10
86.49154258076601
 20
179.4442911765772
  0
LWPOLYLINE
  5
163
100
AcDbEntity
  8
Incisione
  6
ByLayer
 62
  256
370
   70
100
AcDbPolyline
 90
    2
 70
    0
 43
0
 10
86.49154258076601
 20
179.4442911765772
 10
86.50694421194191
 20
179.600311106583
  0
LWPOLYLINE
  5
164
100
AcDbEntity
  8
Incisione
  6
ByLayer
 62
  256
370
   70
100
AcDbPolyline
 90
    2
 70
    0
 43
0
 10
86.50694421194191
 20
179.600311106583
 10
86.51875448247029
 20
179.7633850714559
  0
LWPOLYLINE
  5
165
100
AcDbEntity
  8
Incisione
  6
ByLayer
 62
  256
370
   70
100
AcDbPolyline
 90
    2
 70
    0
 43
0
 10
86.51875448247029
 20
179.7633850714559
 10
86.52707034874311
 20
179.9336099645064
  0
LWPOLYLINE
  5
166
100
AcDbEntity
  8
Incisione
  6
ByLayer
 62
  256
370
   70
100
AcDbPolyline
 90
    2
 70
    0
 43
0
 10
86.52707034874311
 20
179.9336099645064
 10
86.53198876715271
 20
180.1110826790452
  0
LWPOLYLINE
  5
167
100
AcDbEntity
  8
Incisione
  6
ByLayer
 62
  256
370
   70
100
AcDbPolyline
 90
    2
 70
    0
 43
0
 10
86.53198876715271
 20
180.1110826790452
 10
86.53360669409096
 20
180.2959001083826
  0
LWPOLYLINE
  5
168
100
AcDbEntity
  8
Incisione
  6
ByLayer
 62
  256
370
   70
100
AcDbPolyline
 90
    2
 70
    0
 43
0
 10
86.53360669409096
 20
180.2959001083826
 10
86.53360669409096
 20
187.3166601977733
  0
LWPOLYLINE
  5
169
100
AcDbEntity
  8
Incisione
  6
ByLayer
 62
  256
370
   70
100
AcDbPolyline
 90
    2
 70
    0
 43
0
 10
93.18315774494624
 20
175.8506934037647
 10
90.94281215088824
 20
175.8506934037647
  0
LWPOLYLINE
  5
16A
100
AcDbEntity
  8
Incisione
  6
ByLayer
 62
  256
370
   70
100
AcDbPolyline
 90
    2
 70
    0
 43
0
 10
90.94281215088824
 20
175.8506934037647
 10
90.94281215088824
 20
184.3178768326376
  0
LWPOLYLINE
  5
16B
100
AcDbEntity
  8
Incisione
  6
ByLayer
 62
  256
370
   70
100
AcDbPolyline
 90
    2
 70
    0
 43
0
 10
90.94281215088824
 20
184.3178768326376
 10
93.0067688561013
 20
184.3178768326376
  0
LWPOLYLINE
  5
16C
100
AcDbEntity
  8
Incisione
  6
ByLayer
 62
  256
370
   70
100
AcDbPolyline
 90
    2
 70
    0
 43
0
 10
93.0067688561013
 20
184.3178768326376
 10
93.04190883005106
 20
183.1713490551464
  0
LWPOLYLINE
  5
16D
100
AcDbEntity
  8
Incisione
  6
ByLayer
 62
  256
370
   70
100
AcDbPolyline
 90
    2
 70
    0
 43
0
 10
93.04190883005106
 20
183.1713490551464
 10
93.1269159250769
 20
183.2621965216787
  0
LWPOLYLINE
  5
16E
100
AcDbEntity
  8
Incisione
  6
ByLayer
 62
  256
370
   70
100
AcDbPolyline
 90
    2
 70
    0
 43
0
 10
93.1269159250769
 20
183.2621965216787
 10
93.21320505864219
 20
183.3495693284907
  0
LWPOLYLINE
  5
16F
100
AcDbEntity
  8
Incisione
  6
ByLayer
 62
  256
370
   70
100
AcDbPolyline
 90
    2
 70
    0
 43
0
 10
93.21320505864219
 20
183.3495693284907
 10
93.30071488390797
 20
183.433506207674
  0
LWPOLYLINE
  5
170
100
AcDbEntity
  8
Incisione
  6
ByLayer
 62
  256
370
   70
100
AcDbPolyline
 90
    2
 70
    0
 43
0
 10
93.30071488390797
 20
183.433506207674
 10
93.38938405403519
 20
183.5140458913203
  0
LWPOLYLINE
  5
171
100
AcDbEntity
  8
Incisione
  6
ByLayer
 62
  256
370
   70
100
AcDbPolyline
 90
    2
 70
    0
 43
0
 10
93.38938405403519
 20
183.5140458913203
 10
93.47915122218535
 20
183.5912271115212
  0
LWPOLYLINE
  5
172
100
AcDbEntity
  8
Incisione
  6
ByLayer
 62
  256
370
   70
100
AcDbPolyline
 90
    2
 70
    0
 43
0
 10
93.47915122218535
 20
183.5912271115212
 10
93.56995504151928
 20
183.6650886003682
  0
LWPOLYLINE
  5
173
100
AcDbEntity
  8
Incisione
  6
ByLayer
 62
  256
370
   70
100
AcDbPolyline
 90
    2
 70
    0
 43
0
 10
93.56995504151928
 20
183.6650886003682
 10
93.66173416519837
 20
183.7356690899529
  0
LWPOLYLINE
  5
174
100
AcDbEntity
  8
Incisione
  6
ByLayer
 62
  256
370
   70
100
AcDbPolyline
 90
    2
 70
    0
 43
0
 10
93.66173416519837
 20
183.7356690899529
 10
93.75442724638356
 20
183.803007312367
  0
LWPOLYLINE
  5
175
100
AcDbEntity
  8
Incisione
  6
ByLayer
 62
  256
370
   70
100
AcDbPolyline
 90
    2
 70
    0
 43
0
 10
93.75442724638356
 20
183.803007312367
 10
93.84797293823613
 20
183.8671419997017
  0
LWPOLYLINE
  5
176
100
AcDbEntity
  8
Incisione
  6
ByLayer
 62
  256
370
   70
100
AcDbPolyline
 90
    2
 70
    0
 43
0
 10
93.84797293823613
 20
183.8671419997017
 10
93.94230989391713
 20
183.928111884049
  0
LWPOLYLINE
  5
177
100
AcDbEntity
  8
Incisione
  6
ByLayer
 62
  256
370
   70
100
AcDbPolyline
 90
    2
 70
    0
 43
0
 10
93.94230989391713
 20
183.928111884049
 10
94.03737676658784
 20
183.9859556975003
  0
LWPOLYLINE
  5
178
100
AcDbEntity
  8
Incisione
  6
ByLayer
 62
  256
370
   70
100
AcDbPolyline
 90
    2
 70
    0
 43
0
 10
94.03737676658784
 20
183.9859556975003
 10
94.13311220940932
 20
184.040712172147
  0
LWPOLYLINE
  5
179
100
AcDbEntity
  8
Incisione
  6
ByLayer
 62
  256
370
   70
100
AcDbPolyline
 90
    2
 70
    0
 43
0
 10
94.13311220940932
 20
184.040712172147
 10
94.22945487554261
 20
184.092420040081
  0
LWPOLYLINE
  5
17A
100
AcDbEntity
  8
Incisione
  6
ByLayer
 62
  256
370
   70
100
AcDbPolyline
 90
    2
 70
    0
 43
0
 10
94.22945487554261
 20
184.092420040081
 10
94.32634341814901
 20
184.1411180333937
  0
LWPOLYLINE
  5
17B
100
AcDbEntity
  8
Incisione
  6
ByLayer
 62
  256
370
   70
100
AcDbPolyline
 90
    2
 70
    0
 43
0
 10
94.32634341814901
 20
184.1411180333937
 10
94.42371649038955
 20
184.1868448841767
  0
LWPOLYLINE
  5
17C
100
AcDbEntity
  8
Incisione
  6
ByLayer
 62
  256
370
   70
100
AcDbPolyline
 90
    2
 70
    0
 43
0
 10
94.42371649038955
 20
184.1868448841767
 10
94.52151274542541
 20
184.2296393245216
  0
LWPOLYLINE
  5
17D
100
AcDbEntity
  8
Incisione
  6
ByLayer
 62
  256
370
   70
100
AcDbPolyline
 90
    2
 70
    0
 43
0
 10
94.52151274542541
 20
184.2296393245216
 10
94.61967083641775
 20
184.2695400865199
  0
LWPOLYLINE
  5
17E
100
AcDbEntity
  8
Incisione
  6
ByLayer
 62
  256
370
   70
100
AcDbPolyline
 90
    2
 70
    0
 43
0
 10
94.61967083641775
 20
184.2695400865199
 10
94.71812941652774
 20
184.3065859022632
  0
LWPOLYLINE
  5
17F
100
AcDbEntity
  8
Incisione
  6
ByLayer
 62
  256
370
   70
100
AcDbPolyline
 90
    2
 70
    0
 43
0
 10
94.71812941652774
 20
184.3065859022632
 10
94.81682713891655
 20
184.3408155038433
  0
LWPOLYLINE
  5
180
100
AcDbEntity
  8
Incisione
  6
ByLayer
 62
  256
370
   70
100
AcDbPolyline
 90
    2
 70
    0
 43
0
 10
94.81682713891655
 20
184.3408155038433
 10
94.91570265674522
 20
184.3722676233514
  0
LWPOLYLINE
  5
181
100
AcDbEntity
  8
Incisione
  6
ByLayer
 62
  256
370
   70
100
AcDbPolyline
 90
    2
 70
    0
 43
0
 10
94.91570265674522
 20
184.3722676233514
 10
95.01469462317505
 20
184.4009809928792
  0
LWPOLYLINE
  5
182
100
AcDbEntity
  8
Incisione
  6
ByLayer
 62
  256
370
   70
100
AcDbPolyline
 90
    2
 70
    0
 43
0
 10
95.01469462317505
 20
184.4009809928792
 10
95.11374169136707
 20
184.4269943445184
  0
LWPOLYLINE
  5
183
100
AcDbEntity
  8
Incisione
  6
ByLayer
 62
  256
370
   70
100
AcDbPolyline
 90
    2
 70
    0
 43
0
 10
95.11374169136707
 20
184.4269943445184
 10
95.21278251448234
 20
184.4503464103606
  0
LWPOLYLINE
  5
184
100
AcDbEntity
  8
Incisione
  6
ByLayer
 62
  256
370
   70
100
AcDbPolyline
 90
    2
 70
    0
 43
0
 10
95.21278251448234
 20
184.4503464103606
 10
95.31175574568215
 20
184.4710759224973
  0
LWPOLYLINE
  5
185
100
AcDbEntity
  8
Incisione
  6
ByLayer
 62
  256
370
   70
100
AcDbPolyline
 90
    2
 70
    0
 43
0
 10
95.31175574568215
 20
184.4710759224973
 10
95.41060003812754
 20
184.48922161302
  0
LWPOLYLINE
  5
186
100
AcDbEntity
  8
Incisione
  6
ByLayer
 62
  256
370
   70
100
AcDbPolyline
 90
    2
 70
    0
 43
0
 10
95.41060003812754
 20
184.48922161302
 10
95.5092540449798
 20
184.5048222140204
  0
LWPOLYLINE
  5
187
100
AcDbEntity
  8
Incisione
  6
ByLayer
 62
  256
370
   70
100
AcDbPolyline
 90
    2
 70
    0
 43
0
 10
95.5092540449798
 20
184.5048222140204
 10
95.60765641939986
 20
184.5179164575899
  0
LWPOLYLINE
  5
188
100
AcDbEntity
  8
Incisione
  6
ByLayer
 62
  256
370
   70
100
AcDbPolyline
 90
    2
 70
    0
 43
0
 10
95.60765641939986
 20
184.5179164575899
 10
95.70574581454912
 20
184.5285430758203
  0
LWPOLYLINE
  5
189
100
AcDbEntity
  8
Incisione
  6
ByLayer
 62
  256
370
   70
100
AcDbPolyline
 90
    2
 70
    0
 43
0
 10
95.70574581454912
 20
184.5285430758203
 10
95.8034608835884
 20
184.5367408008029
  0
LWPOLYLINE
  5
18A
100
AcDbEntity
  8
Incisione
  6
ByLayer
 62
  256
370
   70
100
AcDbPolyline
 90
    2
 70
    0
 43
0
 10
95.8034608835884
 20
184.5367408008029
 10
95.90074027967921
 20
184.5425483646295
  0
LWPOLYLINE
  5
18B
100
AcDbEntity
  8
Incisione
  6
ByLayer
 62
  256
370
   70
100
AcDbPolyline
 90
    2
 70
    0
 43
0
 10
95.90074027967921
 20
184.5425483646295
 10
95.99752265598249
 20
184.5460044993916
  0
LWPOLYLINE
  5
18C
100
AcDbEntity
  8
Incisione
  6
ByLayer
 62
  256
370
   70
100
AcDbPolyline
 90
    2
 70
    0
 43
0
 10
95.99752265598249
 20
184.5460044993916
 10
96.0937466656593
 20
184.547147937181
  0
LWPOLYLINE
  5
18D
100
AcDbEntity
  8
Incisione
  6
ByLayer
 62
  256
370
   70
100
AcDbPolyline
 90
    2
 70
    0
 43
0
 10
96.0937466656593
 20
184.547147937181
 10
96.22935560872179
 20
184.5450046352839
  0
LWPOLYLINE
  5
18E
100
AcDbEntity
  8
Incisione
  6
ByLayer
 62
  256
370
   70
100
AcDbPolyline
 90
    2
 70
    0
 43
0
 10
96.22935560872179
 20
184.5450046352839
 10
96.36479716480562
 20
184.5384756494541
  0
LWPOLYLINE
  5
18F
100
AcDbEntity
  8
Incisione
  6
ByLayer
 62
  256
370
   70
100
AcDbPolyline
 90
    2
 70
    0
 43
0
 10
96.36479716480562
 20
184.5384756494541
 10
96.49979998848403
 20
184.5274123594834
  0
LWPOLYLINE
  5
190
100
AcDbEntity
  8
Incisione
  6
ByLayer
 62
  256
370
   70
100
AcDbPolyline
 90
    2
 70
    0
 43
0
 10
96.49979998848403
 20
184.5274123594834
 10
96.56705208022527
 20
184.5201339066301
  0
LWPOLYLINE
  5
191
100
AcDbEntity
  8
Incisione
  6
ByLayer
 62
  256
370
   70
100
AcDbPolyline
 90
    2
 70
    0
 43
0
 10
96.56705208022527
 20
184.5201339066301
 10
96.63409273433035
 20
184.5116661451638
  0
LWPOLYLINE
  5
192
100
AcDbEntity
  8
Incisione
  6
ByLayer
 62
  256
370
   70
100
AcDbPolyline
 90
    2
 70
    0
 43
0
 10
96.63409273433035
 20
184.5116661451638
 10
96.70088803262081
 20
184.501990497558
  0
LWPOLYLINE
  5
193
100
AcDbEntity
  8
Incisione
  6
ByLayer
 62
  256
370
   70
100
AcDbPolyline
 90
    2
 70
    0
 43
0
 10
96.70088803262081
 20
184.501990497558
 10
96.76740405691828
 20
184.4910883862871
  0
LWPOLYLINE
  5
194
100
AcDbEntity
  8
Incisione
  6
ByLayer
 62
  256
370
   70
100
AcDbPolyline
 90
    2
 70
    0
 43
0
 10
96.76740405691828
 20
184.4910883862871
 10
96.8336068890444
 20
184.4789412338249
  0
LWPOLYLINE
  5
195
100
AcDbEntity
  8
Incisione
  6
ByLayer
 62
  256
370
   70
100
AcDbPolyline
 90
    2
 70
    0
 43
0
 10
96.8336068890444
 20
184.4789412338249
 10
96.89946261082105
 20
184.4655304626455
  0
LWPOLYLINE
  5
196
100
AcDbEntity
  8
Incisione
  6
ByLayer
 62
  256
370
   70
100
AcDbPolyline
 90
    2
 70
    0
 43
0
 10
96.89946261082105
 20
184.4655304626455
 10
96.96493730406974
 20
184.4508374952227
  0
LWPOLYLINE
  5
197
100
AcDbEntity
  8
Incisione
  6
ByLayer
 62
  256
370
   70
100
AcDbPolyline
 90
    2
 70
    0
 43
0
 10
96.96493730406974
 20
184.4508374952227
 10
97.02999705061211
 20
184.4348437540307
  0
LWPOLYLINE
  5
198
100
AcDbEntity
  8
Incisione
  6
ByLayer
 62
  256
370
   70
100
AcDbPolyline
 90
    2
 70
    0
 43
0
 10
97.02999705061211
 20
184.4348437540307
 10
97.09460793227004
 20
184.4175306615433
  0
LWPOLYLINE
  5
199
100
AcDbEntity
  8
Incisione
  6
ByLayer
 62
  256
370
   70
100
AcDbPolyline
 90
    2
 70
    0
 43
0
 10
97.09460793227004
 20
184.4175306615433
 10
97.15873603086493
 20
184.3988796402346
  0
LWPOLYLINE
  5
19A
100
AcDbEntity
  8
Incisione
  6
ByLayer
 62
  256
370
   70
100
AcDbPolyline
 90
    2
 70
    0
 43
0
 10
97.15873603086493
 20
184.3988796402346
 10
97.22234742821865
 20
184.3788721125785
  0
LWPOLYLINE
  5
19B
100
AcDbEntity
  8
Incisione
  6
ByLayer
 62
  256
370
   70
100
AcDbPolyline
 90
    2
 70
    0
 43
0
 10
97.22234742821865
 20
184.3788721125785
 10
97.28540820615285
 20
184.3574895010491
  0
LWPOLYLINE
  5
19C
100
AcDbEntity
  8
Incisione
  6
ByLayer
 62
  256
370
   70
100
AcDbPolyline
 90
    2
 70
    0
 43
0
 10
97.28540820615285
 20
184.3574895010491
 10
97.34788444648939
 20
184.3347132281204
  0
LWPOLYLINE
  5
19D
100
AcDbEntity
  8
Incisione
  6
ByLayer
 62
  256
370
   70
100
AcDbPolyline
 90
    2
 70
    0
 43
0
 10
97.34788444648939
 20
184.3347132281204
 10
97.40974223104945
 20
184.3105247162665
  0
LWPOLYLINE
  5
19E
100
AcDbEntity
  8
Incisione
  6
ByLayer
 62
  256
370
   70
100
AcDbPolyline
 90
    2
 70
    0
 43
0
 10
97.40974223104945
 20
184.3105247162665
 10
97.47094764165513
 20
184.2849053879612
  0
LWPOLYLINE
  5
19F
100
AcDbEntity
  8
Incisione
  6
ByLayer
 62
  256
370
   70
100
AcDbPolyline
 90
    2
 70
    0
 43
0
 10
97.47094764165513
 20
184.2849053879612
 10
97.53146676012807
 20
184.2578366656784
  0
LWPOLYLINE
  5
1A0
100
AcDbEntity
  8
Incisione
  6
ByLayer
 62
  256
370
   70
100
AcDbPolyline
 90
    2
 70
    0
 43
0
 10
97.53146676012807
 20
184.2578366656784
 10
97.59126566828991
 20
184.2292999718924
  0
LWPOLYLINE
  5
1A1
100
AcDbEntity
  8
Incisione
  6
ByLayer
 62
  256
370
   70
100
AcDbPolyline
 90
    2
 70
    0
 43
0
 10
97.59126566828991
 20
184.2292999718924
 10
97.65031044796228
 20
184.199276729077
  0
LWPOLYLINE
  5
1A2
100
AcDbEntity
  8
Incisione
  6
ByLayer
 62
  256
370
   70
100
AcDbPolyline
 90
    2
 70
    0
 43
0
 10
97.65031044796228
 20
184.199276729077
 10
97.70856718096684
 20
184.1677483597061
  0
LWPOLYLINE
  5
1A3
100
AcDbEntity
  8
Incisione
  6
ByLayer
 62
  256
370
   70
100
AcDbPolyline
 90
    2
 70
    0
 43
0
 10
97.70856718096684
 20
184.1677483597061
 10
97.76600194912544
 20
184.1346962862539
  0
LWPOLYLINE
  5
1A4
100
AcDbEntity
  8
Incisione
  6
ByLayer
 62
  256
370
   70
100
AcDbPolyline
 90
    2
 70
    0
 43
0
 10
97.76600194912544
 20
184.1346962862539
 10
97.82258083425938
 20
184.1001019311943
  0
LWPOLYLINE
  5
1A5
100
AcDbEntity
  8
Incisione
  6
ByLayer
 62
  256
370
   70
100
AcDbPolyline
 90
    2
 70
    0
 43
0
 10
97.82258083425938
 20
184.1001019311943
 10
97.87826991819065
 20
184.0639467170013
  0
LWPOLYLINE
  5
1A6
100
AcDbEntity
  8
Incisione
  6
ByLayer
 62
  256
370
   70
100
AcDbPolyline
 90
    2
 70
    0
 43
0
 10
97.87826991819065
 20
184.0639467170013
 10
97.93303528274089
 20
184.0262120661488
  0
LWPOLYLINE
  5
1A7
100
AcDbEntity
  8
Incisione
  6
ByLayer
 62
  256
370
   70
100
AcDbPolyline
 90
    2
 70
    0
 43
0
 10
97.93303528274089
 20
184.0262120661488
 10
97.98684300973173
 20
183.986879401111
  0
LWPOLYLINE
  5
1A8
100
AcDbEntity
  8
Incisione
  6
ByLayer
 62
  256
370
   70
100
AcDbPolyline
 90
    2
 70
    0
 43
0
 10
97.98684300973173
 20
183.986879401111
 10
98.03965918098493
 20
183.9459301443616
  0
LWPOLYLINE
  5
1A9
100
AcDbEntity
  8
Incisione
  6
ByLayer
 62
  256
370
   70
100
AcDbPolyline
 90
    2
 70
    0
 43
0
 10
98.03965918098493
 20
183.9459301443616
 10
98.09144987832201
 20
183.9033457183749
  0
LWPOLYLINE
  5
1AA
100
AcDbEntity
  8
Incisione
  6
ByLayer
 62
  256
370
   70
100
AcDbPolyline
 90
    2
 70
    0
 43
0
 10
98.09144987832201
 20
183.9033457183749
 10
98.14218118356484
 20
183.8591075456249
  0
LWPOLYLINE
  5
1AB
100
AcDbEntity
  8
Incisione
  6
ByLayer
 62
  256
370
   70
100
AcDbPolyline
 90
    2
 70
    0
 43
0
 10
98.14218118356484
 20
183.8591075456249
 10
98.19181917853484
 20
183.8131970485852
  0
LWPOLYLINE
  5
1AC
100
AcDbEntity
  8
Incisione
  6
ByLayer
 62
  256
370
   70
100
AcDbPolyline
 90
    2
 70
    0
 43
0
 10
98.19181917853484
 20
183.8131970485852
 10
98.24032994505399
 20
183.76559564973
  0
LWPOLYLINE
  5
1AD
100
AcDbEntity
  8
Incisione
  6
ByLayer
 62
  256
370
   70
100
AcDbPolyline
 90
    2
 70
    0
 43
0
 10
98.24032994505399
 20
183.76559564973
 10
98.2876795649438
 20
183.7162847715334
  0
LWPOLYLINE
  5
1AE
100
AcDbEntity
  8
Incisione
  6
ByLayer
 62
  256
370
   70
100
AcDbPolyline
 90
    2
 70
    0
 43
0
 10
98.2876795649438
 20
183.7162847715334
 10
98.33383412002593
 20
183.6652458364694
  0
LWPOLYLINE
  5
1AF
100
AcDbEntity
  8
Incisione
  6
ByLayer
 62
  256
370
   70
100
AcDbPolyline
 90
    2
 70
    0
 43
0
 10
98.33383412002593
 20
183.6652458364694
 10
98.37875969212212
 20
183.6124602670117
  0
LWPOLYLINE
  5
1B0
100
AcDbEntity
  8
Incisione
  6
ByLayer
 62
  256
370
   70
100
AcDbPolyline
 90
    2
 70
    0
 43
0
 10
98.37875969212212
 20
183.6124602670117
 10
98.42242236305401
 20
183.5579094856347
  0
LWPOLYLINE
  5
1B1
100
AcDbEntity
  8
Incisione
  6
ByLayer
 62
  256
370
   70
100
AcDbPolyline
 90
    2
 70
    0
 43
0
 10
98.42242236305401
 20
183.5579094856347
 10
98.46478821464336
 20
183.501574914812
  0
LWPOLYLINE
  5
1B2
100
AcDbEntity
  8
Incisione
  6
ByLayer
 62
  256
370
   70
100
AcDbPolyline
 90
    2
 70
    0
 43
0
 10
98.46478821464336
 20
183.501574914812
 10
98.50582332871181
 20
183.4434379770179
  0
LWPOLYLINE
  5
1B3
100
AcDbEntity
  8
Incisione
  6
ByLayer
 62
  256
370
   70
100
AcDbPolyline
 90
    2
 70
    0
 43
0
 10
98.50582332871181
 20
183.4434379770179
 10
98.545493787081
 20
183.3834800947262
  0
LWPOLYLINE
  5
1B4
100
AcDbEntity
  8
Incisione
  6
ByLayer
 62
  256
370
   70
100
AcDbPolyline
 90
    2
 70
    0
 43
0
 10
98.545493787081
 20
183.3834800947262
 10
98.58376567157268
 20
183.321682690411
  0
LWPOLYLINE
  5
1B5
100
AcDbEntity
  8
Incisione
  6
ByLayer
 62
  256
370
   70
100
AcDbPolyline
 90
    2
 70
    0
 43
0
 10
98.58376567157268
 20
183.321682690411
 10
98.62060506400837
 20
183.2580271865463
  0
LWPOLYLINE
  5
1B6
100
AcDbEntity
  8
Incisione
  6
ByLayer
 62
  256
370
   70
100
AcDbPolyline
 90
    2
 70
    0
 43
0
 10
98.62060506400837
 20
183.2580271865463
 10
98.65597804620984
 20
183.192495005606
  0
LWPOLYLINE
  5
1B7
100
AcDbEntity
  8
Incisione
  6
ByLayer
 62
  256
370
   70
100
AcDbPolyline
 90
    2
 70
    0
 43
0
 10
98.65597804620984
 20
183.192495005606
 10
98.68985069999894
 20
183.1250675700641
  0
LWPOLYLINE
  5
1B8
100
AcDbEntity
  8
Incisione
  6
ByLayer
 62
  256
370
   70
100
AcDbPolyline
 90
    2
 70
    0
 43
0
 10
98.68985069999894
 20
183.1250675700641
 10
98.7221891071971
 20
183.0557263023946
  0
LWPOLYLINE
  5
1B9
100
AcDbEntity
  8
Incisione
  6
ByLayer
 62
  256
370
   70
100
AcDbPolyline
 90
    2
 70
    0
 43
0
 10
98.7221891071971
 20
183.0557263023946
 10
98.75295934962605
 20
182.9844526250716
  0
LWPOLYLINE
  5
1BA
100
AcDbEntity
  8
Incisione
  6
ByLayer
 62
  256
370
   70
100
AcDbPolyline
 90
    2
 70
    0
 43
0
 10
98.75295934962605
 20
182.9844526250716
 10
98.78212750910757
 20
182.911227960569
  0
LWPOLYLINE
  5
1BB
100
AcDbEntity
  8
Incisione
  6
ByLayer
 62
  256
370
   70
100
AcDbPolyline
 90
    2
 70
    0
 43
0
 10
98.78212750910757
 20
182.911227960569
 10
98.80965966746317
 20
182.8360337313609
  0
LWPOLYLINE
  5
1BC
100
AcDbEntity
  8
Incisione
  6
ByLayer
 62
  256
370
   70
100
AcDbPolyline
 90
    2
 70
    0
 43
0
 10
98.80965966746317
 20
182.8360337313609
 10
98.83552190651471
 20
182.7588513599211
  0
LWPOLYLINE
  5
1BD
100
AcDbEntity
  8
Incisione
  6
ByLayer
 62
  256
370
   70
100
AcDbPolyline
 90
    2
 70
    0
 43
0
 10
98.83552190651471
 20
182.7588513599211
 10
98.85968030808385
 20
182.6796622687237
  0
LWPOLYLINE
  5
1BE
100
AcDbEntity
  8
Incisione
  6
ByLayer
 62
  256
370
   70
100
AcDbPolyline
 90
    2
 70
    0
 43
0
 10
98.85968030808385
 20
182.6796622687237
 10
98.88210095399222
 20
182.5984478802428
  0
LWPOLYLINE
  5
1BF
100
AcDbEntity
  8
Incisione
  6
ByLayer
 62
  256
370
   70
100
AcDbPolyline
 90
    2
 70
    0
 43
0
 10
98.88210095399222
 20
182.5984478802428
 10
98.90274992606135
 20
182.5151896169521
  0
LWPOLYLINE
  5
1C0
100
AcDbEntity
  8
Incisione
  6
ByLayer
 62
  256
370
   70
100
AcDbPolyline
 90
    2
 70
    0
 43
0
 10
98.90274992606135
 20
182.5151896169521
 10
98.92159330611321
 20
182.4298689013258
  0
LWPOLYLINE
  5
1C1
100
AcDbEntity
  8
Incisione
  6
ByLayer
 62
  256
370
   70
100
AcDbPolyline
 90
    2
 70
    0
 43
0
 10
98.92159330611321
 20
182.4298689013258
 10
98.93859717596933
 20
182.3424671558378
  0
LWPOLYLINE
  5
1C2
100
AcDbEntity
  8
Incisione
  6
ByLayer
 62
  256
370
   70
100
AcDbPolyline
 90
    2
 70
    0
 43
0
 10
98.93859717596933
 20
182.3424671558378
 10
98.95372761745136
 20
182.2529658029623
  0
LWPOLYLINE
  5
1C3
100
AcDbEntity
  8
Incisione
  6
ByLayer
 62
  256
370
   70
100
AcDbPolyline
 90
    2
 70
    0
 43
0
 10
98.95372761745136
 20
182.2529658029623
 10
98.96695071238105
 20
182.1613462651731
  0
LWPOLYLINE
  5
1C4
100
AcDbEntity
  8
Incisione
  6
ByLayer
 62
  256
370
   70
100
AcDbPolyline
 90
    2
 70
    0
 43
0
 10
98.96695071238105
 20
182.1613462651731
 10
98.97823254257992
 20
182.0675899649442
  0
LWPOLYLINE
  5
1C5
100
AcDbEntity
  8
Incisione
  6
ByLayer
 62
  256
370
   70
100
AcDbPolyline
 90
    2
 70
    0
 43
0
 10
98.97823254257992
 20
182.0675899649442
 10
98.98753918986984
 20
181.9716783247495
  0
LWPOLYLINE
  5
1C6
100
AcDbEntity
  8
Incisione
  6
ByLayer
 62
  256
370
   70
100
AcDbPolyline
 90
    2
 70
    0
 43
0
 10
98.98753918986984
 20
181.9716783247495
 10
98.99483673607233
 20
181.8735927670631
  0
LWPOLYLINE
  5
1C7
100
AcDbEntity
  8
Incisione
  6
ByLayer
 62
  256
370
   70
100
AcDbPolyline
 90
    2
 70
    0
 43
0
 10
98.99483673607233
 20
181.8735927670631
 10
99.00009126300927
 20
181.7733147143591
  0
LWPOLYLINE
  5
1C8
100
AcDbEntity
  8
Incisione
  6
ByLayer
 62
  256
370
   70
100
AcDbPolyline
 90
    2
 70
    0
 43
0
 10
99.00009126300927
 20
181.7733147143591
 10
99.00326885250229
 20
181.6708255891115
  0
LWPOLYLINE
  5
1C9
100
AcDbEntity
  8
Incisione
  6
ByLayer
 62
  256
370
   70
100
AcDbPolyline
 90
    2
 70
    0
 43
0
 10
99.00326885250229
 20
181.6708255891115
 10
99.0043355863728
 20
181.5661068137941
  0
LWPOLYLINE
  5
1CA
100
AcDbEntity
  8
Incisione
  6
ByLayer
 62
  256
370
   70
100
AcDbPolyline
 90
    2
 70
    0
 43
0
 10
99.0043355863728
 20
181.5661068137941
 10
99.0043355863728
 20
175.8506934037647
  0
LWPOLYLINE
  5
1CB
100
AcDbEntity
  8
Incisione
  6
ByLayer
 62
  256
370
   70
100
AcDbPolyline
 90
    2
 70
    0
 43
0
 10
99.0043355863728
 20
175.8506934037647
 10
96.76398999231481
 20
175.8506934037647
  0
LWPOLYLINE
  5
1CC
100
AcDbEntity
  8
Incisione
  6
ByLayer
 62
  256
370
   70
100
AcDbPolyline
 90
    2
 70
    0
 43
0
 10
96.76398999231481
 20
175.8506934037647
 10
96.76398999231481
 20
180.8252390296913
  0
LWPOLYLINE
  5
1CD
100
AcDbEntity
  8
Incisione
  6
ByLayer
 62
  256
370
   70
100
AcDbPolyline
 90
    2
 70
    0
 43
0
 10
96.76398999231481
 20
180.8252390296913
 10
96.76219261930191
 20
180.9511426925748
  0
LWPOLYLINE
  5
1CE
100
AcDbEntity
  8
Incisione
  6
ByLayer
 62
  256
370
   70
100
AcDbPolyline
 90
    2
 70
    0
 43
0
 10
96.76219261930191
 20
180.9511426925748
 10
96.75684570873045
 20
181.0709817867515
  0
LWPOLYLINE
  5
1CF
100
AcDbEntity
  8
Incisione
  6
ByLayer
 62
  256
370
   70
100
AcDbPolyline
 90
    2
 70
    0
 43
0
 10
96.75684570873045
 20
181.0709817867515
 10
96.74801707330164
 20
181.1848919060827
  0
LWPOLYLINE
  5
1D0
100
AcDbEntity
  8
Incisione
  6
ByLayer
 62
  256
370
   70
100
AcDbPolyline
 90
    2
 70
    0
 43
0
 10
96.74801707330164
 20
181.1848919060827
 10
96.74231830023473
 20
181.239665973263
  0
LWPOLYLINE
  5
1D1
100
AcDbEntity
  8
Incisione
  6
ByLayer
 62
  256
370
   70
100
AcDbPolyline
 90
    2
 70
    0
 43
0
 10
96.74231830023473
 20
181.239665973263
 10
96.73577452571658
 20
181.2930086444297
  0
LWPOLYLINE
  5
1D2
100
AcDbEntity
  8
Incisione
  6
ByLayer
 62
  256
370
   70
100
AcDbPolyline
 90
    2
 70
    0
 43
0
 10
96.73577452571658
 20
181.2930086444297
 10
96.72839422633444
 20
181.3449368688158
  0
LWPOLYLINE
  5
1D3
100
AcDbEntity
  8
Incisione
  6
ByLayer
 62
  256
370
   70
100
AcDbPolyline
 90
    2
 70
    0
 43
0
 10
96.72839422633444
 20
181.3449368688158
 10
96.72018587867603
 20
181.3954675956538
  0
LWPOLYLINE
  5
1D4
100
AcDbEntity
  8
Incisione
  6
ByLayer
 62
  256
370
   70
100
AcDbPolyline
 90
    2
 70
    0
 43
0
 10
96.72018587867603
 20
181.3954675956538
 10
96.71115795932917
 20
181.4446177741764
  0
LWPOLYLINE
  5
1D5
100
AcDbEntity
  8
Incisione
  6
ByLayer
 62
  256
370
   70
100
AcDbPolyline
 90
    2
 70
    0
 43
0
 10
96.71115795932917
 20
181.4446177741764
 10
96.70131894488134
 20
181.4924043536163
  0
LWPOLYLINE
  5
1D6
100
AcDbEntity
  8
Incisione
  6
ByLayer
 62
  256
370
   70
100
AcDbPolyline
 90
    2
 70
    0
 43
0
 10
96.70131894488134
 20
181.4924043536163
 10
96.69067731192013
 20
181.5388442832062
  0
LWPOLYLINE
  5
1D7
100
AcDbEntity
  8
Incisione
  6
ByLayer
 62
  256
370
   70
100
AcDbPolyline
 90
    2
 70
    0
 43
0
 10
96.69067731192013
 20
181.5388442832062
 10
96.67924153703336
 20
181.5839545121786
  0
LWPOLYLINE
  5
1D8
100
AcDbEntity
  8
Incisione
  6
ByLayer
 62
  256
370
   70
100
AcDbPolyline
 90
    2
 70
    0
 43
0
 10
96.67924153703336
 20
181.5839545121786
 10
96.66702009680853
 20
181.6277519897664
  0
LWPOLYLINE
  5
1D9
100
AcDbEntity
  8
Incisione
  6
ByLayer
 62
  256
370
   70
100
AcDbPolyline
 90
    2
 70
    0
 43
0
 10
96.66702009680853
 20
181.6277519897664
 10
96.65402146783333
 20
181.6702536652018
  0
LWPOLYLINE
  5
1DA
100
AcDbEntity
  8
Incisione
  6
ByLayer
 62
  256
370
   70
100
AcDbPolyline
 90
    2
 70
    0
 43
0
 10
96.65402146783333
 20
181.6702536652018
 10
96.64025412669525
 20
181.711476487718
  0
LWPOLYLINE
  5
1DB
100
AcDbEntity
  8
Incisione
  6
ByLayer
 62
  256
370
   70
100
AcDbPolyline
 90
    2
 70
    0
 43
0
 10
96.64025412669525
 20
181.711476487718
 10
96.62572654998212
 20
181.7514374065474
  0
LWPOLYLINE
  5
1DC
100
AcDbEntity
  8
Incisione
  6
ByLayer
 62
  256
370
   70
100
AcDbPolyline
 90
    2
 70
    0
 43
0
 10
96.62572654998212
 20
181.7514374065474
 10
96.61044721428129
 20
181.7901533709227
  0
LWPOLYLINE
  5
1DD
100
AcDbEntity
  8
Incisione
  6
ByLayer
 62
  256
370
   70
100
AcDbPolyline
 90
    2
 70
    0
 43
0
 10
96.61044721428129
 20
181.7901533709227
 10
96.59442459618072
 20
181.8276413300765
  0
LWPOLYLINE
  5
1DE
100
AcDbEntity
  8
Incisione
  6
ByLayer
 62
  256
370
   70
100
AcDbPolyline
 90
    2
 70
    0
 43
0
 10
96.59442459618072
 20
181.8276413300765
 10
96.57766717226787
 20
181.8639182332416
  0
LWPOLYLINE
  5
1DF
100
AcDbEntity
  8
Incisione
  6
ByLayer
 62
  256
370
   70
100
AcDbPolyline
 90
    2
 70
    0
 43
0
 10
96.57766717226787
 20
181.8639182332416
 10
96.56018341913045
 20
181.8990010296507
  0
LWPOLYLINE
  5
1E0
100
AcDbEntity
  8
Incisione
  6
ByLayer
 62
  256
370
   70
100
AcDbPolyline
 90
    2
 70
    0
 43
0
 10
96.56018341913045
 20
181.8990010296507
 10
96.54198181335596
 20
181.9329066685362
  0
LWPOLYLINE
  5
1E1
100
AcDbEntity
  8
Incisione
  6
ByLayer
 62
  256
370
   70
100
AcDbPolyline
 90
    2
 70
    0
 43
0
 10
96.54198181335596
 20
181.9329066685362
 10
96.5230708315321
 20
181.9656520991311
  0
LWPOLYLINE
  5
1E2
100
AcDbEntity
  8
Incisione
  6
ByLayer
 62
  256
370
   70
100
AcDbPolyline
 90
    2
 70
    0
 43
0
 10
96.5230708315321
 20
181.9656520991311
 10
96.50345895024645
 20
181.9972542706679
  0
LWPOLYLINE
  5
1E3
100
AcDbEntity
  8
Incisione
  6
ByLayer
 62
  256
370
   70
100
AcDbPolyline
 90
    2
 70
    0
 43
0
 10
96.50345895024645
 20
181.9972542706679
 10
96.48315464608686
 20
182.0277301323791
  0
LWPOLYLINE
  5
1E4
100
AcDbEntity
  8
Incisione
  6
ByLayer
 62
  256
370
   70
100
AcDbPolyline
 90
    2
 70
    0
 43
0
 10
96.48315464608686
 20
182.0277301323791
 10
96.46216639564079
 20
182.0570966334977
  0
LWPOLYLINE
  5
1E5
100
AcDbEntity
  8
Incisione
  6
ByLayer
 62
  256
370
   70
100
AcDbPolyline
 90
    2
 70
    0
 43
0
 10
96.46216639564079
 20
182.0570966334977
 10
96.44050267549585
 20
182.085370723256
  0
LWPOLYLINE
  5
1E6
100
AcDbEntity
  8
Incisione
  6
ByLayer
 62
  256
370
   70
100
AcDbPolyline
 90
    2
 70
    0
 43
0
 10
96.44050267549585
 20
182.085370723256
 10
96.41817196223963
 20
182.1125693508869
  0
LWPOLYLINE
  5
1E7
100
AcDbEntity
  8
Incisione
  6
ByLayer
 62
  256
370
   70
100
AcDbPolyline
 90
    2
 70
    0
 43
0
 10
96.41817196223963
 20
182.1125693508869
 10
96.39518273245994
 20
182.138709465623
  0
LWPOLYLINE
  5
1E8
100
AcDbEntity
  8
Incisione
  6
ByLayer
 62
  256
370
   70
100
AcDbPolyline
 90
    2
 70
    0
 43
0
 10
96.39518273245994
 20
182.138709465623
 10
96.37154346274428
 20
182.163808016697
  0
LWPOLYLINE
  5
1E9
100
AcDbEntity
  8
Incisione
  6
ByLayer
 62
  256
370
   70
100
AcDbPolyline
 90
    2
 70
    0
 43
0
 10
96.37154346274428
 20
182.163808016697
 10
96.34726262968024
 20
182.1878819533415
  0
LWPOLYLINE
  5
1EA
100
AcDbEntity
  8
Incisione
  6
ByLayer
 62
  256
370
   70
100
AcDbPolyline
 90
    2
 70
    0
 43
0
 10
96.34726262968024
 20
182.1878819533415
 10
96.32234870985565
 20
182.2109482247893
  0
LWPOLYLINE
  5
1EB
100
AcDbEntity
  8
Incisione
  6
ByLayer
 62
  256
370
   70
100
AcDbPolyline
 90
    2
 70
    0
 43
0
 10
96.32234870985565
 20
182.2109482247893
 10
96.29681017985786
 20
182.2330237802728
  0
LWPOLYLINE
  5
1EC
100
AcDbEntity
  8
Incisione
  6
ByLayer
 62
  256
370
   70
100
AcDbPolyline
 90
    2
 70
    0
 43
0
 10
96.29681017985786
 20
182.2330237802728
 10
96.2706555162747
 20
182.2541255690248
  0
LWPOLYLINE
  5
1ED
100
AcDbEntity
  8
Incisione
  6
ByLayer
 62
  256
370
   70
100
AcDbPolyline
 90
    2
 70
    0
 43
0
 10
96.2706555162747
 20
182.2541255690248
 10
96.24389319569389
 20
182.2742705402782
  0
LWPOLYLINE
  5
1EE
100
AcDbEntity
  8
Incisione
  6
ByLayer
 62
  256
370
   70
100
AcDbPolyline
 90
    2
 70
    0
 43
0
 10
96.24389319569389
 20
182.2742705402782
 10
96.21653169470278
 20
182.2934756432652
  0
LWPOLYLINE
  5
1EF
100
AcDbEntity
  8
Incisione
  6
ByLayer
 62
  256
370
   70
100
AcDbPolyline
 90
    2
 70
    0
 43
0
 10
96.21653169470278
 20
182.2934756432652
 10
96.18857948988921
 20
182.3117578272189
  0
LWPOLYLINE
  5
1F0
100
AcDbEntity
  8
Incisione
  6
ByLayer
 62
  256
370
   70
100
AcDbPolyline
 90
    2
 70
    0
 43
0
 10
96.18857948988921
 20
182.3117578272189
 10
96.16004505784076
 20
182.3291340413717
  0
LWPOLYLINE
  5
1F1
100
AcDbEntity
  8
Incisione
  6
ByLayer
 62
  256
370
   70
100
AcDbPolyline
 90
    2
 70
    0
 43
0
 10
96.16004505784076
 20
182.3291340413717
 10
96.13093687514493
 20
182.3456212349564
  0
LWPOLYLINE
  5
1F2
100
AcDbEntity
  8
Incisione
  6
ByLayer
 62
  256
370
   70
100
AcDbPolyline
 90
    2
 70
    0
 43
0
 10
96.13093687514493
 20
182.3456212349564
 10
96.10126341838964
 20
182.3612363572057
  0
LWPOLYLINE
  5
1F3
100
AcDbEntity
  8
Incisione
  6
ByLayer
 62
  256
370
   70
100
AcDbPolyline
 90
    2
 70
    0
 43
0
 10
96.10126341838964
 20
182.3612363572057
 10
96.07103316416215
 20
182.3759963573519
  0
LWPOLYLINE
  5
1F4
100
AcDbEntity
  8
Incisione
  6
ByLayer
 62
  256
370
   70
100
AcDbPolyline
 90
    2
 70
    0
 43
0
 10
96.07103316416215
 20
182.3759963573519
 10
96.04025458905039
 20
182.3899181846281
  0
LWPOLYLINE
  5
1F5
100
AcDbEntity
  8
Incisione
  6
ByLayer
 62
  256
370
   70
100
AcDbPolyline
 90
    2
 70
    0
 43
0
 10
96.04025458905039
 20
182.3899181846281
 10
96.00893616964174
 20
182.4030187882666
  0
LWPOLYLINE
  5
1F6
100
AcDbEntity
  8
Incisione
  6
ByLayer
 62
  256
370
   70
100
AcDbPolyline
 90
    2
 70
    0
 43
0
 10
96.00893616964174
 20
182.4030187882666
 10
95.97708638252413
 20
182.4153151175005
  0
LWPOLYLINE
  5
1F7
100
AcDbEntity
  8
Incisione
  6
ByLayer
 62
  256
370
   70
100
AcDbPolyline
 90
    2
 70
    0
 43
0
 10
95.97708638252413
 20
182.4153151175005
 10
95.94471370428505
 20
182.4268241215622
  0
LWPOLYLINE
  5
1F8
100
AcDbEntity
  8
Incisione
  6
ByLayer
 62
  256
370
   70
100
AcDbPolyline
 90
    2
 70
    0
 43
0
 10
95.94471370428505
 20
182.4268241215622
 10
95.9118266115122
 20
182.4375627496843
  0
LWPOLYLINE
  5
1F9
100
AcDbEntity
  8
Incisione
  6
ByLayer
 62
  256
370
   70
100
AcDbPolyline
 90
    2
 70
    0
 43
0
 10
95.9118266115122
 20
182.4375627496843
 10
95.87843358079294
 20
182.4475479510996
  0
LWPOLYLINE
  5
1FA
100
AcDbEntity
  8
Incisione
  6
ByLayer
 62
  256
370
   70
100
AcDbPolyline
 90
    2
 70
    0
 43
0
 10
95.87843358079294
 20
182.4475479510996
 10
95.84454308871523
 20
182.4567966750407
  0
LWPOLYLINE
  5
1FB
100
AcDbEntity
  8
Incisione
  6
ByLayer
 62
  256
370
   70
100
AcDbPolyline
 90
    2
 70
    0
 43
0
 10
95.84454308871523
 20
182.4567966750407
 10
95.81016361186653
 20
182.4653258707405
  0
LWPOLYLINE
  5
1FC
100
AcDbEntity
  8
Incisione
  6
ByLayer
 62
  256
370
   70
100
AcDbPolyline
 90
    2
 70
    0
 43
0
 10
95.81016361186653
 20
182.4653258707405
 10
95.77530362683456
 20
182.4731524874311
  0
LWPOLYLINE
  5
1FD
100
AcDbEntity
  8
Incisione
  6
ByLayer
 62
  256
370
   70
100
AcDbPolyline
 90
    2
 70
    0
 43
0
 10
95.77530362683456
 20
182.4731524874311
 10
95.73997161020679
 20
182.4802934743456
  0
LWPOLYLINE
  5
1FE
100
AcDbEntity
  8
Incisione
  6
ByLayer
 62
  256
370
   70
100
AcDbPolyline
 90
    2
 70
    0
 43
0
 10
95.73997161020679
 20
182.4802934743456
 10
95.70417603857095
 20
182.4867657807166
  0
LWPOLYLINE
  5
1FF
100
AcDbEntity
  8
Incisione
  6
ByLayer
 62
  256
370
   70
100
AcDbPolyline
 90
    2
 70
    0
 43
0
 10
95.70417603857095
 20
182.4867657807166
 10
95.66792538851485
 20
182.4925863557767
  0
LWPOLYLINE
  5
200
100
AcDbEntity
  8
Incisione
  6
ByLayer
 62
  256
370
   70
100
AcDbPolyline
 90
    2
 70
    0
 43
0
 10
95.66792538851485
 20
182.4925863557767
 10
95.63122813662585
 20
182.4977721487586
  0
LWPOLYLINE
  5
201
100
AcDbEntity
  8
Incisione
  6
ByLayer
 62
  256
370
   70
100
AcDbPolyline
 90
    2
 70
    0
 43
0
 10
95.63122813662585
 20
182.4977721487586
 10
95.59409275949179
 20
182.5023401088948
  0
LWPOLYLINE
  5
202
100
AcDbEntity
  8
Incisione
  6
ByLayer
 62
  256
370
   70
100
AcDbPolyline
 90
    2
 70
    0
 43
0
 10
95.59409275949179
 20
182.5023401088948
 10
95.51854153583861
 20
182.5096903275615
  0
LWPOLYLINE
  5
203
100
AcDbEntity
  8
Incisione
  6
ByLayer
 62
  256
370
   70
100
AcDbPolyline
 90
    2
 70
    0
 43
0
 10
95.51854153583861
 20
182.5096903275615
 10
95.4413395302563
 20
182.5147726056381
  0
LWPOLYLINE
  5
204
100
AcDbEntity
  8
Incisione
  6
ByLayer
 62
  256
370
   70
100
AcDbPolyline
 90
    2
 70
    0
 43
0
 10
95.4413395302563
 20
182.5147726056381
 10
95.36255455544597
 20
182.5177225369857
  0
LWPOLYLINE
  5
205
100
AcDbEntity
  8
Incisione
  6
ByLayer
 62
  256
370
   70
100
AcDbPolyline
 90
    2
 70
    0
 43
0
 10
95.36255455544597
 20
182.5177225369857
 10
95.2822544241086
 20
182.5186757154657
  0
LWPOLYLINE
  5
206
100
AcDbEntity
  8
Incisione
  6
ByLayer
 62
  256
370
   70
100
AcDbPolyline
 90
    2
 70
    0
 43
0
 10
95.2822544241086
 20
182.5186757154657
 10
95.21575859840243
 20
182.5175457298238
  0
LWPOLYLINE
  5
207
100
AcDbEntity
  8
Incisione
  6
ByLayer
 62
  256
370
   70
100
AcDbPolyline
 90
    2
 70
    0
 43
0
 10
95.21575859840243
 20
182.5175457298238
 10
95.14861016218583
 20
182.5141837600938
  0
LWPOLYLINE
  5
208
100
AcDbEntity
  8
Incisione
  6
ByLayer
 62
  256
370
   70
100
AcDbPolyline
 90
    2
 70
    0
 43
0
 10
95.14861016218583
 20
182.5141837600938
 10
95.08088017686146
 20
182.5086317870686
  0
LWPOLYLINE
  5
209
100
AcDbEntity
  8
Incisione
  6
ByLayer
 62
  256
370
   70
100
AcDbPolyline
 90
    2
 70
    0
 43
0
 10
95.08088017686146
 20
182.5086317870686
 10
95.01263970383161
 20
182.5009317915412
  0
LWPOLYLINE
  5
20A
100
AcDbEntity
  8
Incisione
  6
ByLayer
 62
  256
370
   70
100
AcDbPolyline
 90
    2
 70
    0
 43
0
 10
95.01263970383161
 20
182.5009317915412
 10
94.94395980449895
 20
182.4911257543048
  0
LWPOLYLINE
  5
20B
100
AcDbEntity
  8
Incisione
  6
ByLayer
 62
  256
370
   70
100
AcDbPolyline
 90
    2
 70
    0
 43
0
 10
94.94395980449895
 20
182.4911257543048
 10
94.87491154026611
 20
182.4792556561523
  0
LWPOLYLINE
  5
20C
100
AcDbEntity
  8
Incisione
  6
ByLayer
 62
  256
370
   70
100
AcDbPolyline
 90
    2
 70
    0
 43
0
 10
94.87491154026611
 20
182.4792556561523
 10
94.80556597253542
 20
182.465363477877
  0
LWPOLYLINE
  5
20D
100
AcDbEntity
  8
Incisione
  6
ByLayer
 62
  256
370
   70
100
AcDbPolyline
 90
    2
 70
    0
 43
0
 10
94.80556597253542
 20
182.465363477877
 10
94.73599416270963
 20
182.4494912002717
  0
LWPOLYLINE
  5
20E
100
AcDbEntity
  8
Incisione
  6
ByLayer
 62
  256
370
   70
100
AcDbPolyline
 90
    2
 70
    0
 43
0
 10
94.73599416270963
 20
182.4494912002717
 10
94.66626717219128
 20
182.4316808041298
  0
LWPOLYLINE
  5
20F
100
AcDbEntity
  8
Incisione
  6
ByLayer
 62
  256
370
   70
100
AcDbPolyline
 90
    2
 70
    0
 43
0
 10
94.66626717219128
 20
182.4316808041298
 10
94.59645606238269
 20
182.4119742702441
  0
LWPOLYLINE
  5
210
100
AcDbEntity
  8
Incisione
  6
ByLayer
 62
  256
370
   70
100
AcDbPolyline
 90
    2
 70
    0
 43
0
 10
94.59645606238269
 20
182.4119742702441
 10
94.52663189468672
 20
182.3904135794077
  0
LWPOLYLINE
  5
211
100
AcDbEntity
  8
Incisione
  6
ByLayer
 62
  256
370
   70
100
AcDbPolyline
 90
    2
 70
    0
 43
0
 10
94.52663189468672
 20
182.3904135794077
 10
94.45686573050568
 20
182.3670407124138
  0
LWPOLYLINE
  5
212
100
AcDbEntity
  8
Incisione
  6
ByLayer
 62
  256
370
   70
100
AcDbPolyline
 90
    2
 70
    0
 43
0
 10
94.45686573050568
 20
182.3670407124138
 10
94.38722863124212
 20
182.3418976500553
  0
LWPOLYLINE
  5
213
100
AcDbEntity
  8
Incisione
  6
ByLayer
 62
  256
370
   70
100
AcDbPolyline
 90
    2
 70
    0
 43
0
 10
94.38722863124212
 20
182.3418976500553
 10
94.31779165829869
 20
182.3150263731255
  0
LWPOLYLINE
  5
214
100
AcDbEntity
  8
Incisione
  6
ByLayer
 62
  256
370
   70
100
AcDbPolyline
 90
    2
 70
    0
 43
0
 10
94.31779165829869
 20
182.3150263731255
 10
94.24862587307791
 20
182.2864688624173
  0
LWPOLYLINE
  5
215
100
AcDbEntity
  8
Incisione
  6
ByLayer
 62
  256
370
   70
100
AcDbPolyline
 90
    2
 70
    0
 43
0
 10
94.24862587307791
 20
182.2864688624173
 10
94.17980233698222
 20
182.2562670987237
  0
LWPOLYLINE
  5
216
100
AcDbEntity
  8
Incisione
  6
ByLayer
 62
  256
370
   70
100
AcDbPolyline
 90
    2
 70
    0
 43
0
 10
94.17980233698222
 20
182.2562670987237
 10
94.11139211141426
 20
182.2244630628378
  0
LWPOLYLINE
  5
217
100
AcDbEntity
  8
Incisione
  6
ByLayer
 62
  256
370
   70
100
AcDbPolyline
 90
    2
 70
    0
 43
0
 10
94.11139211141426
 20
182.2244630628378
 10
94.04346625777646
 20
182.1910987355528
  0
LWPOLYLINE
  5
218
100
AcDbEntity
  8
Incisione
  6
ByLayer
 62
  256
370
   70
100
AcDbPolyline
 90
    2
 70
    0
 43
0
 10
94.04346625777646
 20
182.1910987355528
 10
93.97609583747146
 20
182.1562160976619
  0
LWPOLYLINE
  5
219
100
AcDbEntity
  8
Incisione
  6
ByLayer
 62
  256
370
   70
100
AcDbPolyline
 90
    2
 70
    0
 43
0
 10
93.97609583747146
 20
182.1562160976619
 10
93.90935191190181
 20
182.1198571299577
  0
LWPOLYLINE
  5
21A
100
AcDbEntity
  8
Incisione
  6
ByLayer
 62
  256
370
   70
100
AcDbPolyline
 90
    2
 70
    0
 43
0
 10
93.90935191190181
 20
182.1198571299577
 10
93.84330554246992
 20
182.0820638132337
  0
LWPOLYLINE
  5
21B
100
AcDbEntity
  8
Incisione
  6
ByLayer
 62
  256
370
   70
100
AcDbPolyline
 90
    2
 70
    0
 43
0
 10
93.84330554246992
 20
182.0820638132337
 10
93.77802779057856
 20
182.0428781282828
  0
LWPOLYLINE
  5
21C
100
AcDbEntity
  8
Incisione
  6
ByLayer
 62
  256
370
   70
100
AcDbPolyline
 90
    2
 70
    0
 43
0
 10
93.77802779057856
 20
182.0428781282828
 10
93.71358971763016
 20
182.0023420558981
  0
LWPOLYLINE
  5
21D
100
AcDbEntity
  8
Incisione
  6
ByLayer
 62
  256
370
   70
100
AcDbPolyline
 90
    2
 70
    0
 43
0
 10
93.71358971763016
 20
182.0023420558981
 10
93.65006238502724
 20
181.9604975768725
  0
LWPOLYLINE
  5
21E
100
AcDbEntity
  8
Incisione
  6
ByLayer
 62
  256
370
   70
100
AcDbPolyline
 90
    2
 70
    0
 43
0
 10
93.65006238502724
 20
181.9604975768725
 10
93.58751685417235
 20
181.9173866719992
  0
LWPOLYLINE
  5
21F
100
AcDbEntity
  8
Incisione
  6
ByLayer
 62
  256
370
   70
100
AcDbPolyline
 90
    2
 70
    0
 43
0
 10
93.58751685417235
 20
181.9173866719992
 10
93.52602418646802
 20
181.8730513220714
  0
LWPOLYLINE
  5
220
100
AcDbEntity
  8
Incisione
  6
ByLayer
 62
  256
370
   70
100
AcDbPolyline
 90
    2
 70
    0
 43
0
 10
93.52602418646802
 20
181.8730513220714
 10
93.46565544331679
 20
181.8275335078821
  0
LWPOLYLINE
  5
221
100
AcDbEntity
  8
Incisione
  6
ByLayer
 62
  256
370
   70
100
AcDbPolyline
 90
    2
 70
    0
 43
0
 10
93.46565544331679
 20
181.8275335078821
 10
93.4064816861212
 20
181.7808752102242
  0
LWPOLYLINE
  5
222
100
AcDbEntity
  8
Incisione
  6
ByLayer
 62
  256
370
   70
100
AcDbPolyline
 90
    2
 70
    0
 43
0
 10
93.4064816861212
 20
181.7808752102242
 10
93.34857397628389
 20
181.7331184098908
  0
LWPOLYLINE
  5
223
100
AcDbEntity
  8
Incisione
  6
ByLayer
 62
  256
370
   70
100
AcDbPolyline
 90
    2
 70
    0
 43
0
 10
93.34857397628389
 20
181.7331184098908
 10
93.29200337520706
 20
181.6843050876752
  0
LWPOLYLINE
  5
224
100
AcDbEntity
  8
Incisione
  6
ByLayer
 62
  256
370
   70
100
AcDbPolyline
 90
    2
 70
    0
 43
0
 10
93.29200337520706
 20
181.6843050876752
 10
93.23684094429382
 20
181.6344772243702
  0
LWPOLYLINE
  5
225
100
AcDbEntity
  8
Incisione
  6
ByLayer
 62
  256
370
   70
100
AcDbPolyline
 90
    2
 70
    0
 43
0
 10
93.23684094429382
 20
181.6344772243702
 10
93.18315774494624
 20
181.583676800769
  0
LWPOLYLINE
  5
226
100
AcDbEntity
  8
Incisione
  6
ByLayer
 62
  256
370
   70
100
AcDbPolyline
 90
    2
 70
    0
 43
0
 10
93.18315774494624
 20
181.583676800769
 10
93.18315774494624
 20
175.8506934037647
  0
LWPOLYLINE
  5
227
100
AcDbEntity
  8
Incisione
  6
ByLayer
 62
  256
370
  211
100
AcDbPolyline
 90
    2
 70
    0
 43
0
 10
0.994481937276646
 20
211.9886162484436
 10
64.47205240174651
 20
211.9886162484436
  0
LWPOLYLINE
  5
228
100
AcDbEntity
  8
Incisione
  6
ByLayer
 62
  256
370
  211
100
AcDbPolyline
 90
    2
 70
    0
 43
0
 10
0.7405716554188757
 20
211.9462978681336
 10
0.994481937276646
 20
211.9886162484436
  0
LWPOLYLINE
  5
229
100
AcDbEntity
  8
Incisione
  6
ByLayer
 62
  256
370
  211
100
AcDbPolyline
 90
    2
 70
    0
 43
0
 10
0.5078205637158817
 20
211.8405019173597
 10
0.7405716554188757
 20
211.9462978681336
  0
LWPOLYLINE
  5
22A
100
AcDbEntity
  8
Incisione
  6
ByLayer
 62
  256
370
  211
100
AcDbPolyline
 90
    2
 70
    0
 43
0
 10
0.2962286621672092
 20
211.6923875862758
 10
0.5078205637158817
 20
211.8405019173597
  0
LWPOLYLINE
  5
22B
100
AcDbEntity
  8
Incisione
  6
ByLayer
 62
  256
370
  211
100
AcDbPolyline
 90
    2
 70
    0
 43
0
 10
0.1269551409289988
 20
211.4807956847276
 10
0.2962286621672092
 20
211.6923875862758
  0
LWPOLYLINE
  5
22C
100
AcDbEntity
  8
Incisione
  6
ByLayer
 62
  256
370
  211
100
AcDbPolyline
 90
    2
 70
    0
 43
0
 10
0.0423183803094389
 20
211.2480445930246
 10
0.1269551409289988
 20
211.4807956847276
  0
LWPOLYLINE
  5
22D
100
AcDbEntity
  8
Incisione
  6
ByLayer
 62
  256
370
  211
100
AcDbPolyline
 90
    2
 70
    0
 43
0
 10
3.411e-13
 20
210.9729751210116
 10
0.0423183803094389
 20
211.2480445930246
  0
LWPOLYLINE
  5
22E
100
AcDbEntity
  8
Incisione
  6
ByLayer
 62
  256
370
  211
100
AcDbPolyline
 90
    2
 70
    0
 43
0
 10
3.411e-13
 20
159.6830981857207
 10
3.411e-13
 20
210.9729751210116
  0
LWPOLYLINE
  5
22F
100
AcDbEntity
  8
Incisione
  6
ByLayer
 62
  256
370
  211
100
AcDbPolyline
 90
    2
 70
    0
 43
0
 10
0.0423183803094389
 20
159.4291879038627
 10
3.411e-13
 20
159.6830981857207
  0
LWPOLYLINE
  5
230
100
AcDbEntity
  8
Incisione
  6
ByLayer
 62
  256
370
  211
100
AcDbPolyline
 90
    2
 70
    0
 43
0
 10
0.1269551409289988
 20
159.1964368121597
 10
0.0423183803094389
 20
159.4291879038627
  0
LWPOLYLINE
  5
231
100
AcDbEntity
  8
Incisione
  6
ByLayer
 62
  256
370
  211
100
AcDbPolyline
 90
    2
 70
    0
 43
0
 10
0.2962286621672092
 20
158.9848449106106
 10
0.1269551409289988
 20
159.1964368121597
  0
LWPOLYLINE
  5
232
100
AcDbEntity
  8
Incisione
  6
ByLayer
 62
  256
370
  211
100
AcDbPolyline
 90
    2
 70
    0
 43
0
 10
0.5078205637158817
 20
158.8155713893726
 10
0.2962286621672092
 20
158.9848449106106
  0
LWPOLYLINE
  5
233
100
AcDbEntity
  8
Incisione
  6
ByLayer
 62
  256
370
  211
100
AcDbPolyline
 90
    2
 70
    0
 43
0
 10
0.7405716554188757
 20
158.7309346287526
 10
0.5078205637158817
 20
158.8155713893726
  0
LWPOLYLINE
  5
234
100
AcDbEntity
  8
Incisione
  6
ByLayer
 62
  256
370
  211
100
AcDbPolyline
 90
    2
 70
    0
 43
0
 10
0.9944819372761913
 20
158.6886162484437
 10
0.7405716554188757
 20
158.7309346287526
  0
LWPOLYLINE
  5
235
100
AcDbEntity
  8
Incisione
  6
ByLayer
 62
  256
370
  211
100
AcDbPolyline
 90
    2
 70
    0
 43
0
 10
65.00103215561728
 20
158.6886162484437
 10
0.9944819372761913
 20
158.6886162484437
  0
LWPOLYLINE
  5
236
100
AcDbEntity
  8
Incisione
  6
ByLayer
 62
  256
370
  211
100
AcDbPolyline
 90
    2
 70
    0
 43
0
 10
65.25494243747505
 20
158.7309346287535
 10
65.00103215561728
 20
158.6886162484437
  0
LWPOLYLINE
  5
237
100
AcDbEntity
  8
Incisione
  6
ByLayer
 62
  256
370
  211
100
AcDbPolyline
 90
    2
 70
    0
 43
0
 10
65.48769352917805
 20
158.8155713893726
 10
65.25494243747505
 20
158.7309346287535
  0
LWPOLYLINE
  5
238
100
AcDbEntity
  8
Incisione
  6
ByLayer
 62
  256
370
  211
100
AcDbPolyline
 90
    2
 70
    0
 43
0
 10
65.69928543072672
 20
158.9848449106106
 10
65.48769352917805
 20
158.8155713893726
  0
LWPOLYLINE
  5
239
100
AcDbEntity
  8
Incisione
  6
ByLayer
 62
  256
370
  211
100
AcDbPolyline
 90
    2
 70
    0
 43
0
 10
65.86855895196493
 20
159.1964368121597
 10
65.69928543072672
 20
158.9848449106106
  0
LWPOLYLINE
  5
23A
100
AcDbEntity
  8
Incisione
  6
ByLayer
 62
  256
370
  211
100
AcDbPolyline
 90
    2
 70
    0
 43
0
 10
65.95319571258403
 20
159.4291879038627
 10
65.86855895196493
 20
159.1964368121597
  0
LWPOLYLINE
  5
23B
100
AcDbEntity
  8
Incisione
  6
ByLayer
 62
  256
370
  211
100
AcDbPolyline
 90
    2
 70
    0
 43
0
 10
65.99551409289359
 20
159.6830981857207
 10
65.95319571258403
 20
159.4291879038627
  0
LWPOLYLINE
  5
23C
100
AcDbEntity
  8
Incisione
  6
ByLayer
 62
  256
370
  211
100
AcDbPolyline
 90
    2
 70
    0
 43
0
 10
65.99551409289359
 20
161.2277190670226
 10
65.99551409289359
 20
159.6830981857207
  0
LWPOLYLINE
  5
23D
100
AcDbEntity
  8
Incisione
  6
ByLayer
 62
  256
370
  211
100
AcDbPolyline
 90
    2
 70
    0
 43
0
 10
68.53461691147265
 20
163.7668218856016
 10
65.99551409289359
 20
161.2277190670226
  0
LWPOLYLINE
  5
23E
100
AcDbEntity
  8
Incisione
  6
ByLayer
 62
  256
370
  211
100
AcDbPolyline
 90
    2
 70
    0
 43
0
 10
68.53461691147265
 20
196.5000890551128
 10
68.53461691147265
 20
163.7668218856016
  0
LWPOLYLINE
  5
23F
100
AcDbEntity
  8
Incisione
  6
ByLayer
 62
  256
370
  211
100
AcDbPolyline
 90
    2
 70
    0
 43
0
 10
65.99551409289359
 20
199.0391918736918
 10
68.53461691147265
 20
196.5000890551128
  0
LWPOLYLINE
  5
240
100
AcDbEntity
  8
Incisione
  6
ByLayer
 62
  256
370
  211
100
AcDbPolyline
 90
    2
 70
    0
 43
0
 10
65.99551409289359
 20
210.4651545572965
 10
65.99551409289359
 20
199.0391918736918
  0
LWPOLYLINE
  5
241
100
AcDbEntity
  8
Incisione
  6
ByLayer
 62
  256
370
  211
100
AcDbPolyline
 90
    2
 70
    0
 43
0
 10
64.47205240174651
 20
211.9886162484436
 10
65.99551409289359
 20
210.4651545572965
  0
LWPOLYLINE
  5
242
100
AcDbEntity
  8
Taglio
  6
ByLayer
 62
  256
370
   -1
100
AcDbPolyline
 90
   46
 70
    0
 43
0
 10
65.99551409289359
 20
192.6067980666253
 10
66.05163591923758
 20
192.6077776776606
 10
66.10768936975126
 20
192.6107153153957
 10
66.16360615194264
 20
192.6156074007711
 10
66.21931813982872
 20
192.6224479735349
 10
66.27475745693698
 20
192.631228699503
 10
66.32985655900211
 20
192.641938880714
 10
66.38454831625847
 20
192.6545654684626
 10
66.43876609522727
 20
192.669093079197
 10
66.49244383989935
 20
192.6855040132618
 10
66.54551615221374
 20
192.7037782764633
 10
66.59791837173611
 20
192.7238936044273
 10
66.64958665443646
 20
192.745825489726
 10
66.7004580504738
 20
192.7695472117371
 10
66.75047058089081
 20
192.7950298691972
 10
66.79956331312587
 20
192.8222424154151
 10
66.84767643524924
 20
192.8511516960962
 10
66.89475132883535
 20
192.8817224897366
 10
66.94073064038014
 20
192.9139175505354
 10
66.98555835117747
 20
192.9476976537712
 10
67.02917984556916
 20
192.9830216435939
 10
67.07154197748605
 20
193.0198464831647
 10
67.11259313519781
 20
193.0581273070911
 10
67.1522833041945
 20
193.0978174760876
 10
67.19056412812074
 20
193.1388686337996
 10
67.22738896769158
 20
193.1812307657165
 10
67.26271295751428
 20
193.224852260108
 10
67.29649306075032
 20
193.2696799709051
 10
67.32868812154879
 20
193.31565928245
 10
67.35925891518934
 20
193.3627341760362
 10
67.38816819587066
 20
193.4108472981598
 10
67.41538074208847
 20
193.4599400303946
 10
67.44086339954868
 20
193.5099525608116
 10
67.46458512155959
 20
193.5608239568492
 10
67.48651700685855
 20
193.6124922395493
 10
67.50663233482237
 20
193.6648944590715
 10
67.52490659802368
 20
193.7179667713863
 10
67.5413175320889
 20
193.7716445160581
 10
67.55584514282316
 20
193.8258622950268
 10
67.56847173057167
 20
193.8805540522831
 10
67.57918191178283
 20
193.9356531543485
 10
67.58796263775105
 20
193.9910924714566
 10
67.59480321051467
 20
194.0468044593426
 10
67.59969529589023
 20
194.102721241534
 10
67.60263293362516
 20
194.1587746920477
 10
67.60361254466068
 20
194.2148965183917
  0
LWPOLYLINE
  5
243
100
AcDbEntity
  8
Taglio
  6
ByLayer
 62
  256
370
   -1
100
AcDbPolyline
 90
  137
 70
    0
 43
0
 10
67.60361254466079
 20
194.2148965183919
 10
67.60264728981065
 20
194.2706058557201
 10
67.5997526765135
 20
194.3262483142958
 10
67.59493217974341
 20
194.3817570955234
 10
67.58819158649146
 20
194.437065561287
 10
67.57953898881851
 20
194.4921073139481
 10
67.56898477414063
 20
194.5468162760567
 10
67.55654161275925
 20
194.6011267696774
 10
67.54222444265031
 20
194.6549735952344
 10
67.52605045153098
 20
194.7082921097838
 10
67.50803905622649
 20
194.7610183046179
 10
67.48821187935994
 20
194.8130888821065
 10
67.46659272339457
 20
194.8644413316861
 10
67.4432075420583
 20
194.9150140049035
 10
67.41808440918771
 20
194.9647461894247
 10
67.39125348502398
 20
195.0135781819195
 10
67.36274698000705
 20
195.0614513597357
 10
67.3325991161056
 20
195.1083082512741
 10
67.30084608573486
 20
195.1540926049856
 10
67.26752600830753
 20
195.198749456898
 10
67.23267888447083
 20
195.2422251966018
 10
67.19634654808692
 20
195.2844676316095
 10
67.15857261601047
 20
195.3254260500112
 10
67.11940243572735
 20
195.3650512813556
 10
67.07888303091511
 20
195.4032957556772
 10
67.03706304499099
 20
195.4401135606063
 10
66.99399268271577
 20
195.4754604964844
 10
66.94972364992304
 20
195.509294129427
 10
66.90430909144641
 20
195.5415738422641
 10
66.85780352731979
 20
195.5722608833034
 10
66.81026278732554
 20
195.6013184128492
 10
66.76174394397185
 20
195.6287115474288
 10
66.7123052439764
 20
195.6544074016713
 10
66.66200603834204
 20
195.6783751277844
 10
66.61090671110605
 20
195.7005859525896
 10
66.559068606849
 20
195.7210132120613
 10
66.50655395705098
 20
195.7396323833393
 10
66.45342580538306
 20
195.7564211141676
 10
66.39974793202271
 20
195.771359249728
 10
66.34558477708754
 20
195.7844288568358
 10
66.29100136327338
 20
195.7956142454691
 10
66.23606321779585
 20
195.8049019876044
 10
66.18083629372461
 20
195.8122809333368
 10
66.12538689080725
 20
195.8177422242645
 10
66.0697815758765
 20
195.8212793041262
 10
66.01408710293697
 20
195.8228879266676
 10
65.95837033302723
 20
195.822566160743
 10
65.90269815395311
 20
195.8203143926314
 10
65.84713739998949
 20
195.8161353255732
 10
65.79175477164551
 20
195.8100339765253
 10
65.7366167555914
 20
195.8020176701377
 10
65.68178954484074
 20
195.7920960299609
 10
65.62733895928682
 20
195.7802809668926
 10
65.57333036668479
 20
195.7665866648786
 10
65.51982860417957
 20
195.7510295638854
 10
65.46689790046753
 20
195.7336283401628
 10
65.41460179869091
 20
195.7144038838255
 10
65.36300308015461
 20
195.6933792737723
 10
65.31216368895684
 20
195.6705797499806
 10
65.26214465762564
 20
195.6460326832071
 10
65.21300603384998
 20
195.6197675421276
 10
65.16480680839231
 20
195.5918158579607
 10
65.11760484426998
 20
195.5622111866151
 10
65.07145680729161
 20
195.5309890684048
 10
65.02641809802958
 20
195.4981869853841
 10
64.98254278531203
 20
195.4638443163497
 10
64.93988354131261
 20
195.4280022895668
 10
64.89849157831895
 20
195.3907039332757
 10
64.85841658725178
 20
195.3519940240346
 10
64.81970667801079
 20
195.3119190329674
 10
64.78240832171946
 20
195.2705270699739
 10
64.74656629493677
 20
195.2278678259745
 10
64.7122236259022
 20
195.1839925132567
 10
64.67942154288141
 20
195.1389538039948
 10
64.64819942467102
 20
195.0928057670167
 10
64.6185947533254
 20
195.0456038028942
 10
64.59064306915866
 20
194.9974045774366
 10
64.56437792807913
 20
194.9482659536607
 10
64.53983086130563
 20
194.8982469223297
 10
64.51703133751403
 20
194.8474075311319
 10
64.49600672746078
 20
194.7958088125954
 10
64.47678227112328
 20
194.743512710819
 10
64.45938104740094
 20
194.690582007107
 10
64.44382394640741
 20
194.6370802446017
 10
64.43012964439345
 20
194.5830716519999
 10
64.41831458132515
 20
194.5286210664458
 10
64.40839294114846
 20
194.473793855695
 10
64.40037663476073
 20
194.4186558396409
 10
64.39427528571275
 20
194.3632732112969
 10
64.39009621865455
 20
194.3077124573333
 10
64.38784445054296
 20
194.2520402782593
 10
64.38752268461849
 20
194.1963235083495
 10
64.38913130715991
 20
194.14062903541
 10
64.39266838702133
 20
194.0850237204793
 10
64.39812967794933
 20
194.029574317562
 10
64.4055086236815
 20
193.9743473934907
 10
64.41479636581664
 20
193.9194092480129
 10
64.42598175445005
 20
193.8648258341989
 10
64.43905136155786
 20
193.8106626792637
 10
64.45398949711807
 20
193.7569848059036
 10
64.47077822794643
 20
193.7038566542356
 10
64.48939739922457
 20
193.6513420044375
 10
64.50982465869629
 20
193.5995039001805
 10
64.5320354835012
 20
193.5484045729445
 10
64.55600320961446
 20
193.49810536731
 10
64.58169906385683
 20
193.4486666673147
 10
64.60909219843643
 20
193.4001478239607
 10
64.63814972798218
 20
193.3526070839666
 10
64.66883676902148
 20
193.30610151984
 10
64.70111648185878
 20
193.2606869613633
 10
64.73495011480122
 20
193.2164179285705
 10
64.77029705067923
 20
193.1733475662954
 10
64.80711485560835
 20
193.1315275803713
 10
64.84535932993026
 20
193.091008175559
 10
64.88498456127434
 20
193.0518379952759
 10
64.92594297967617
 20
193.0140640631994
 10
64.96818541468372
 20
192.9777317268154
 10
65.01166115438753
 20
192.9428846029789
 10
65.05631800629988
 20
192.9095645255516
 10
65.10210236001126
 20
192.8778114951808
 10
65.14895925154997
 20
192.8476636312794
 10
65.19683242936594
 20
192.8191571262623
 10
65.24566442186074
 20
192.7923262020986
 10
65.29539660638193
 20
192.7672030692279
 10
65.34596927959933
 20
192.7438178878915
 10
65.39732172917911
 20
192.7221987319263
 10
65.44939230666762
 20
192.7023715550597
 10
65.50211850150163
 20
192.6843601597552
 10
65.55543701605109
 20
192.6681861686359
 10
65.60928384160798
 20
192.6538689985268
 10
65.66359433522871
 20
192.6414258371456
 10
65.71830329733757
 20
192.6308716224676
 10
65.77334504999862
 20
192.6222190247947
 10
65.82865351576186
 20
192.6154784315427
 10
65.88416229698953
 20
192.6106579347725
 10
65.93980475556532
 20
192.6077633214754
 10
65.99551409289359
 20
192.6067980666253
  0
LWPOLYLINE
  5
244
100
AcDbEntity
  8
Taglio
  6
ByLayer
 62
  256
370
   -1
100
AcDbPolyline
 90
   46
 70
    0
 43
0
 10
13.96506550218328
 20
159.6196206152558
 10
14.02118732852716
 20
159.6206002262913
 10
14.07724077904084
 20
159.6235378640264
 10
14.13315756123222
 20
159.6284299494018
 10
14.18886954911829
 20
159.6352705221656
 10
14.24430886622645
 20
159.6440512481338
 10
14.29940796829169
 20
159.6547614293449
 10
14.35409972554794
 20
159.6673880170935
 10
14.40831750451673
 20
159.6819156278277
 10
14.46199524918859
 20
159.6983265618927
 10
14.51506756150309
 20
159.7166008250942
 10
14.56746978102535
 20
159.7367161530581
 10
14.61913806372559
 20
159.7586480383569
 10
14.67000945976304
 20
159.7823697603678
 10
14.72002199018004
 20
159.807852417828
 10
14.769114722415
 20
159.8350649640458
 10
14.81722784453837
 20
159.863974244727
 10
14.86430273812448
 20
159.8945450383676
 10
14.91028204966915
 20
159.9267400991662
 10
14.95510976046648
 20
159.9605202024021
 10
14.99873125485817
 20
159.9958441922247
 10
15.04109338677495
 20
160.0326690317955
 10
15.08214454448682
 20
160.0709498557219
 10
15.12183471348339
 20
160.1106400247185
 10
15.16011553740975
 20
160.1516911824301
 10
15.19694037698059
 20
160.194053314347
 10
15.23226436680329
 20
160.2376748087387
 10
15.26604447003922
 20
160.2825025195359
 10
15.2982395308378
 20
160.3284818310807
 10
15.32881032447835
 20
160.3755567246668
 10
15.35771960515945
 20
160.4236698467901
 10
15.38493215137737
 20
160.472762579025
 10
15.41041480883757
 20
160.5227751094423
 10
15.4341365308486
 20
160.5736465054795
 10
15.45606841614733
 20
160.6253147881798
 10
15.47618374411127
 20
160.677717007702
 10
15.49445800731257
 20
160.7307893200165
 10
15.51086894137779
 20
160.7844670646884
 10
15.52539655211217
 20
160.8386848436572
 10
15.53802313986068
 20
160.8933766009135
 10
15.54873332107172
 20
160.9484757029785
 10
15.55751404703994
 20
161.0039150200868
 10
15.56435461980368
 20
161.0596270079728
 10
15.56924670517924
 20
161.1155437901642
 10
15.57218434291417
 20
161.1715972406779
 10
15.5731639539498
 20
161.2277190670218
  0
LWPOLYLINE
  5
245
100
AcDbEntity
  8
Taglio
  6
ByLayer
 62
  256
370
   -1
100
AcDbPolyline
 90
  137
 70
    0
 43
0
 10
15.5731639539498
 20
161.2277190670219
 10
15.57219869909966
 20
161.2834284043502
 10
15.5693040858024
 20
161.339070862926
 10
15.56448358903231
 20
161.3945796441535
 10
15.55774299578025
 20
161.4498881099169
 10
15.5490903981073
 20
161.5049298625779
 10
15.53853618342953
 20
161.5596388246868
 10
15.52609302204826
 20
161.6139493183074
 10
15.51177585193909
 20
161.6677961438643
 10
15.49560186081976
 20
161.7211146584137
 10
15.47759046551539
 20
161.7738408532476
 10
15.45776328864895
 20
161.8259114307363
 10
15.43614413268347
 20
161.8772638803159
 10
15.4127589513472
 20
161.9278365535333
 10
15.38763581847661
 20
161.9775687380545
 10
15.36080489431299
 20
162.0264007305493
 10
15.33229838929594
 20
162.0742739083653
 10
15.3021505253945
 20
162.1211307999039
 10
15.27039749502387
 20
162.1669151536153
 10
15.23707741759654
 20
162.2115720055276
 10
15.20223029375984
 20
162.2550477452314
 10
15.16589795737593
 20
162.2972901802391
 10
15.12812402529937
 20
162.3382485986408
 10
15.08895384501636
 20
162.377873829985
 10
15.04843444020423
 20
162.4161183043067
 10
15.00661445428011
 20
162.4529361092358
 10
14.96354409200489
 20
162.4882830451138
 10
14.91927505921217
 20
162.5221166780562
 10
14.87386050073553
 20
162.5543963908937
 10
14.82735493660891
 20
162.585083431933
 10
14.77981419661489
 20
162.6141409614785
 10
14.73129535326109
 20
162.6415340960583
 10
14.68185665326564
 20
162.6672299503006
 10
14.63155744763128
 20
162.6911976764139
 10
14.58045812039529
 20
162.7134085012189
 10
14.52862001613835
 20
162.7338357606906
 10
14.47610536634033
 20
162.7524549319687
 10
14.4229772146723
 20
162.769243662797
 10
14.36929934131217
 20
162.7841817983573
 10
14.315136186377
 20
162.7972514054651
 10
14.26055277256285
 20
162.8084367940985
 10
14.20561462708531
 20
162.8177245362338
 10
14.15038770301408
 20
162.8251034819658
 10
14.09493830009683
 20
162.8305647728938
 10
14.03933298516608
 20
162.8341018527552
 10
13.98363851222666
 20
162.8357104752968
 10
13.92792174231681
 20
162.8353887093722
 10
13.8722495632428
 20
162.8331369412607
 10
13.81668880927907
 20
162.8289578742025
 10
13.76130618093521
 20
162.8228565251544
 10
13.70616816488109
 20
162.8148402187669
 10
13.65134095413055
 20
162.8049185785901
 10
13.59689036857651
 20
162.7931035155218
 10
13.54288177597459
 20
162.7794092135078
 10
13.48938001346937
 20
162.7638521125144
 10
13.43644930975734
 20
162.746450888792
 10
13.38415320798094
 20
162.7272264324546
 10
13.33255448944465
 20
162.7062018224013
 10
13.28171509824665
 20
162.6834022986098
 10
13.23169606691567
 20
162.6588552318364
 10
13.18255744314001
 20
162.6325900907568
 10
13.13435821768223
 20
162.6046384065901
 10
13.0871562535599
 20
162.5750337352445
 10
13.04100821658164
 20
162.5438116170342
 10
12.99596950731973
 20
162.5110095340134
 10
12.95209419460207
 20
162.4766668649788
 10
12.90943495060276
 20
162.4408248381961
 10
12.86804298760921
 20
162.403526481905
 10
12.82796799654193
 20
162.364816572664
 10
12.78925808730094
 20
162.3247415815968
 10
12.75195973100972
 20
162.2833496186032
 10
12.71611770422703
 20
162.2406903746039
 10
12.68177503519246
 20
162.1968150618862
 10
12.64897295217168
 20
162.1517763526243
 10
12.6177508339614
 20
162.1056283156461
 10
12.58814616261577
 20
162.0584263515237
 10
12.56019447844903
 20
162.010227126066
 10
12.5339293373695
 20
161.9610885022904
 10
12.50938227059601
 20
161.9110694709593
 10
12.48658274680452
 20
161.8602300797614
 10
12.46555813675116
 20
161.8086313612251
 10
12.44633368041377
 20
161.7563352594487
 10
12.42893245669131
 20
161.7034045557367
 10
12.41337535569789
 20
161.6499027932315
 10
12.39968105368382
 20
161.5958942006296
 10
12.38786599061564
 20
161.5414436150755
 10
12.37794435043872
 20
161.4866164043249
 10
12.36992804405122
 20
161.4314783882708
 10
12.36382669500313
 20
161.3760957599269
 10
12.35964762794504
 20
161.3205350059633
 10
12.35739585983333
 20
161.2648628268892
 10
12.35707409390886
 20
161.2091460569794
 10
12.35868271645052
 20
161.15345158404
 10
12.36221979631171
 20
161.0978462691094
 10
12.3676810872397
 20
161.042396866192
 10
12.37506003297187
 20
160.9871699421208
 10
12.38434777510713
 20
160.9322317966432
 10
12.39553316374042
 20
160.877648382829
 10
12.40860277084835
 20
160.8234852278939
 10
12.42354090640856
 20
160.7698073545338
 10
12.44032963723691
 20
160.7166792028657
 10
12.45894880851483
 20
160.6641645530677
 10
12.47937606798655
 20
160.6123264488107
 10
12.50158689279158
 20
160.5612271215748
 10
12.52555461890483
 20
160.5109279159404
 10
12.55125047314721
 20
160.461489215945
 10
12.5786436077268
 20
160.4129703725912
 10
12.60770113727244
 20
160.3654296325971
 10
12.63838817831186
 20
160.3189240684704
 10
12.67066789114915
 20
160.2735095099939
 10
12.70450152409148
 20
160.2292404772011
 10
12.73984845996949
 20
160.1861701149259
 10
12.77666626489861
 20
160.1443501290017
 10
12.81491073922041
 20
160.1038307241895
 10
12.8545359705646
 20
160.0646605439065
 10
12.89549438896631
 20
160.02688661183
 10
12.93773682397375
 20
159.9905542754461
 10
12.98121256367779
 20
159.9557071516094
 10
13.02586941559002
 20
159.9223870741821
 10
13.07165376930141
 20
159.8906340438115
 10
13.11851066084
 20
159.8604861799099
 10
13.16638383865586
 20
159.8319796748928
 10
13.21521583115077
 20
159.8051487507292
 10
13.26494801567196
 20
159.7800256178585
 10
13.31552068888936
 20
159.7566404365224
 10
13.36687313846892
 20
159.7350212805569
 10
13.41894371595743
 20
159.7151941036904
 10
13.47166991079155
 20
159.6971827083859
 10
13.52498842534089
 20
159.6810087172666
 10
13.5788352508979
 20
159.6666915471576
 10
13.6331457445184
 20
159.6542483857762
 10
13.68785470662738
 20
159.6436941710983
 10
13.7428964592882
 20
159.6350415734254
 10
13.79820492505166
 20
159.6283009801734
 10
13.85371370627922
 20
159.6234804834032
 10
13.9093561648549
 20
159.6205858701061
 10
13.96506550218317
 20
159.6196206152559
  0
LWPOLYLINE
  5
246
100
AcDbEntity
  8
Taglio
  6
ByLayer
 62
  256
370
   -1
100
AcDbPolyline
 90
   46
 70
    0
 43
0
 10
65.99551409289415
 20
164.6978262524134
 10
66.05163591923792
 20
164.698805863449
 10
66.10768936975171
 20
164.701743501184
 10
66.16360615194299
 20
164.7066355865595
 10
66.21931813982906
 20
164.7134761593234
 10
66.27475745693732
 20
164.7222568852916
 10
66.32985655900234
 20
164.7329670665026
 10
66.3845483162587
 20
164.7455936542513
 10
66.43876609522749
 20
164.7601212649855
 10
66.49244383989935
 20
164.7765321990506
 10
66.54551615221385
 20
164.7948064622522
 10
66.59791837173611
 20
164.814921790216
 10
66.64958665443635
 20
164.8368536755148
 10
66.70045805047369
 20
164.8605753975258
 10
66.75047058089081
 20
164.8860580549861
 10
66.79956331312576
 20
164.9132706012039
 10
66.84767643524901
 20
164.9421798818851
 10
66.89475132883513
 20
164.9727506755257
 10
66.94073064037991
 20
165.0049457363243
 10
66.98555835117713
 20
165.0387258395601
 10
67.02917984556882
 20
165.0740498293828
 10
67.07154197748559
 20
165.1108746689537
 10
67.11259313519736
 20
165.14915549288
 10
67.15228330419393
 20
165.1888456618766
 10
67.19056412812029
 20
165.2298968195884
 10
67.22738896769101
 20
165.2722589515051
 10
67.26271295751371
 20
165.3158804458968
 10
67.29649306074964
 20
165.3607081566942
 10
67.32868812154823
 20
165.4066874682389
 10
67.35925891518866
 20
165.4537623618251
 10
67.38816819586987
 20
165.5018754839483
 10
67.41538074208779
 20
165.5509682161834
 10
67.44086339954788
 20
165.6009807466004
 10
67.46458512155891
 20
165.6518521426377
 10
67.48651700685764
 20
165.7035204253381
 10
67.50663233482157
 20
165.7559226448602
 10
67.52490659802299
 20
165.8089949571747
 10
67.54131753208799
 20
165.8626727018467
 10
67.55584514282236
 20
165.9168904808154
 10
67.56847173057076
 20
165.9715822380717
 10
67.57918191178192
 20
166.0266813401369
 10
67.58796263775025
 20
166.082120657245
 10
67.59480321051399
 20
166.1378326451311
 10
67.59969529588943
 20
166.1937494273225
 10
67.60263293362448
 20
166.2498028778361
 10
67.60361254466
 20
166.30592470418
  0
LWPOLYLINE
  5
247
100
AcDbEntity
  8
Taglio
  6
ByLayer
 62
  256
370
   -1
100
AcDbPolyline
 90
  137
 70
    0
 43
0
 10
67.60361254466034
 20
166.30592470418
 10
67.60264728981031
 20
166.3616340415084
 10
67.59975267651305
 20
166.4172765000841
 10
67.59493217974295
 20
166.4727852813116
 10
67.58819158649101
 20
166.5280937470751
 10
67.57953898881806
 20
166.5831354997362
 10
67.56898477414018
 20
166.6378444618449
 10
67.55654161275879
 20
166.6921549554656
 10
67.54222444264974
 20
166.7460017810225
 10
67.52605045153052
 20
166.799320295572
 10
67.50803905622604
 20
166.852046490406
 10
67.48821187935948
 20
166.9041170678946
 10
67.466592723394
 20
166.9554695174743
 10
67.44320754205785
 20
167.0060421906918
 10
67.41808440918714
 20
167.055774375213
 10
67.39125348502353
 20
167.1046063677078
 10
67.36274698000648
 20
167.1524795455238
 10
67.33259911610503
 20
167.1993364370625
 10
67.30084608573429
 20
167.2451207907739
 10
67.26752600830696
 20
167.2897776426862
 10
67.23267888447037
 20
167.3332533823901
 10
67.19634654808635
 20
167.3754958173977
 10
67.15857261600979
 20
167.4164542357994
 10
67.11940243572678
 20
167.4560794671436
 10
67.07888303091454
 20
167.4943239414655
 10
67.03706304499053
 20
167.5311417463946
 10
66.9939926827152
 20
167.5664886822726
 10
66.94972364992236
 20
167.600322315215
 10
66.90430909144584
 20
167.6326020280524
 10
66.85780352731922
 20
167.6632890690917
 10
66.81026278732509
 20
167.6923465986373
 10
66.76174394397128
 20
167.719739733217
 10
66.71230524397572
 20
167.7454355874594
 10
66.66200603834147
 20
167.7694033135726
 10
66.61090671110537
 20
167.7916141383777
 10
66.55906860684831
 20
167.8120413978494
 10
66.50655395705041
 20
167.8306605691274
 10
66.45342580538227
 20
167.8474492999558
 10
66.39974793202214
 20
167.8623874355161
 10
66.34558477708686
 20
167.8754570426239
 10
66.29100136327281
 20
167.8866424312573
 10
66.23606321779505
 20
167.8959301733926
 10
66.18083629372381
 20
167.9033091191246
 10
66.12538689080657
 20
167.9087704100526
 10
66.06978157587582
 20
167.912307489914
 10
66.0140871029364
 20
167.9139161124556
 10
65.95837033302655
 20
167.913594346531
 10
65.90269815395243
 20
167.9113425784194
 10
65.8471373999887
 20
167.9071635113613
 10
65.79175477164483
 20
167.9010621623132
 10
65.7366167555906
 20
167.8930458559257
 10
65.68178954484017
 20
167.8831242157488
 10
65.62733895928602
 20
167.8713091526806
 10
65.5733303666841
 20
167.8576148506666
 10
65.51982860417888
 20
167.8420577496731
 10
65.46689790046673
 20
167.8246565259507
 10
65.41460179869034
 20
167.8054320696133
 10
65.36300308015404
 20
167.7844074595599
 10
65.31216368895605
 20
167.7616079357683
 10
65.26214465762484
 20
167.7370608689949
 10
65.2130060338493
 20
167.7107957279153
 10
65.16480680839152
 20
167.6828440437487
 10
65.11760484426918
 20
167.6532393724029
 10
65.07145680729093
 20
167.6220172541927
 10
65.0264180980289
 20
167.5892151711718
 10
64.98254278531124
 20
167.5548725021373
 10
64.93988354131193
 20
167.5190304753545
 10
64.89849157831839
 20
167.4817321190633
 10
64.8584165872511
 20
167.4430222098223
 10
64.81970667801011
 20
167.402947218755
 10
64.78240832171889
 20
167.3615552557615
 10
64.7465662949362
 20
167.318896011762
 10
64.71222362590163
 20
167.2750206990445
 10
64.67942154288085
 20
167.2299819897825
 10
64.64819942467057
 20
167.1838339528041
 10
64.61859475332483
 20
167.1366319886819
 10
64.59064306915809
 20
167.088432763224
 10
64.56437792807867
 20
167.0392941394483
 10
64.53983086130506
 20
166.9892751081172
 10
64.51703133751369
 20
166.9384357169195
 10
64.49600672746021
 20
166.886836998383
 10
64.47678227112294
 20
166.8345408966064
 10
64.45938104740048
 20
166.7816101928945
 10
64.44382394640706
 20
166.7281084303893
 10
64.43012964439299
 20
166.6740998377873
 10
64.41831458132481
 20
166.6196492522332
 10
64.40839294114812
 20
166.5648220414826
 10
64.40037663476039
 20
166.5096840254284
 10
64.39427528571252
 20
166.4543013970845
 10
64.39009621865421
 20
166.3987406431207
 10
64.38784445054262
 20
166.3430684640467
 10
64.38752268461826
 20
166.287351694137
 10
64.38913130715969
 20
166.2316572211975
 10
64.3926683870211
 20
166.1760519062667
 10
64.3981296779491
 20
166.1206025033493
 10
64.40550862368127
 20
166.0653755792781
 10
64.41479636581653
 20
166.0104374338006
 10
64.42598175444994
 20
165.9558540199863
 10
64.43905136155774
 20
165.9016908650513
 10
64.45398949711796
 20
165.848012991691
 10
64.47077822794631
 20
165.794884840023
 10
64.48939739922446
 20
165.742370190225
 10
64.50982465869629
 20
165.6905320859679
 10
64.5320354835012
 20
165.639432758732
 10
64.55600320961446
 20
165.5891335530976
 10
64.58169906385695
 20
165.5396948531021
 10
64.60909219843666
 20
165.4911760097484
 10
64.63814972798218
 20
165.4436352697542
 10
64.6688367690216
 20
165.3971297056275
 10
64.70111648185912
 20
165.3517151471509
 10
64.73495011480145
 20
165.3074461143581
 10
64.77029705067946
 20
165.264375752083
 10
64.80711485560869
 20
165.2225557661587
 10
64.84535932993049
 20
165.1820363613466
 10
64.88498456127468
 20
165.1428661810636
 10
64.92594297967639
 20
165.105092248987
 10
64.96818541468394
 20
165.0687599126031
 10
65.01166115438798
 20
165.0339127887665
 10
65.05631800630033
 20
165.0005927113391
 10
65.10210236001171
 20
164.9688396809685
 10
65.14895925155042
 20
164.938691817067
 10
65.1968324293664
 20
164.91018531205
 10
65.24566442186119
 20
164.8833543878862
 10
65.29539660638238
 20
164.8582312550158
 10
65.3459692795999
 20
164.8348460736795
 10
65.39732172917945
 20
164.813226917714
 10
65.44939230666807
 20
164.7933997408476
 10
65.50211850150208
 20
164.7753883455432
 10
65.55543701605154
 20
164.7592143544239
 10
65.60928384160854
 20
164.7448971843148
 10
65.66359433522928
 20
164.7324540229336
 10
65.71830329733814
 20
164.7218998082557
 10
65.77334504999908
 20
164.7132472105827
 10
65.82865351576243
 20
164.7065066173308
 10
65.88416229699021
 20
164.7016861205606
 10
65.93980475556589
 20
164.6987915072634
 10
65.99551409289427
 20
164.6978262524134
  0
DIMENSION
  5
248
100
AcDbEntity
  8
Incisione
  6
ByLayer
 62
  256
370
   -1
100
AcDbDimension
  2
*D2
 10
3.411394868351519e-13
 20
152.2982054500692
 30
0
 11
34.2673084557365
 21
152.2982054500692
 31
0
 70
   33
  1
<>
 71
    5
 72
    0
  3
Standard
 53
0
210
0
220
0
230
1
100
AcDbAlignedDimension
 13
68.53461691147265
 23
163.7668218856016
 33
0
 14
3.411e-13
 24
163.7668218856016
 34
0
  0
ENDSEC
  0
SECTION
  2
OBJECTS
  0
DICTIONARY
  5
C
330
0
100
AcDbDictionary
281
    1
  3
ACAD_GROUP
350
D
  0
DICTIONARY
  5
D
330
C
100
AcDbDictionary
281
    1
  0
ENDSEC
  0
EOF
